<svg xmlns="http://www.w3.org/2000/svg" height="265.02" width="298" viewBox="0 0 300 267.02">
  <g fill-rule="evenodd">
    <path d="M287.095.976s.694 12.706-1.705 24.337c-2.32 11.239-3.595 15.52-3.595 15.52-4.908 2.878-12.853 6.418-24.466 8.35-21.674 3.614-41.342-2.208-62.814-10.637-21.478-8.43-50.213-17.509-76.874-14.447-25.851 2.969-44.348 13.44-54.182 20.269-9.834 6.822-11.643 8.626-20.073 11.036 0 0 6.626 2.608 10.037 2.608 0 0-1.607 6.631-1.006 8.834 0 0 14.048-6.423 15.655-3.411 1.608 3.012-5.018 5.024-9.631 6.22-4.614 1.21-16.662 1-16.662 1s5.65 4.375 7.644 7.411c0 0-10.65 4.638-22.497 3.03 0 0-.392 4.387 9.344 11.571-2.074.743-4.7 1.945-6.325 3.681 0 0 10.202-2.104 16.613 5.037 1.687 2.116 2.239 4.012 2.049 6.404-.35 4.338-2.012 5.994-6.098 8.693-2.338.951-4.822 2.141-7.22 3.607-11.283 6.933-19.534 17.484-25.325 29.54-2.509 5.22-4.515 11.287-5.932 16.79-1.417 5.534-1.939 10.448-2.27 13.515-.331 3.061-.785 12.712-.785 12.712s5.06-7.092 7.435-10.491c2.362-3.386 17.33-22.208 39.133-27.661 6.976-1.773 13.92-2.516 20.558-2.516 15.957-.012 30.208 4.32 38.643 8.448 12.245 5.926 32.361 19.913 58.734 24.287 6.21 1.025 12.902 1.534 19.84 1.534 6.656 0 13.546-.485 20.429-1.424a820.624 820.624 0 0 1-11.165 16.252c-3.595-3.423-8.473-3.78-8.473-3.78-5.914-.558-8.876 3.044-8.876 3.044a9.759 9.759 0 0 0-2.442 4.956c-.418 1.835.08 3.97.423 5.055 1.129 3.583 4.19 5.215 5.38 5.736-8.644 11.515-11.153 24.773-11.153 24.779l-3.945 3.478 1.424 5.767c-2.196 7.073 1.251 12.38 5.723 14.576 4.54 2.233 8.78.938 8.78.938a11.961 11.961 0 0 0 7.398-6.03 12.494 12.494 0 0 0 2.386-1.656c1.246.14 4.436.239 4.436.239 6.54-.055 12.932-1.908 17.809-6.049 3.84-3.435 8.067-9.294 8.214-17.3 0-1.503.276-7.564-4.73-12.846 31.589-46.38 52.097-76.236 65.188-106.613 34.686-80.528 5.098-114.1 4.97-114.385z" fill="#b1babf"/>
    <path d="M289.654 14.84c-.35 16.798-4.952 28.497-4.952 28.497-6.576 3.938-15.551 8.14-25.803 9.662-21.416 3.166-31.937-.037-51.771-6.38-19.821-6.343-49.569-20.03-80.098-19.828-30.539.197-52.336 13.454-71.86 28.533.3-.092 5.09-1.589 6.82-2.16 0 0-4.557 5.35-5.944 8.325 0 0 9.086-6.79 21.558-6.067 0 0-4.337 1.086-6.147 3.798 0 0 5.061-1.092 5.963.901.908 1.988-2.166 6.51-7.767 9.037-5.6 2.534-14.644 4.521-20.428 4.883 0 0 5.79 1.81 9.582 5.423 0 0-4.417.632-9.22 2.528-4 1.583-11.209 2.534-14.282 2.172 0 0 4.208 3.938 9.22 7.048 14.674 9.104 8.479 22.6 3.754 27.024-3.11.883-35.532 9.705-42.961 62.047 0 0 16.428-22.92 41.305-29.25 24.882-6.332 49.005 0 61.666 6.177 12.663 6.184 32.263 19.748 57.74 23.975 14.012 2.325 30.883 1.901 47.214-1.221-.264.405-12.724 18.938-18.08 26.41 0 0-3.975-4.993-9.355-5.49 0 0-2.258-.454-4.086.497v.006c-1.613.742-2.994 2.331-3.441 4.533-.454 2.234.355 3.964 1.411 5.19 1.006 1.172 2.27 1.767 3.294 2.043.914.221 2.184.78 2.423 1.988-2.454 3.78-5.815 9.24-8.239 14.515-1.902 4.153-2.81 7.717-3.57 10.116-.718 2.46-1.356 3.423-1.565 3.546l-2.583 2.276s.988 3.994 1.27 4.663a8.265 8.265 0 0 0-.944 3.797v.074a8.36 8.36 0 0 0 3.766 6.976c1.896 1.306 4.638 1.386 4.638 1.386a8.38 8.38 0 0 0 6.963-3.743 8.114 8.114 0 0 0 .896-1.81c1.944-.79 3.14-1.895 3.76-2.803 1.442.331 5.638.46 5.81.46 5.865-.043 11.423-1.724 15.49-5.19 3.27-2.926 6.84-7.931 6.957-14.638 0-1.196.362-7.503-5.693-12.509a1575.58 1575.58 0 0 0 18.423-27.22c12.57-19.048 22.852-35.599 30.674-49.42 8.184-14.049 33.79-52.643 33.735-105.49-.024-15.398-5.539-25.286-5.539-25.286z"/>
    <path d="M129.242 32.267C88.54 32.05 68.71 53.417 68.7 53.427c.006-.006 9.669-3.522 14.54-.356 5.294 3.441.626 12.319-1.08 14.092-4.895 5.098-11.931 8.863-19.704 8.863 0 0 8.225 1.977 10.888 4.424 0 0-7.63 1-11.79 2.442C57.4 84.34 49.265 86.69 47.462 86.69c0 0 21.428 9.797 8.128 30.723 0 0 9.3-1.424 17.049 2.294 0 0-42.452-6.852-56.814 40.005 5.411-4.46 22.41-16.453 48.876-16.582 31.95-.141 45.654 7.208 58.347 14.895 19.35 11.73 33.98 15.202 45.096 17.276 31.945 5.963 64.023-4.78 77.921-11.258 40.349-61.82 44.992-96.739 45.679-121.672-13.036 13.122-34.882 16.336-44.784 16.275-29.459-.178-61.366-16.754-89.673-23.073-10.255-2.288-19.602-3.262-28.05-3.307zm39.832 13.972c7.745-.196 15.512 2.572 15.604 2.605.123.036 14.067 4.423 19.122 12.938 5.08 8.558 4.405 16.349 1.331 22.036-3.073 5.693-6.03 8.9-5.95 10.803.073 1.895.888 3.453.888 3.453s-3.521 7.037-8.705 9.025c0 0-2.864 7.405-5.956 9.859-3.08 2.454-7.681 4.982-11.835 8.306-1.638 1.313-3.52 2.122-5.526 2.533.135.098.263.197.398.295 8.35-.22 20.84-1.233 33.913-4.748 23.024-6.196 44.894-27.215 44.894-27.215-5.472 17.902-7.914 23.817-22.19 33.927-14.281 10.104-36.643 13.189-36.643 13.189-.251.969-1.73 1.988-1.73 1.988s2.289.846 7.908 5.073c5.614 4.226 4.092 4.018 5.883 5.227 1.683 1.13 2.683.9 2.798.868l.012-.004c.54 1.086.608 2.7.608 2.7.748.706 4.41 4.201 1.005 7.82-3.41 3.62-7.35.26-7.35.26-1.392.294-2.747-.167-2.747-.167s-7.29 4.59-14.527-.41c-5.89-4.062-5.534-8.878-5.19-10.54-1.988 1.14-4.124 2.03-6.313 2.718-5.909 1.852-13.447 2.619-20.938.128-4.92-1.656-8.994-4.527-12.208-7.71-3.22-3.19-5.601-6.712-7.153-9.884a31.742 31.742 0 0 1-.65-1.429c-.515 1.227-2.982 5.883-10.62 5.551-8.79-.38-11.84-8.435-11.84-8.435s-1.356-.454-2.288-1.521c0 0-5.164.306-5.704-4.638-.534-4.945 4.502-5.52 5.526-5.631 0 0 1.019-1.252 2.105-1.792 0 0 .613.89 2.767 1.006 2.153.117.816-.638 7.846-.62 7.03.012 9.362.725 9.362.725s-.566-1.707-.18-2.633c0 0-15.967-15.95-21.262-32.624s-3.675-22.858 2.754-40.44c0 0 4.767 29.956 19.399 48.777 8.35 10.742 17.743 19.116 24.276 24.33.147 0 .3.008.447.008-1.392-1.553-2.453-3.375-2.98-5.46-1.307-5.154-3.449-9.945-4.43-13.761-.982-3.822 1.202-11.46 1.202-11.46-2.932-4.699-1.503-12.435-1.503-12.435s1.59-.754 2.798-2.22c1.202-1.473.784-5.817 1.766-12.209.981-6.392 5.142-13.006 14.356-16.767 2.291-.935 4.87-1.33 7.451-1.395z" fill="#a71930"/>
    <path d="M149.482 125.33c-8.975.147-16.938 4.224-19.112 6.971-.118.15-.23.305-.322.47-.01.017-.022.052-.036.065a4.078 4.078 0 0 1 1.808-.84 2.153 2.153 0 0 0-1.182 2.76c2.194 5.364 9.044 14.176 19.353 17.638 10.504 3.523 21.412.673 26.298-2.407.57-.403 1.322-1.418.588-2.803 0 0 .573.586.872 1.525.127-.912-.071-2.204-.578-3.716-1.959-5.829-8.487-14.925-18.553-18.302-3.04-1.02-6.144-1.409-9.136-1.36zm-10.16 5.988c1.767.014 3.709.127 5.767.372-.359.45-.704.916-1.036 1.396-4.48-.799-8.548-1.131-11.836-1.16 1.703-.378 4.162-.631 7.106-.608zm26.995 7.536c4.633 2.716 8.081 5.639 9.838 7.733-2.576-1.9-5.925-4.01-9.859-6.013.026-.577.033-1.15.02-1.72z" fill="#dc4405"/>
    <path d="M172.322 50.468c-13.518-.172-16.29 10.86-16.346 13.746-.043 2.325.112 3.895.038 4.827 1.374-.565 2.7-1.294 3.712-2.27-.234.27-4.05 4.614-8.13 5.074 0 0-.896 3.932-1.988 5.92-1.08 1.994-3.196 3.356-3.196 3.356-.202 2.81 1.313 6.876 3 7.723 1.68.847 6.178 2.332 7.926 4.326 1.743 1.993 1.792 4.11 1.387 5.613-.129.62-.399 1.355-.613 1.889.055.012.105.024.147.037.368.128.57.38.564.516 0 0-.196.122-.343.349-.141.227-.388.81-.455.97a32.443 32.443 0 0 0-.631 1.705c-.012.018-.012.037-.012.055-.197.583.392.786.392.786 0 .006.06.024.067.024.472.086.982.19 1.51.3l.021.003c.122.016.71.06.923-.505.227-.669.424-1.222.675-1.89.013-.037.03-.08.05-.122l.018-.044s.153-.46.22-.736c.062-.258.333-.7.578-.7.257 0 .607.124.57.646-.037.521-.142.864-.16.926a.356.356 0 0 0-.012.073c-.233.822-.706 2.553-.706 2.553-.227.662.497.87.497.87.441.123 1.105.228 1.571.369l.092.017s.552.178.748.105c.202-.074.331-.38.368-.478.03-.098.767-2.67.847-2.946a1.57 1.57 0 0 0-.08-.864c.036.006.706.123 1.08.245.313.11.73.277.939.436-.32.16-.528.687-.546.76-.006.012-.013.018-.013.025-.05.171-.11.338-.159.503-.233.706-.54 1.607-.78 2.319-.037.19-.073.662.48.87.03.007.055.026.085.032.46.172 1.043.38 1.472.552l.026.008c.048.016.16.048.293.048.215 0 .48-.08.602-.448.11-.338.362-1.087.582-1.768.215-.675.41-1.287.417-1.36.006-.13.16-.37.252-.449.252-.018.435.018.607.104.202.098.436.35.528.442-.135.233-.35.828-.405 1.154-.043.276-.368 1.46-.521 2.012-.019.043-.031.104-.05.153-.012.018-.005.036-.011.061-.007.018-.013.031-.007.043-.086.57.466.859.466.859.49.233.963.46 1.393.674 0 0 .062.025.068.025 0 0 .588.191.784-.392a.136.136 0 0 1 .024-.043c.197-.613.352-1.123.523-1.748.043-.172.092-.345.136-.516a.433.433 0 0 0 .024-.134c.011-.043.097-.35.122-.54a.947.947 0 0 0 .012-.258s.326.128.706.294c.153-1.288.705-2.25.705-2.25.123-.295.3-.547.49-.774-.006 0-.012.005-.012.005.706-1.214 1.988-2.417 4.117-2.858 2.595-.534 7.074.987 8.933 1.33 1.638.301 4.687-1.477 6.428-3.532.32-.491.54-.847.54-.847s-.87-2.362-.533-4.607c.344-2.239 1.993-5.926 1.993-5.926l-.146-.144c-2.836-2.86-3.251-8.432-3.276-8.794l-.001-.015v-.004c.19 1.227.687 2.454 1.331 3.607.54-.816 1.59-1.925 2.755-3.545.828-1.16 2.337-4.301 2.337-8.142 0-4.368-1.951-9.65-9.06-13.974-.025-.018-.05-.038-.08-.05a3.894 3.894 0 0 0-.27-.158 32.587 32.587 0 0 0-2.675-1.448c-.393-.19-.773-.363-1.135-.528-.368-.16-.718-.307-1.05-.442-.25-.104-.49-.197-.717-.283-.172-.067-.338-.128-.497-.19-.547-.202-1-.349-1.331-.453-.068-.025-.13-.043-.197-.068a70.753 70.753 0 0 0-6.478-1.663 29.309 29.309 0 0 0-4.55-.433zm-66.794 11.241s-1.955 12.21 7.522 29.566l.68 1.222c.443.721.998 1.687 1.714 2.857 3.433 5.497 7.996 11.409 14.108 17.562l.015.015c.382.374 7.684 7.568 10.841 10.35a38.088 38.088 0 0 1 3.932-.846c-4.512-3.731-8.957-7.815-13.021-12.218-20.544-22.255-24.47-42.95-25.79-48.507zm48.695 11.787c.14.056 2.367 1.032 4.33 2.903.197.184.387.374.572.57 2.133 2.32 4.153 4.441 6.135 5.104.644.215 1.324.264 1.944.234.007 0 .018 0 .031-.007.172-.006.337-.018.496-.036 1.018-.13 1.83-.4 1.83-.4s-1.056 1.615-1.743 2.516c-.693.908-3.639 4.172-5.859 3.926-.018 0-.037-.012-.055-.012-2.326-.117-5.89-2.037-7.265-3.368-.183-.184-.465-.584-.47-.584a1.11 1.11 0 0 1-.138.1c.05-.031.094-.068.137-.105.025-.025-.443-.835-.474-.897-.736-1.779-.564-3.993-.104-5.778.135-.522.296-1.037.498-1.54 0 0 .797-1.724.337-2.417-.055-.062-.117-.124-.172-.179l-.012-.005c0-.006-.007-.012-.019-.025zm22.718 10.848.037.049c.092.135.521.73 1.178 1.361.117.117.24.228.369.339.006.005.016.012.023.024.479.399 1.044.766 1.695.982 1.98.668 4.87.196 7.968-.369.27-.042.533-.08.798-.11 2.779-.319 5.222.295 5.222.295l.005.017-.055-.005-.245.036c-.785.276-1.19 2.136-1.19 2.136a12.87 12.87 0 0 1-.572 1.637c-.522 1.202-1.245 2.375-2.159 3.326-.687.718-1.441 1.074-2.282 1.547l-.007-.007c-.011 0-.484.147-.735.177-1.903.234-5.903-.38-7.822-1.693-.019-.006-.032-.013-.043-.019-1.927-1.147-2.314-5.534-2.32-6.67-.006-1.127.128-3.02.135-3.053zm-28.3 14.538c-.661.007-1.443.114-1.923.516 0 0 .56 3.076 2.066 5.78 1.505 2.702 3.3 7.447 3.964 9.363.273.787.806 1.68 1.678 2.573 1.197-.665 4.131-.457 7.326.616 3.057 1.027 5.442 2.538 6.128 3.761 1.1-.202 1.969-.57 2.609-.997 1.69-1.126 5.977-3.829 8.812-5.077 2.83-1.247 5.13-3.362 5.13-3.362-.232-1.01-1.6-1.869-2.071-2.14-.282.052-1.402.276-1.962.69-.642.472-2.972 3.94-6.024 5.243.289-1.716-.821-2.604-1.107-2.574-.282.033-.508.706-.567.876-.059.172-.648 1.333-.85 1.877-.2.545-.14.588-.14.588-.49-.014-.98-.041-1.465-.079.467-.88.884-1.757 1.277-2.63.284-.729-.494-.889-.499-.894-.434-.067-.868-.139-1.302-.22-.017-.003-.03 0-.048-.002-.545-.097-.875.244-.945.452-.054.138-.106.276-.164.412-.199.482-.414.962-.621 1.442-.01.028-.017.06-.032.084-.246.608-.038 1.116-.038 1.116-.17-.011-.574.002-1.255-.132-.323-.065-.754-.256-.754-.256.24-.197.385-.57.39-.568l1.105-2.71s.265-.71-.198-.846a40.775 40.775 0 0 1-1.866-.512c-.47-.1-.674.286-.726.412-.096.249-.264.632-.32.805-.24.679-.476 1.354-.71 2.026 0 .01 0 .019-.003.028-.146.433-.031.84-.031.84s-.601-.122-.917-.205c-.32-.084-.794-.417-.794-.417.077-.08.169-.294.235-.447.287-1.007.558-2.269.8-3.32.018-.148.022-.586-.421-.771a41.223 41.223 0 0 1-1.573-.609c-.46-.144-.662.234-.734.458-.208.953-.453 2.092-.61 2.919-.067.58.196.986.196.986-.243-.06-.735-.273-1.13-.44-.26-.11-.835-.487-.835-.487.294-.026.463-.654.463-.654.328-.679.545-1.267.802-1.91.01-.032.024-.058.034-.089.007-.019.01-.033.021-.058a.906.906 0 0 0-.3-1.102c-.684-.342-1.456-.745-1.463-.745-.391-.21-.654.067-.737.336-.271.768-.696 1.465-.843 2.31-.068.479-.029.814-.029.814-.933-.445-1.277-1.147-1.277-1.147.223-.267.52-1.209.527-2.09.01-.881.066-1.704-.347-1.996-.412-.293-1.1.448-1.454.971-.351.523-.432.828-.432.828v.067c-1.653-2.88-1.423-7.064-1.646-7.833-.228-.763-1.2-1.783-1.2-1.783s-.54-.094-1.2-.087zm91.532 8.013c-.023.046-.78.671-2 1.66-.523.43-1.095.895-1.745 1.41-7.109 5.613-21.936 15.71-46.078 20.049-5.851 1.051-11.813 1.627-17.62 1.883.956.99 1.83 1.996 2.628 3.018 0 0 2.54-.187 2.89-.216 4.383-.368 8.763-.901 13.092-1.683 10.71-1.934 18.807-4.67 22.653-6.116a82.47 82.47 0 0 0 2.599-1.083c18.918-8.208 23.466-18.654 23.581-18.921zm-125.057 20.426c-1.397.007-2.794.144-4.177.338-1.226.17-2.403.384-3.536.373-.27 0-.534-.015-.79-.05l-.253-.04c-.32-.06-.63-.15-.934-.28.013.05.674 2.845 4.364 2.845.035-.04.164-.283.187-.327.353-.667 1.044-1.301 1.693-1.68.007-.003.013-.01.019-.013 1.134-.68 2.914-1.093 4.04-1.155.032-.003-.397-.012-.613-.01zm.782.01c-1.003.194-2.155.553-2.96 1.082-.935.607-1.539 1.363-1.857 2.01 3.062-.362 8.865-.286 10.331-.033l.034-.035c.846-1.338 2.1-1.933 3.012-2.236a75.515 75.515 0 0 0-4.828-.58 49.735 49.735 0 0 0-3.732-.207zm31.784 2.779a22.98 22.98 0 0 0-1.203 1.588c-.425-.06-.847-.116-1.263-.165-.043.052-.083.106-.125.159a25.195 25.195 0 0 0-1.354 1.864c.48.084.968.172 1.459.266a18.112 18.112 0 0 0-1.177 2.773c.76.095 1.52.205 2.275.336.318-.913.692-1.796 1.116-2.651.78.172 1.571.36 2.368.562a32.578 32.578 0 0 0-1.038 2.56c.747.165 1.496.342 2.233.54.302-.858.625-1.697.963-2.52.765.217 1.533.448 2.306.694-.297.825-.59 1.663-.879 2.51.73.227 1.451.47 2.172.73.28-.852.551-1.697.813-2.535.766.27 1.52.546 2.261.832-.227.863-.478 1.73-.754 2.597.707.29 1.41.598 2.106.92.28-.892.52-1.788.72-2.684.758.316 1.501.64 2.228.97a23.2 23.2 0 0 1-.712 2.81c.679.353 1.353.721 2.013 1.105.334-.968.578-1.955.743-2.954.447.217.886.437 1.32.657.01-.166.018-.333.026-.499.025-.576.033-1.15.02-1.72l-.008-.304a57.46 57.46 0 0 0-1.104-.62c.027-.645.025-1.293-.004-1.941a53.022 53.022 0 0 0-1.849-1.009 28.9 28.9 0 0 1-.098 1.935 57.448 57.448 0 0 0-2.1-.99c.094-.641.171-1.283.233-1.919a44.34 44.34 0 0 0-1.797-.793 59.68 59.68 0 0 1-.375 1.889 55.923 55.923 0 0 0-2.104-.8c.184-.622.364-1.237.537-1.845-.599-.216-1.203-.418-1.812-.607-.228.59-.458 1.19-.686 1.797a54.251 54.251 0 0 0-2.164-.627c.275-.591.557-1.172.845-1.741-.627-.16-1.265-.31-1.912-.45-.338.55-.664 1.113-.978 1.688a55.96 55.96 0 0 0-2.285-.466c.35-.56.72-1.105 1.105-1.633a54.57 54.57 0 0 0-2.081-.31zm37.346 18.333c.542.788 1.192 2.08 1.064 3.651 1.316.682 5.991 4.118 8.215 6.258.136-.709.11-1.677-.27-2.725-.324-.908-1.022-1.887-1.706-2.648l-.267-.198c-.7-.503-1.418-.98-2.143-1.445a75.91 75.91 0 0 0-3.093-1.881c-.496-.285-.996-.564-1.495-.845-.106-.06-.203-.11-.305-.167zm7.42 4.614c.045.038 2.096 2.2 2.545 3.379.27.667.419 1.494.375 2.214a3.452 3.452 0 0 1-.077.542l.011.016a6.681 6.681 0 0 0 1.018.646c.346.178.707.314 1.084.406.27.065.571.107.849.107.81 0 1.56-.315 2.2-.795l.029-.02a4.322 4.322 0 0 1-.89-.325 5.822 5.822 0 0 1-.904-.566c-.39-.29-1.54-1.375-1.818-1.656-.378-.382-.76-.76-1.141-1.137-.464-.455-1.472-1.387-1.942-1.743-.103-.077-1.338-1.068-1.338-1.068zm36.554 22.996c-.078.031-.159.056-.24.08-2.74.86-5.532 1.607-8.355 2.294-.32.485-16.226 24.229-21.852 32.044.134.117 3.924 3.362 4.048 3.46 1.52-2.049 23.596-33.626 26.399-37.878zm-38.582 41.768-.183.276a183 183 0 0 0-3.786 6.098c-1.167 1.977-3.455 6.394-3.54 6.565-.013.092-.57 3.387.042 5.944a.163.163 0 0 1 .007-.016c.022-.058.054-.134-.006.023 3.778-8.318 8.031-13.878 8.038-13.883-.775-2.283-.623-4.583-.572-5.007zm-7.613 13.154c-.166.343-.337.687-.49 1.025-3.363 7.35-3.26 12.638-6.554 15.558 0 0 .081.024.222.043.884.116 4.221-.012 5.945-7.932v-.007a10.352 10.352 0 0 1-.277-1.392c-.288-2.29.41-5.43 1.141-7.259a.085.085 0 0 0 .013-.036z" fill="#fff"/>
    <path d="M170.297 50.204c-14.147.061-18.17 10.589-18.765 13-.632 2.564-.626 5.816-.774 7.288 0 0 2.718-.386 5.257-1.448.074-.932-.08-2.502-.036-4.827.061-3.184 3.429-16.29 20.895-13.314l-.086-.017c-.57-.117-1.16-.233-1.767-.338a33.586 33.586 0 0 0-4.724-.344zm17.982 4.326c.852.41 1.76.895 2.674 1.447.092.05.184.103.27.159.03.012.055.031.08.05 7.11 4.325 9.06 9.606 9.06 13.974 0 3.84-1.509 6.982-2.337 8.142-1.165 1.62-2.214 2.729-2.754 3.545.982 1.773 2.288 3.356 3.258 4.417.828-1.343 2.717-3.7 3.667-6.086 1.05-2.656 5.08-16.55-13.208-25.348zm-82.747 7.18-.118.352c-.794 2.338-1.093 4.89-1.223 7.344-.22 4.152.17 8.327 1.048 12.388.934 4.315 2.427 8.472 4.257 12.484 1.872 4.106 4.187 8.003 6.766 11.704 3.174 4.56 6.796 8.803 10.724 12.731a117.592 117.592 0 0 0 5.21 4.897c.219.195 2.006 1.973 2.184 1.888a35.861 35.861 0 0 1 3.625-1.472l-.54-.475C119.753 107.883 113 91.179 113 91.179l.026.044c-9.442-17.327-7.493-29.512-7.493-29.512zm54.977 8.486a2.88 2.88 0 0 0-.595.082c0 .08 4.123 2.533 6.375 4.883 2.147 2.478 5.526 5.582 7.563 6.239 2.025.706 6.588.27 9.803-.41 3.235-.522 8.032.017 8.032-.05-1.981-2.455-8.73-1.754-12.533-1.577-3.295.258-4.283-.232-4.51-.318-.22-.062-1.306-.27-3.792-2.466-2.737-2.284-7.27-6.492-10.343-6.383zm-6.302 3.302s-2.509 4.595-2.73 6.976c-.227 2.386-.386 4.614 2.216 6.362-.08-.11-1.08-1.546.196-2.294.05-.03.097-.062.146-.099.05-.03.094-.067.137-.104.025-.025-.443-.834-.474-.895-.736-1.78-.564-3.995-.104-5.78.135-.522.296-1.037.498-1.54 0 0 .798-1.724.337-2.417-.055-.062-.117-.122-.172-.178l-.012-.007zm-7.79 7.626s-.16 1.565-.16 3.141c0 .632.019 1.271.086 1.804.037.27.086.514.141.723.485 1.67.54 2.725 4.154 4.314 1.233.539 2.453 1.117 3.625 1.78 1.755.993 3.645 2.165 4.374 4.16.006.017.008.035.02.053.196.504.213 1.13.08 1.645a.633.633 0 0 0-.075-.246c-.16-.313-.435-.54-.614-.834 0-.006-.006-.011-.018-.024-.393-.447-.816-.86-1.313-1.197v.019l-.012-.025s-.38 1.332-.975 2.313c-.338.565-.7 1.19-1.081 2.05a.094.094 0 0 1-.01.036c-.743 1.927.122 3.964.324 3.976.24.018.749-.215 1.712-2.92.025-.062.073-.19.104-.332.025-.129-.019-.363-.074-.552 0 0 .007-.014.012-.031.117-.443.683-.405 1.039-.362.122.012.243.03.361.061.214-.534.484-1.27.614-1.89.405-1.502.355-3.619-1.387-5.613-1.75-1.994-6.247-3.479-7.928-4.325-1.687-.847-3.202-4.915-3-7.725zm23.148.742s-1.055 1.615-1.743 2.516c-.693.908-3.638 4.171-5.859 3.926v.01c-.001.087-.059.8-1.54 1.787 0 0 2.553.816 4.472-.239 1.928-1.055 4.472-5.87 7.713-4.822 3.214 1.123 2.343 6.497 3.24 8.498.863 1.945 3.269 2.834 3.416 2.883-.614-1.786-.133-2.355-.14-2.355-1.92-1.148-2.308-5.534-2.314-6.67-.006-1.128.128-3.024.135-3.055-1.442.743-6.712-1.025-7.38-2.48zm24.62 5.062-.245.036c-.785.276-1.19 2.136-1.19 2.136a12.87 12.87 0 0 1-.572 1.637c-.521 1.202-1.245 2.375-2.159 3.326-.687.718-1.441 1.074-2.282 1.547.025.11.055.214.098.318.582 1.43-1.24 1.957-1.24 1.957 3.143.172 4.35-1.706 5.614-3.743 1.264-2.03 2.031-7.208 2.031-7.208zm-23.986 1.504c-1.045.07-1.942.67-2.26 1.6-.264.797-.705 1.276-1.276 1.913l-.018.026c-.436.521-.774.717-1.19.987-.407.246-.977.681-1.203 1.406l-.326.968c-.435 1.301.424 2.762 1.915 3.264 0 0-.65-.809-.325-1.778 0-.013.006-.031.012-.043-.43-.448-.639-1.061-.442-1.645l.344-1.011c.343-1.038 1.239-.946 2.288-2.259.564-.65 1.136-1.276 1.473-2.282.27-.81 1.183-1.258 2.085-1.03a3.197 3.197 0 0 0-1.078-.116zm1.41.225c.847.373 1.3 1.27 1.029 2.08-.337 1-.276 1.841-.214 2.706.042 1.675.809 2.142.465 3.178l-.344 1.013c-.195.59-.736.956-1.355 1.049 0 .011-.006.024-.011.036-.326.963-1.331 1.22-1.331 1.227 1.496.497 3.067-.147 3.502-1.454l.325-.969c.258-.71.056-1.404-.111-1.84-.165-.466-.318-.828-.348-1.509v-.013l-.008-.025c-.061-.846-.122-1.484.142-2.282.418-1.249-.353-2.642-1.74-3.197zm-23.437 3.162s-.006.018-.013.053c-.127.518-1.14 4.72-1.373 6.763-.249 2.174.086 3.23.493 4.496.405 1.265 2.314 6.675 2.783 8.15.06.185.125.416.198.683.507 1.867 1.387 5.501 3.162 7.412 2.013 2.17 3.956 3.145 6.353 3.952l.024.006c.007.003.014.008.022.01 1.198.4 2.334.7 3.532.835 1.198.134 2.462.103 3.917-.155 2.936-.52 6.297-3.537 7.56-4.43 1.267-.894 6.055-4.056 7.14-4.82 1.085-.767 1.991-1.409 3.104-3.29 1.118-1.888 3.004-6.273 3.004-6.273s-1.81-.357-2.409-.43l-.028.048c-.267.472-2.426 4.28-3.213 5.076l-.065.01c.471.272 1.84 1.13 2.072 2.14 0 0-2.3 2.116-5.13 3.363-2.836 1.248-7.123 3.95-8.813 5.077-.64.426-1.509.793-2.608.996-.686-1.224-3.071-2.733-6.128-3.76-3.196-1.073-6.131-1.281-7.328-.616-.872-.894-1.405-1.786-1.678-2.573-.665-1.917-2.457-6.66-3.962-9.363-1.507-2.705-2.067-5.78-2.067-5.78.961-.804 3.125-.43 3.125-.43a4.329 4.329 0 0 1-.023-.597c.022-1.598.463-4.92.525-5.387l.008-.054c-.519-.303-2.184-1.112-2.184-1.112zm47.191 6.76c-1.742 2.054-4.785 3.833-6.423 3.532-1.86-.344-6.338-1.865-8.934-1.33-2.135.441-3.416 1.65-4.128 2.87.006-.006.012-.017.025-.017.011-.013.017-.013.024-.026 1.436-1.656 4.043-1.588 6.013-1.337 1.539.19 3.067.516 4.576.878 3.846.908 4.527.104 5.914-.939 1.191-.895 2.166-2.276 2.89-3.565.017-.024.031-.042.043-.067zm-16.92 5.153c-1.945-.092-3.032.675-3.032.675l-.01.019a6.622 6.622 0 0 0-.694 2.232c0 .006.747.337.895.417.13.073.336.153.416.283.184.264.234.368.234.368-.178.03-.356.055-.533.086-.098-.007-.54.154-.54.288-.859 2.749-.596 3.234-.393 3.363.172.11 2.086-.988 2.657-2.976 0-.012.319-1.67.386-2.326.117-1.062.559-2.27.613-2.418l-.012.007c0-.006.012-.017.012-.017zm61.73 3.164c-.114.267-4.662 10.715-23.581 18.921l-.12.097s-15.723 9.36-39.612 11.07a33.55 33.55 0 0 1 2.007 3.362c7.433-.417 14.956-1.451 22.064-3.422 4.545-1.261 9.018-2.861 13.285-4.876 4.296-2.028 8.508-4.453 12.213-7.442 2.415-1.95 4.68-4.052 6.756-6.36 2.857-3.174 5.466-6.954 6.875-11.017 0 0 .116-.334.113-.333zm-111.48 15.149a.331.331 0 0 0-.116.01c-.2.056-.34.22-.284.538.052.317.378 1.242-.095 2.66-.475 1.424-1.54 2.343-2.59 2.802-1.045.458-2.334 1.497-2.696 3.193-.357 1.696-1.274 3.928-1.02 5.402.097.561.653 1.339 1.934 1.284-.875.725-1.701.671-2.374.364-1.06 1.958-2.657 2.764-5.561 2.2-2.973-.577-6.737-3.427-7.518-8.24 0-.085.995-.094 1.403-.095h.181c-.175-.228-.364-.56-.376-.92-.005-.201.079-.46.207-.736-3.69 0-4.351-2.795-4.364-2.845 0 0-1.171.94-1.22 2.546a1.633 1.633 0 0 0-3.217.06 1.636 1.636 0 0 0 1.37 1.859 1.634 1.634 0 0 0 1.859-1.37c.003-.02.002-.042.005-.064.021.19.057.39.114.594.154.568.366.972.582 1.279.52.735 1.086.84 1.086.84.007.002.08-.103.086-.11.038-.046.37-.391.413-.363-.374-.242-1.965-1.448-.997-4.083 0 0-.055 2.378 1.912 3.644.216.985 1.759 6.87 7.53 8.701 6.3 2.002 8.728-1.002 9.293-2.133.257-.518.9-2.123.9-2.123.548-1.565 1.933-7.654 2.453-8.363.518-.712 2.08-3.561 1.448-6.18 0 0-.099-.329-.348-.352zm-11.85 8.132c-2.017-.005-4.233.066-5.764.247-.16.327-.27.633-.264.864.01.352.175.67.336.907 0 0 5.615.299 9.144 1.268.14-.503.323-1.119.565-1.868a5.27 5.27 0 0 1 .584-1.238c-.012.011-.025.023-.034.034-.733-.127-2.551-.208-4.568-.214zm68.372 10.829c-.191-.04-.393.11-.393.11-2.086 1.705-2.558 4.921-2.573 5.802-.013.881-2.582 6.57-3.089 8.145-.021.065-.46 1.417-.562 2.238-.156 1.256-.108 5.102 6.123 7.309 5.706 2.02 10.468-1.765 11.237-2.424 1.603.119 2.769-.718 3.334-1.276.26-.254.41-.45.41-.45-.615 2.023-1.9 2.521-2.686 2.633-.255.036-.46.032-.57.022.016.051.023.092.035.138.09.339.072.543.072.543s.185.088.506.108c.452.028 1.177-.082 2.106-.795.158-.123.278-.255.404-.384a1.6 1.6 0 0 0 .674 2.1 1.613 1.613 0 1 0 1.538-2.837 1.606 1.606 0 0 0-1.745.136c.473-.782.528-1.584.502-2.087a5.245 5.245 0 0 0-.065-.478l-.021.014c-.64.48-1.392.795-2.201.795-.278 0-.58-.042-.85-.107a4.888 4.888 0 0 1-1.083-.406 6.681 6.681 0 0 1-1.018-.646l-.015-.01c-.064.296-.153.553-.279.709-.225.28-.579.431-.853.51.006.003.011.008.018.013.41.33.833.62 1.186 1.017-3.525 3.365-8.246 3.37-10.966 2.037-2.66-1.305-3.444-2.913-3.107-5.122-.72-.16-1.413-.603-1.671-1.71.024.02.053.034.078.055.613.495 1.614.676 2.233.088.559-.53.992-1.402 1.383-2.339.357-.86.666-1.74 1.06-2.584.16-.341.274-.715.335-1.087.178-1.049-.043-2.165-.56-3.09-.555-.998-.855-2.373-.372-3.796.482-1.414 1.295-1.956 1.528-2.177.237-.218.223-.435.097-.602a.305.305 0 0 0-.18-.115zm.875 11.09s-.124.811-.291 1.29a52.39 52.39 0 0 1-.68 1.828c3.133 1.41 6.104 3.168 8.06 4.507.276-.093.596-.245.817-.521.14-.181.239-.49.309-.847-2.224-2.14-6.9-5.576-8.215-6.258zm53.402 20.137c-1.988.834-4 1.631-6.069 2.362-5.914 9.294-26.087 39.289-27.847 41.798 1.08.901 2.055 1.73 2.81 2.417.03.025.087.062.122.092 5.16-7.466 26.984-40.345 30.984-46.67zm-54.887 34.153c-.221-.004-.674.045-.757.491-.056.362.098.7.644.847.54.14 2.239.313 4.135 2.099 1.895 1.785 2.57 4.14 2.535 6.129-.05 1.988.656 4.79 3.067 6.6 2.423 1.81 5.281 4.865 7.79 5.565.154.042.301.067.454.08 1.664.147 3.24-1.35 2.988-2.191.547 1.816.05 3.135-.767 4.08 2.786 2.742 4.137 5.871 3.266 8.687-1.111 3.62-5.155 8.485-12.548 8.387-5.263-.067-8.356-1.533-9.706-2.374.007-.013.455-1.018.485-1.086-3.085.743-4.214-3.828-4.263-4.03-1.724 7.92-5.061 8.049-5.945 7.931-.141-.019-.222-.043-.222-.043s.663 2.59 3.24 3.83a2.827 2.827 0 0 0-3.184 1.152 2.856 2.856 0 0 0 .804 3.957 2.866 2.866 0 0 0 3.964-.81 2.85 2.85 0 0 0-.811-3.95c-.068-.043-.129-.067-.195-.104.349.129.705.245 1.122.313 3.436.57 4.564-1.086 4.564-1.086s-.232-.473-.393-1.137c0 0-3.398 2.394-7.152-1.404.129.043 1.367.473 3.503.123 3.183-.473 3.619-1.472 3.834-1.656a.328.328 0 0 1 .025-.092c2.754 1.497 5.796 2.195 10.127 2.282 4.859.091 9.51-1.43 12.246-3.816 2.731-2.381 5.963-7.436 4.754-12.774-1.018-4.472-6.704-8.834-8.017-9.79-2.81-2.485-10.075-8.161-10.762-9.388-.741-1.338-4.102-5.896-8.704-6.816 0 0-.048-.006-.121-.007zm6.385 16.443c-.006.005-4.26 5.565-8.038 13.883.098.411.227.803.393 1.16 1.165 2.485 2.197 3.166 4.258 3.042 0 0 4.816-8.214 8.215-12.606a71.1 71.1 0 0 1-2.546-2.252c-1.123-1.031-1.834-2.136-2.282-3.228zm8.268 10.196c-1.319 1.724-2.842 4.061-4.069 6.068-.544.89-1.036 1.717-1.44 2.399.436.043.882.06 1.336.06 1.43.007 2.908-.22 4.025-.68 1.54-.57 3.278-2.742 3.185-4.227 0-.362-.075-.688-.234-1.025-.607-1.27-1.902-2.147-2.803-2.595z" fill="#b1babf"/>
    <path d="M169.188 89.574c.27-.81 1.184-1.259 2.086-1.031.055.012.11.024.16.043.059.02.115.043.173.067.846.372 1.299 1.27 1.028 2.08-.337 1-.276 1.84-.214 2.705.042 1.675.81 2.142.466 3.179l-.344 1.012c-.195.59-.736.957-1.356 1.05a2.067 2.067 0 0 1-.902-.062c-.95-.32-1.484-1.289-1.19-2.153.05-.148-.037-.307-.19-.363a.287.287 0 0 0-.362.172c-.287.872-1.3 1.32-2.257 1a1.922 1.922 0 0 1-.761-.503c-.43-.448-.639-1.061-.442-1.644l.344-1.012c.343-1.038 1.239-.945 2.288-2.258.565-.65 1.135-1.276 1.472-2.282z"/>
    <path d="M176.288 149.987c-4.887 3.08-15.794 5.93-26.299 2.407-10.31-3.462-17.159-12.275-19.353-17.64a2.151 2.151 0 0 1 1.182-2.758s-.951.136-1.808.839c0 0-.076.11-.153.34-1.154 3.443 5.832 18.096 19.023 22.524 13.199 4.43 27.473-2.65 28.761-6.487.089-.279.106-.503.106-.503-.299-.94-.872-1.525-.872-1.525.734 1.385-.019 2.4-.588 2.803" fill="#c2242b"/>
  </g>
</svg>