<svg xmlns="http://www.w3.org/2000/svg" xml:space="preserve" height="161.49" viewBox="0 0 179.312 161.487" width="179.31">
  <path d="M178.186 129.943c.42-21.829-16.726-37.336-16.726-37.336-1.852-13.8-6.866-33.76-33.588-48.498C87.297 21.75 64.847 40.013.885.833 2.215 8.158 6.43 18.294 11.8 24.591l-6.613-2.17C9.996 32.555 17.695 41.747 21.726 44.73l-7.412-2.33c7.852 19.27 23.195 30.685 23.195 30.685 3.496 29.502 25.137 34.528 26.886 52.673 28.194 4.372 57.995 34.563 57.995 34.563 15.602-26.821 37.359-32.019 55.799-30.379"/>
  <path d="M124.486 47.806c-29.395-16.112-65.32-5.65-111.224-34.09 4.548 13.59 32.96 29.507 32.96 29.507L21.081 35.05c6.403 11.112 32.612 25.035 32.612 25.035l-23.447-7.577c9.712 16.13 31.744 27.016 31.744 27.016l-13.54-.98c1.751 15.167 22.705 28.226 23.818 39.93 9.479 3.622 21.692 9.937 31.213 18.122 18.2-8.947 13.181-39.217-21.52-82.157 47.729 2.884 46.412 38.268 73.807 33.18-2.008-9.504-3.304-24.468-31.28-39.814" fill="#97233f"/>
  <path d="M142.086 91.968c-6.132 9.869-16.498 7.118-20.193-5.187l7.474.455c-6.552-3.92-12.503-9.688-17.105-15.372-1.354 27.184 24.228 39.386 32.69 20.295a24.775 24.775 0 0 1-2.866-.191" fill="#fff"/>
  <path d="M155.908 95.406c-3.392 6.938-11.67 11.398-18.94 13.418 17.07 2.046 31.108 8.834 37.79 15.486-1.533-11.23-11.613-24.326-18.85-28.904zm-17.168 19.73c-.944.028-1.885.086-2.82.177 0 0 5.114 8.694 2.303 18.271 11.1-6.23 25.402-9.248 35.848-7.14-6.265-5.3-21.166-11.732-35.33-11.31z" fill="#ffb612"/>
</svg>