<svg xmlns="http://www.w3.org/2000/svg" xml:space="preserve" height="138.22" width="254">
  <path d="M231.357 56.406c18.19 23.331 22.383 54.675 20.456 80.54-9.424-22.91-28.818-52.736-50.805-70.245 2.228 4.588 3.872 9.412 5.73 15.95-35.532-21.783-76.74-34.945-122.143-31.799 0 0 5.509 5.952 7.247 9.227-24.768 10.367-58.796 23.074-88.169 76.863-7.76-37.446 18.068-74.172 26.264-82.96-4.365-.179-5.314.076-10.082-.097C46.848 16.115 98.16 8.441 125.39 10.622l-7.034-8.746c37.785-1.587 55.67 9.526 62.957 12.445 29.284 14.453 43.797 32.99 50.041 42.084" fill="#001532"/>
  <path d="m130.174 6.299-2.882.057s4.042 5.782 5.85 8.365c-13.766-1.125-66.663-2.84-102.162 32.528l-2.517 2.514s9.127.295 10.18.32c-.875 1.085-1.76 2.175-1.76 2.175C26.218 65.184 11.617 82.89 6.595 117.101l-.965 6.621 3.765-5.534c19.18-28.181 44.04-48.004 73.91-58.91l1.904-.695-1.185-1.647c-3.12-4.334-6.16-7.115-8.938-9.494 52.296-5.29 90.132 8.894 120.257 23.642l3.658 1.798-1.565-3.762c-2.913-7.036-5.569-11.779-8.338-16.2 22.615 13.412 38.498 33.13 54.836 58.392l3.365 5.18-.54-6.157C240.839 41.959 174.067 5.413 130.167 6.297" fill="#0080c5"/>
  <path d="M137.577 15.71s-2.59-3.723-4.368-6.26c21.235.409 46.421 9.667 66.535 24.668 17.187 12.812 38.093 35.185 43.2 70.138-16.674-25.032-33.397-44.459-57.887-57.243l-5.264-2.747 3.287 4.988c3.464 5.248 6.534 10.05 9.84 17.294-29.11-13.878-68.75-28.052-121.793-21.832l-3.514.414 4.205 3.564c2.609 2.203 5.525 4.737 8.489 8.495-27.662 10.544-51.01 28.703-69.56 53.968 5.677-29.22 18.772-45.123 28.521-56.934l5.707-7.027-3.152-.075s-5.748-.186-5.946-.195c39.868-36.717 99.601-28.9 100.201-28.813l3.555.541-2.056-2.938" fill="#eead1e"/>
</svg>