<svg xmlns="http://www.w3.org/2000/svg" viewBox="0 0 460 250.721">
  <path fill="#ffb612" d="m314.104 0 14.704 45.082-10.94 33.501L292.329 0H177.846l-20.535 62.99L136.858 0H0l42.993 69.815 58.896 180.906h110.823l22.272-68.388 22.21 68.388h121.245L460 0ZM58.296 62.722 29.965 16.73h94.734l23.802 73.31-40.656 124.884zM200.49 234.363h-81.354L185.58 30.254l40.615 125.03zM198.774 16.73h81.395l28.952 88.923-40.739 125.174zm167.361 217.53h-81.334l61.543-189.075-9.264-28.455h99.821z"/>
  <path fill="#5a1414" d="m309.058 105.674-40.739 125.175-69.546-214.118h81.396zm28.021-88.943 9.223 28.455-61.542 189.075h81.333l70.849-217.53zm-212.381 0H29.965l28.33 45.991 49.632 152.203L148.501 90.04zm-5.562 217.53h81.457l25.705-78.976-40.718-125.03z"/>
</svg>