<svg xmlns="http://www.w3.org/2000/svg" xml:space="preserve" height="150.02" width="192.89" viewBox="0 0 192.897 150.011">
  <path d="M65.845.913C58.798 1.06 52.019 3.241 46.9 7.156V2.169H1.1l-.009 26.193h10.656a3.97 3.97 0 0 1 3.969 3.971v74.301h31.199V37.208l.002-.73h.004c.003-4.158 3.525-7.532 7.873-7.532 4.283 0 7.761 3.286 7.855 7.372v56.627c0 1.655.315 3.228.858 4.689 1.91 5.136 6.831 8.799 12.625 8.799h29.27V81.31l-.614-.004h-6.783a3.965 3.965 0 0 1-3.965-3.963v-.549c-.003-.056-.006-.106-.006-.166.004-.922.003-1.869.006-2.822v-19.05l-.006-3.73.006-5.992V22.395a19.83 19.83 0 0 0-.416-2.872c-.454-2.063-1.355-4.726-3.158-7.359C86.704 6.677 81.923 3.687 75.49 2.01A36.405 36.405 0 0 0 65.845.916zm33.732 1.258v26.117h8.14a3.963 3.963 0 0 1 3.96 3.97v51.067c.523 8.409 5.518 16.1 11.866 19.705 6.39 5.054 21.89 7.367 30.26 4.414 0 0 3.866-1.216 6.042-2.668v6.48c0 1.546-.12 2.512-.54 3.715-1.062 2.292-3.395 3.495-7.097 3.586l-136.51-.006v30.37h147.96c4.502-.233 8.74-.742 12.305-1.749 4.872-1.489 16.025-6.715 16.025-23.234 0-.241-.004-6.317-.01-6.562h-.002l-.078-115.2H159.95v67.06a46.894 46.894 0 0 1-.112 3.333c-.31 2.44-1.788 4.521-3.888 5.728a8.36 8.36 0 0 1-4.17 1.114c-4.399 0-8.127-3.359-8.112-7.526l.041-69.71H99.58z" fill="#a71930"/>
  <path d="M66.027 5.308c-6.124.1-12.007 1.957-16.447 5.35L42.5 16.08v-9.5H5.504l-.002 17.379h6.248c4.618 0 8.37 3.754 8.37 8.373v69.893h22.39V37.182s.003-.734.01-.706c.006-6.58 5.508-11.936 12.277-11.936 6.615 0 12.116 5.239 12.264 11.775v56.627c0 1.06.194 2.126.58 3.155 1.317 3.546 4.732 5.926 8.494 5.926h24.86V85.716h-2.987c-4.615 0-8.371-3.758-8.371-8.373h.002v-.44l-.006-.187.006-2.91v-19.04l-.006-3.75.006-5.982V22.628c-.032-.198-.313-2.16-.313-2.16-.472-2.127-1.311-4.082-2.496-5.81-3.006-4.386-6.733-6.893-12.418-8.376a32.12 32.12 0 0 0-8.386-.973zm98.324 1.27v62.656l-.057 2.627-.074 1.128-.02.125c-.463 3.722-2.737 7.086-6.06 9.004a12.804 12.804 0 0 1-6.363 1.698c-3.405 0-6.72-1.358-9.086-3.74-2.214-2.223-3.436-5.122-3.436-8.157 0-.012.04-57.604.043-65.338h-35.314v17.303h3.73c4.616 0 8.368 3.758 8.368 8.373V83.13c.43 6.584 4.292 13.035 9.635 16.07v-.002l.29.17.268.203c5.277 4.173 19.16 6.16 26.057 3.717l.141-.04c1.27-.405 3.73-1.337 4.918-2.14l6.857-4.588v14.736c0 1.803-.131 3.306-.787 5.174l-.066.2-.096.197c-1.254 2.705-4.177 5.969-11.094 6.138h-132.1v21.55c8.274.015 143.11 0 143.4 0 4.139-.217 8.025-.672 11.16-1.55 4.819-1.48 12.908-5.918 12.908-19.026l-.082-117.36h-23.14z" fill="#0b2265"/>
</svg>