<svg xmlns="http://www.w3.org/2000/svg" height="114.26" viewBox="0 0 172.882 114.264" width="172.88">
  <path d="M85.758.965C39.658.969.71 26.806.71 57.388c0 31.835 36.565 55.84 85.048 55.84 28.296 0 55.123-9.946 71.766-26.602 9.16-9.166 14.199-19.553 14.189-29.238-.013-15.08-8.883-29.242-24.977-39.883C130.6 6.837 108.946.965 85.758.965" fill="#ffb612"/>
  <path d="M26.282 94.778c-14.79-9.866-22.938-23.15-22.938-37.394 0-28.651 38.512-53.785 82.413-53.789 45.92-.002 83.295 24.128 83.323 53.789.007 8.986-4.758 18.707-13.42 27.377-16.158 16.172-42.289 25.829-69.903 25.829-23.07 0-44.193-5.618-59.475-15.814" fill="#203731"/>
  <path d="M122.658 42.603c-6.621-9.862-21.118-16.7-38.188-16.7-23.429 0-42.426 12.887-42.426 28.782 0 15.894 13.41 29.85 42.426 29.834 17.425-.008 31.435-7.534 37.98-17.419l-49.494.086-.152-12.857 85.915-.03c.116 1.03.236 2.035.236 3.08 0 24.747-32.77 44.809-73.19 44.809-40.42 0-73.188-20.06-73.188-44.81 0-24.747 34.713-45.567 73.187-45.717 32.024-.122 59.245 13.11 69.173 30.92l-32.278.02" fill="#fff"/>
</svg>