<svg xmlns="http://www.w3.org/2000/svg" xml:space="preserve" height="103.82" viewBox="0 0 191.073 103.821" width="191.07">
  <g>
    <path d="M174.93 10.715c.043-.1.078-.195.107-.288.026-.078.045-.155.064-.228-.001-.004-.001-.008-.004-.011-.275-.791-.825-.849-1.983-.757a51.9 51.9 0 0 1-4.56.657h.002c-.073.008-.14.015-.212.021l-.154.014c-.195.02-.385.036-.57.051l-.078.007c-1.692.136-2.763.143-2.763.143 4.323 3.27 4.828 8.331 4.828 8.331l.22-.188c3.32-2.408 5.104-7.752 5.104-7.752" stroke="#000" stroke-width=".3125"/>
    <g fill="#bfc0bf">
      <path d="M130.015 37.596c2.144 6.316-1.465 14.776-1.465 14.776 4.736-4.062 8.457-12.407 8.457-12.407 7.784-1.578 12.07 0 12.07 0 1.014 6.092-1.242 11.052-1.242 11.052 4.512-3.608 6.541-13.197 6.541-13.197s-1.803-1.69-9.81-2.253c-8.01-.565-14.551 2.03-14.551 2.03M135.856 61.752s-2.352 6.545-4.768 8.963c0 0 3.12 1.71 8.557 1.208 5.44-.505 6.749-2.516 7.252-4.53.504-2.015 0-4.836-.906-6.95 0 0 .403 5.337-3.323 8.055 0 0-4.015.841-6.635.035 0 0 1.03-2.148-.177-6.78M123.037 10.874c.054.011.11.022.165.035l-.165-.035c-3.283-.623-4.667 1.855-4.667 1.855-1.04 1.538-.644 2.276-.644 2.276 10.114-.176 15.568 1.457 15.568 1.457s-3.769-4.118-9.845-5.501l-.413-.087M163.45 16.068c-1.333-1.24-4.17-2.838-7.276-2.218-3.104.622-3.283 3.993-3.283 3.993 3.372-3.105 10.559-1.775 10.559-1.775"/>
    </g>
    <g fill="#0085ca">
      <path d="M88.171 22.709s16.67-3.192 35.731 1.311a24.837 24.837 0 0 1 2.39-1.875s-17.482-4.85-38.121.564M88.262 29.221s14.61-3.642 32.419-1.187c.34-.674.799-1.386 1.4-2.122-6.428-.737-19.476-1.315-33.822 3.31M88.634 35.524s13.804-4.263 31.213-3.06a6.777 6.777 0 0 1 .068-2.21c-6.979-.19-18.729.445-31.281 5.27M47.918 78.993h.007l.083.008c.304.03 1.276.119 1.33.124l1.818.19c2.373.266 4.777.599 7.198 1.01 5.463-19.99 20.83-30.676 20.83-30.676C58.4 59.703 49.66 76.067 47.918 78.993M145.924 51.302c-1.298-6.03 2.139-10.158 2.139-10.158-7.811 6.848-3.084 13.704-.719 19.025 2.363 5.32 1.417 9.221-.945 11.939-2.365 2.72-8.867 2.957-13.24 2.128-4.374-.827-6.621-5.439-7.803-10.875-1.182-5.439.945-15.013.945-15.013-3.192 4.847-3.192 14.777-.708 22.816 2.48 8.038 8.983 10.047 13.712 10.047s13.239-4.018 11.927-13.59c-1.312-9.57-4.006-10.289-5.308-16.318M95.08 56.193c-8.156-8.258-8.403-17.6-8.403-17.6s-2.799 10.893 3.848 19.049 22.836 9.046 22.836 9.046-10.124-2.238-18.28-10.495M136.33 20.452c9.588 3.724 9.475 9.475 9.475 9.475 1.465-5.527 8.233-8.458 8.233-8.458s-3.496-1.693-8.346-2.03c-4.85-.34-9.361 1.014-9.361 1.014M123.037 10.874c-5.778-1.147-11.318 1.167-11.599 1.287-.003.001-.004.001-.005.003h-.005v.002c5.323.09 6.942.563 6.942.563s1.384-2.478 4.667-1.855M141.812 85.893h-.001c-.062.023-3.454 1.218-7.652.464 0 0 5.553 5.374 11.193 17.126l.008.019.218-.017c-.546-5.356-2.833-14.33-3.359-15.985l-.407-1.607"/>
    </g>
    <path d="M147.837 51.018s2.255-4.96 1.24-11.051c0 0-4.285-1.578-12.068 0 0 0-3.722 8.345-8.458 12.406 0 0 3.61-8.46 1.465-14.775 0 0 6.541-2.594 14.552-2.03 8.006.563 9.81 2.254 9.81 2.254s-2.03 9.589-6.541 13.196zm-5.17 17.482c3.725-2.718 3.322-8.056 3.322-8.056.907 2.115 1.41 4.936.907 6.95-.504 2.014-1.812 4.026-7.253 4.531-5.436.502-8.557-1.208-8.557-1.208 2.416-2.418 4.768-8.963 4.768-8.963 1.207 4.633.177 6.78.177 6.78 2.62.807 6.635-.034 6.635-.034zm8.564-.879c1.311 9.572-7.199 13.59-11.927 13.59-4.73 0-11.232-2.009-13.712-10.047-2.484-8.04-2.484-17.97.708-22.817 0 0-2.127 9.575-.945 15.014 1.182 5.436 3.429 10.048 7.803 10.875 4.372.828 10.875.592 13.24-2.128 2.362-2.718 3.308-6.62.945-11.94-2.365-5.32-7.093-12.176.718-19.024 0 0-3.436 4.128-2.138 10.158 1.302 6.03 3.996 6.748 5.308 16.318zm-30.549-39.587c-17.81-2.455-32.419 1.187-32.419 1.187 14.345-4.624 27.393-4.047 33.822-3.309a11.703 11.703 0 0 0-1.4 2.122zm-.835 4.43c-17.41-1.204-31.214 3.06-31.214 3.06 12.553-4.825 24.303-5.461 31.282-5.271a6.777 6.777 0 0 0-.068 2.211zM90.525 57.64c-6.647-8.156-3.848-19.049-3.848-19.049s.247 9.343 8.404 17.6c8.156 8.258 18.28 10.496 18.28 10.496s-16.189-.89-22.836-9.047zm35.769-35.496a24.837 24.837 0 0 0-2.39 1.875c-19.063-4.504-35.731-1.311-35.731-1.311 20.64-5.414 38.122-.564 38.122-.564zm-14.865-9.981.004-.001c.001-.002.003-.002.005-.003.286-.123 6.089-2.548 12.012-1.2 6.076 1.383 9.844 5.501 9.844 5.501s-5.454-1.633-15.568-1.457c0 0-.395-.738.644-2.276 0 0-1.62-.473-6.943-.563h.002zm44.746 1.687c3.106-.62 5.944.977 7.276 2.218 0 0-7.186-1.33-10.559 1.775 0 0 .18-3.371 3.283-3.993zm10.22 15.754a6.495 6.495 0 0 0-.518-1.665c-.001 0-.182-.454-.727-1.167-.466-.593-.989-1.06-1.465-1.51-1.039-.977-2.907-1.558-2.907-1.558l-.003-.001c1.302.986 2.3 2.408 2.398 4.45.304 6.286-6.186 8.823-6.186 8.823 1.52-1.014 4.26-4.462 3.549-8.925-.71-4.462-6.496-6.583-6.496-6.583s-6.768 2.931-8.233 8.458c0 0 .112-5.751-9.475-9.475 0 0 4.512-1.353 9.362-1.014 4.85.338 8.346 2.031 8.346 2.031s.899-2.365 5.66-3.173c4.76-.809 9.908.358 9.908.358-.952-1.736-2.049-4.266-6.833-6.222-4.785-1.955-9.074-.185-9.074-.185s-.31-2.31-3.79-4.56c-5.651-3.656-20.6-5.835-23.48-5.988-2.881-.155 2.157 1.7 4.179 2.852 2.295 1.309 4.865 3.528 5.084 5.636a2.292 2.292 0 0 1-.332 1.47c-.2-.588-.627-1.34-1.374-2.3-4.094-5.26-14.483-7.534-22.276-7.014-7.793.519-13.985 3.469-13.985 3.469.088.718-2.874 3.233-11.047 4.132-7.788.855-13.282-.569-15.262-.86a.891.891 0 0 0-.148-.03c-.802-.101-1.404-.064-1.655.513a.702.702 0 0 0-.028.08l-.017.105c-.034.402.214.957.214.957a19.78 19.78 0 0 1-.116-.218c.556 1.066 3.87 7.171 8.234 10.306 0 0 2.608-.552 5.704-.884 0 0-47.834 23.28-67.216 59.654 8.447-.99 19.556-1.625 31.62-.566l-.083-.008h-.007c1.742-2.927 10.481-19.29 31.265-29.344 0 0-15.367 10.685-20.83 30.676 6.95 1.18 14.047 3.009 20.997 5.713 22.34 8.708 41.172 17.81 62.397 17.62l3.612-.156-.009-.02c-5.64-11.75-11.192-17.125-11.192-17.125 4.197.754 7.589-.44 7.65-.464.319-.113.591-.228.817-.332 6.944-3.742 8.104-10.078 8.672-14.617.656-5.25-.278-8.608-.278-8.608s12.016-15.773 15.07-28.188c0 0 .706-2.245.303-4.543" stroke="#000" stroke-width=".3125"/>
    <path d="M190.434 37.568c-7.026-3.832-14.993-5.023-21.102-5.261h-.038.038c.23-.775.509-1.759.778-2.82l.233-.015c12.245-.402 18.719 2.839 18.719 2.839l-.617-.475c-5.967-2.766-12.275-3.774-17.734-3.93h-.222c.19-.849.434-2.573.482-2.57l.127.006c9.42.097 14.563 2.33 14.563 2.33l-.618-.485c-4.676-1.994-9.454-2.897-13.928-3.195.026-1.742-.265-3.179-.925-4.42 3.453-2.998 4.73-7.566 4.913-9.37h.002v-.005c.015-.06.045-.226.05-.259l.012-.103a1.37 1.37 0 0 0 .01-.179v-.093a1.882 1.882 0 0 0-.017-.156c-.006-.027-.008-.053-.014-.081-.012-.047-.023-.092-.038-.135l-.025-.067a.86.86 0 0 0-.058-.119c-.012-.02-.02-.04-.033-.059a1.323 1.323 0 0 0-.072-.1c-.015-.015-.026-.033-.04-.048a.967.967 0 0 0-.083-.084.593.593 0 0 0-.044-.04c-.03-.025-.062-.047-.093-.07l-.045-.032c-.033-.02-.065-.039-.098-.055-.016-.008-.03-.018-.044-.026a2.025 2.025 0 0 0-.1-.044c-.014-.006-.029-.013-.044-.018-.032-.014-.062-.023-.095-.034-.014-.005-.026-.01-.04-.013a.932.932 0 0 0-.122-.033.732.732 0 0 0-.082-.018l-.024-.005c-.025-.004-.044-.009-.066-.011a.06.06 0 0 1-.017-.003c-.047-.006-.074-.007-.074-.007-5.965.065-10.868-1.96-10.868-1.96-.134-.05-.267-.097-.402-.145-13.27-4.857-27.045-6.247-39.31-6.024l-.004-.012c-5.476.05-9.476.5-9.476.5-17.607 1.488-30.23 5.705-30.23 5.705s-4.792 1.353-11.173 1.035c0 0-2.37-.041-2.837 1.465-.402.96-.456 2.104.447 4.607 1.04 2.885 5.202 8.309 5.234 8.35C62.593 26.936 29.796 45.332.412 82.32c0 0 6.21-1.614 15.974-2.758C35.766 43.185 83.6 19.907 83.6 19.907c-3.095.332-5.704.883-5.704.883-4.363-3.134-7.677-9.239-8.233-10.305l.115.217s-.247-.554-.213-.956a1.19 1.19 0 0 1 .016-.105.702.702 0 0 1 .028-.08c.252-.577.853-.614 1.655-.514a.891.891 0 0 1 .149.03c1.98.292 7.474 1.716 15.261.86 8.173-.898 11.135-3.414 11.048-4.132 0 0 6.191-2.95 13.984-3.468 7.793-.52 18.183 1.754 22.276 7.014.747.959 1.174 1.712 1.375 2.3.256-.408.388-.904.331-1.47-.219-2.108-2.789-4.328-5.084-5.636-2.021-1.152-7.06-3.008-4.179-2.852 2.882.152 17.83 2.332 23.48 5.988 3.48 2.25 3.79 4.56 3.79 4.56s4.29-1.77 9.075.185c4.784 1.955 5.88 4.485 6.833 6.222 0 0-.505-5.062-4.829-8.331 0 0 1.07-.007 2.763-.144l.079-.006c.184-.016.374-.032.57-.051l.153-.014.212-.02v-.002a51.9 51.9 0 0 0 4.559-.656c1.157-.092 1.707-.035 1.982.757.003.002.003.006.005.01-.02.073-.039.15-.065.229a3.111 3.111 0 0 1-.106.287s-1.785 5.345-5.103 7.752l-.22.189s-5.15-1.167-9.908-.358c-4.762.808-5.66 3.173-5.66 3.173s5.785 2.12 6.495 6.582c.712 4.464-2.028 7.912-3.548 8.926 0 0 6.49-2.537 6.186-8.824-.1-2.042-1.097-3.463-2.399-4.45l.003.002s1.869.58 2.908 1.558c.476.45.998.917 1.465 1.51.545.713.725 1.167.726 1.167.225.474.405 1.022.518 1.664.403 2.298-.303 4.544-.303 4.544-3.054 12.414-15.07 28.188-15.07 28.188l.005-.004c9.084-7.75 15.14-21.462 17.79-28.367 14.322.155 22.147 4.141 22.147 4.141l-.531-.54" stroke="#0085ca" fill="#0085ca" stroke-width=".3125"/>
  </g>
</svg>