<svg xmlns="http://www.w3.org/2000/svg" height="213.797" width="297.827">
  <defs>
    <linearGradient id="a" x1="-236.222" y1="444.505" x2="-236.222" y2="443.858" gradientTransform="matrix(276.77249 0 0 -228.62732 65581.197 101632.757)" gradientUnits="userSpaceOnUse">
      <stop offset=".217" stop-color="#ffd100"/>
      <stop offset=".296" stop-color="#ffd724"/>
      <stop offset=".474" stop-color="#ffe87f"/>
      <stop offset=".707" stop-color="#fff"/>
    </linearGradient>
    <linearGradient id="b" x1="-236.422" y1="444.373" x2="-235.774" y2="444.373" gradientTransform="matrix(266.10144 0 0 -265.8454 62974.332 118244.221)" gradientUnits="userSpaceOnUse">
      <stop offset="0" stop-color="#ffa300"/>
      <stop offset=".134" stop-color="#ffa800"/>
      <stop offset=".289" stop-color="#ffb600"/>
      <stop offset=".453" stop-color="#ffcd00"/>
      <stop offset=".478" stop-color="#ffd100"/>
    </linearGradient>
  </defs>
  <path d="M261.51 36.314a123.925 123.925 0 0 0-153.233-17.53A128.87 128.87 0 0 0 73.838 52.42c-.032.04-.066.077-.1.116H48.187L0 161.561h62.514a99.662 99.662 0 0 0 39.46 40.028 98.526 98.526 0 0 0 101.36-3.815 9.585 9.585 0 0 0-5.132-17.604 9.76 9.76 0 0 0-2.815.419 66.56 66.56 0 0 1-19.208 2.812 65.684 65.684 0 0 1-49.066-21.84h58.378l10.026-13.97 38.913.005s-1.185 3.011-1.835 4.485l-4.178 9.484h63.687l1.356-4.983a123.975 123.975 0 0 0-31.95-120.268Zm25.428 118.492h-48.16a97.488 97.488 0 0 0 4.931-13.972h-51.713l-9.973 13.972h-46.358l69.31-97.094-.009-.003a75.004 75.004 0 0 0-28.785-5.571q-1.89 0-3.753.096c-37.6 1.894-67.586 32.08-67.586 68.912a67.305 67.305 0 0 0 .381 7.163h40.943l-12.192 17.154c-3.847 5.174-8.947 9.338-16.72 9.338h-3.338a71.808 71.808 0 0 0 62.268 35.352 73.29 73.29 0 0 0 21.157-3.099 2.995 2.995 0 0 1 .863-.132 2.829 2.829 0 0 1 1.433 5.192 91.76 91.76 0 0 1-132.971-37.308H10.375l42.212-95.509h24.391A91.709 91.709 0 0 1 147.5 23.548a95.44 95.44 0 0 1 1.997-.021c39.037 0 71.78 23.358 85.036 57.72l-24.002 33.627h36.545a98.101 98.101 0 0 0-135.22-90.359 117.208 117.208 0 0 1 175.082 130.291Zm-135.84-33.255h-39.49c0-.132-.01-.268-.01-.404 0-33.13 26.867-60.437 61.172-62.165a67.08 67.08 0 0 1 3.408-.087 69.986 69.986 0 0 1 17.984 2.33Zm85.625-31.641a90.799 90.799 0 0 1 3.31 18.198H223.74Z" style="fill:#003594"/>
  <path d="M111.857 24.515a98.1 98.1 0 0 1 126.921 130.291h48.16a117.197 117.197 0 0 0-175.081-130.29" style="fill:url(#a)"/>
  <path d="m234.522 81.26-9.27 12.991a47.143 47.143 0 0 0-33.844-14.273q-1.194 0-2.369.06l15.934-22.326a67.745 67.745 0 0 1 29.55 23.548Zm9.187 59.575a98.08 98.08 0 0 0 3.367-25.55v-.416h-10.022a47.38 47.38 0 0 1-.331 25.965Z" style="fill:#d7d2cb"/>
  <path d="M199.634 192.12a91.77 91.77 0 0 1-94.396 3.553A88.586 88.586 0 0 1 89.32 164.46c10.258-.477 25.115.41 36.096 5.13a72.335 72.335 0 0 0 50.766 20.568 73.29 73.29 0 0 0 21.157-3.099 2.998 2.998 0 0 1 .863-.132 2.829 2.829 0 0 1 1.432 5.192Zm-94.415-63.805a67.132 67.132 0 0 1-.382-7.163c0-36.835 29.989-67.021 67.59-68.912-43.593 1.773-79.293 34.264-85.385 76.079Z" style="fill:#ffd100"/>
  <path d="M113.911 154.806h-26.7a87.133 87.133 0 0 0 2.106 9.656c10.259-.477 25.115.41 36.096 5.13a69.679 69.679 0 0 1-11.502-14.786Z" style="fill:#ffa300"/>
  <path d="M66.666 154.806a91.85 91.85 0 0 0 12.479 19.382 30.606 30.606 0 0 1 10.172-9.726 87.133 87.133 0 0 1-2.106-9.656Z" style="fill:#ff8200"/>
  <path d="M204.966 57.709a75.004 75.004 0 0 0-28.785-5.571q-1.89 0-3.753.096c-43.592 1.773-79.292 34.264-85.384 76.08H62.223l30.573-69.017H76.978A91.709 91.709 0 0 1 147.5 23.548a95.44 95.44 0 0 1 1.997-.021c39.037 0 71.78 23.358 85.036 57.72l-.01.015a67.742 67.742 0 0 0-29.557-23.553ZM89.317 164.46a30.606 30.606 0 0 0-10.172 9.726 92.192 92.192 0 0 0 26.092 21.486 88.597 88.597 0 0 1-15.919-31.212Z" style="fill:url(#b)"/>
  <path d="M238.705 127.272a47.373 47.373 0 0 1-1.982 13.563h-44.727l-9.973 13.971h-46.358l53.374-74.77q1.178-.058 2.369-.06a47.144 47.144 0 0 1 33.844 14.274l-14.721 20.622h26.522a47.358 47.358 0 0 1 1.652 12.4ZM52.587 59.297l-42.212 95.51h106.874c7.774 0 12.876-4.163 16.72-9.34l12.192-17.153H62.223l30.573-69.017Z" style="fill:#fff"/>
</svg>