<svg xmlns="http://www.w3.org/2000/svg" width="296" height="142.91" viewBox="0 0 300 146.91">
  <path d="M297.651 89.958c-1.199-7.296-6.005-18.012-22.13-27.654a75.392 75.392 0 0 0-3.412-1.91l6.135-2.061-17.87-6.968c-1.53-.597-3.134-1.134-4.758-1.657l2.427-2.464-13.702-1.92c-5.921-.83-10.592-1.022-14.17-.97-.035-.577-.08-1.109-.14-1.586l-2.287-17.162s-5.302 7.24-5.83 7.958a35.615 35.615 0 0 0-3.871-5.302c0-.002-14.78-16.714-14.78-16.714s.59 4.917 1.062 8.84a88.98 88.98 0 0 0-15.89-8.828C164.654 1.362 134.581-.757 105.93 5.74c-23.968 5.436-58.577 19.609-87.317 56.246L2.023 83.133l24.97-9.947c.2-.08 19.475-7.595 35.02-9.786 5.797-.818 10.236-.883 6.633 7.058-2.84 6.267-9.291 15.413-9.358 15.505l-12.504 18.186 20.857-7.241c10.032-3.49 19.037-5.208 23.59-5.37 1.627.03 1.925 1.105 1.413 2.273-.147.406-.231.617-1.358 2.348l-13.078 18.666 21.451-7.684c15.568-5.586 36.035-9.264 43.356-6.466.597.227 2.531 1.254.614 4.066l-8.425 13.404s12.439-1.887 14.207-2.16c.977 12.24 7.117 18.914 7.873 19.685l9.037 9.269 3.173-12.551c2.278-9.033 6.57-13.954 10.4-16.635l.736 5.158 8.378-3.022c7.043-2.546 12.618-5.605 16.632-9.094 5.31-.42 18.281-1.194 30.74.04 21.474 2.123 35.878-.732 39.782-1.66 5.223-1.235 9.624.995 9.672 1.02l6.383 3.472 3.445-6.466c.408-.776 2.355-4.812 2.355-10.795 0-1.482-.12-2.98-.363-4.45" fill="#fff"/>
  <path d="M294.657 91.201c-1.062-6.463-5.436-16.017-20.268-24.89-3.966-2.363-8.273-4.385-12.633-6.103l5.252-1.766-7.214-2.815c-3.573-1.395-7.329-2.544-11.2-3.476.743-.754 1.549-1.577 1.549-1.577l-5.528-.778c-8.515-1.192-14.394-1.055-17.853-.732.032-.746.057-1.534.057-2.33 0-1.114-.042-2.21-.16-3.098l-.927-6.931-3.847 5.257c-1.111-3.089-2.934-6.916-6.262-10.686l-5.973-6.757.676 5.64c-5.369-4.989-12.8-10.233-22.985-14.603-23.108-9.91-52.41-11.956-80.369-5.617-23.436 5.314-57.28 19.183-85.415 55.046l-7.09 9.045 10.676-4.257c.199-.077 20.056-7.943 36.198-10.102 6.33-.84 10.698-.092 12.298 2.117 1.492 2.069 1.012 6.162-1.306 10.96-3.173 6.582-9.658 16.032-9.723 16.131l-5.347 7.772 8.918-3.094c11.75-4.086 26.564-7.107 29.998-4.861.794.52 1.222 1.131 1.388 1.987.55 2.854-1.907 7.182-2.812 8.48l-5.598 7.975 9.176-3.283c14.66-5.256 40.943-11.285 49.069-5.058 3.757 2.883.246 8.578.09 8.817l-3.607 5.742 6.695-1.022 3.275-.508c-.02.525-.055 1.057-.055 1.557 0 12.959 6.556 19.85 6.871 20.178l3.867 3.964 1.358-5.374c3.805-15.085 12.81-20.308 17.828-22.078.14 1 .838 5.886.838 5.886l3.581-1.293c8.784-3.17 13.703-6.65 16.404-9.26 4.04-.354 18.845-1.473 33.06-.07 20.934 2.074 34.847-.68 38.615-1.574 6.94-1.642 12.581 1.36 12.64 1.39l2.756 1.504 1.48-2.773c.094-.174 1.877-3.643 1.877-8.887 0-1.18-.092-2.447-.313-3.795" fill="#9a7611"/>
  <path d="M272.549 69.439c-6.193-4.38-14.533-7.565-22.626-9.843 3.37-1.09 6.745-1.017 6.745-1.017-5.186-1.982-10.6-3.22-15.635-4.002l1.885-1.69c-9.224-1.572-15.662-1.453-19.482-1.055.48-1.89.87-4.777.378-8.632 0 0-1.119 3.323-3.832 5.387-.358-4.312-1.736-10.55-6.416-14.782l.868 7.613c-4.123-6.21-11.97-14.15-26.803-21.089C147.307 1.481 76.255 8.626 37.25 59.002c0 0 15.166-7.58 36.18-8.082 11.01-.259 13.685 5.906 9.674 16.296-4.034 10.442-11.104 19.603-11.104 19.603s47.553-16.85 32.54 6.558c0 0 35.898-10.75 46.666 1.86 5.006 5.852-.823 14.036-.823 14.036l10.183-2.203c-3.302 12.934 2.48 21.195 2.48 21.195 4.203-16.908 18.857-21.412 24.045-22.265l1.122 4.581c8.694-3.143 12.782-6.488 15.12-9.244 18.41-2.894 30.91-.42 45.103.353 20.673 1.13 31.36-2.471 34.774-2.45 2.506.023 5.478 2.21 5.478 2.21s8.592-14.504-16.14-32.011"/>
  <path d="M176.435 21.945C130.672 8.29 82.92 21.5 56.418 46.881c0 0 26.68-8.396 34.682-.147 9.308 9.592-4.795 32.145-4.795 32.145l9.224-1.445-1.044.127c7.204-25.214 13.707-34.052 18.061-38.374 2.59-3.158 7.167-5.3 10.838-6.548-24.662 1.176-48.637 6.252-48.637 6.252 15.505-12.034 51.457-20.442 72.181-18.328 20.723 2.116 19.313 10.522 17.182 15.316-1.726 3.875-10.191 9.127-18.152 10.823 8.241 1.074 12.91 7.436 9.957 13.787a15.357 15.357 0 0 1-.86 1.579 88.85 88.85 0 0 0-23.008 9.02 46.33 46.33 0 0 1-.67.388c-.298.174-.598.348-.894.525-.227.134-.453.266-.682.405-.278.169-.552.34-.823.51-.226.144-.458.283-.681.43-.261.162-.518.33-.774.5-.219.139-.445.286-.664.432-.241.172-.485.336-.726.5-5.265 3.619-9.087 7.242-11.069 10.052 0 0 53.896-10.917 44.56 16.227l13.92-3.815c-.981 1.716-2.536 3.676-4.65 6.033-6.58 7.31-6.127 14.257-6.127 14.257s1.932-7.602 14.384-12.814c11.355-4.745 13.973-12.812 13.973-12.812s3.783 5.59.687 13.419c0 0 5.23-1.306 9.91-7.727 1.907-3.412-.045-7.47-.853-9.457-7.122-3.788-18.778-11.035-8.878-13.4-6.167-.92-24.955-2.775-48.496 3.947 0 0 21.763-14.536 63.614-7.704-11.307-6.75-36.084-6.47-36.084-6.47 8.622-2.157 17.92-2.184 26.687-1.217a119.371 119.371 0 0 0-13.947-2.977c-8.606-1.02-16.823-.564-24.4.836 8.514-8.838 24.027-7.677 24.027-7.677-10.345-6.97-23.833-4.74-23.833-4.74 15.122-7.826 31.936-5.177 31.936-5.177-5.288-6.981-17.772-8.518-17.772-8.518 24.75-1.002 33.419 12.004 33.419 12.004-6.17-2.688-10.565-2.283-10.565-2.283s5.949.965 9.975 8.49c4.265 7.973 7.88 7.744 7.88 7.744s6.783-25.69-37.998-39.053" fill="#24135f"/>
  <path d="M140.73 20.24c-21.085-.183-51.93 7.745-65.98 18.65 0 0 23.975-5.075 48.639-6.252-3.671 1.249-8.25 3.39-10.838 6.548-4.355 4.322-10.858 13.16-18.062 38.374 0 0 .38-.048 1.044-.127 3.091-.393 12.385-1.51 17.89-1.79l9.274-.535c1.007 0 2.041-.035 3.09-.092.117-.077.234-.162.351-.239.242-.164.486-.328.727-.5a33.5 33.5 0 0 1 .663-.433c.256-.169 1.229-.785 1.455-.93.271-.169.545-.34.824-.51.229-.139.454-.27.68-.405.296-.176.598-.35.896-.525.224-.126.445-.256.669-.388a88.867 88.867 0 0 1 23.008-9.02 15.35 15.35 0 0 0 .86-1.578c2.953-6.351-1.716-12.713-9.957-13.787 7.96-1.696 16.426-6.948 18.152-10.823 2.131-4.794 3.54-13.2-17.182-15.316a67.12 67.12 0 0 0-6.2-.323zm.902 11.683c4.004.425 5.906 3.533 3.424 7.867-1.129 1.958-3.424 3.6-6.391 4.482.353-.51.696-1.104 1.017-1.8 2.561-5.5.594-7.913-4.245-7.956 1.316-1.99 2.034-2.581 2.034-2.581zm-14.49 19.168h6.132c4.931 0 7.674 2.775 4.595 9.398-1.867 4.018-5.259 5.898-8.398 6.674 1.19-1.005 2.241-2.305 3.027-3.994 3.074-6.62.336-9.395-4.6-9.395h-2.077c.42-.888.863-1.785 1.32-2.683z" fill="#fff"/>
  <path d="M135.435 34.516c-1.276 1.925-3.113 5.157-5.413 10.454h3.714c1.771 0 3.432-.255 4.927-.698.353-.51.696-1.105 1.017-1.8 2.561-5.5.594-7.913-4.245-7.956zm-9.616 19.258c-3.42 7.24-5.546 13.869-5.546 13.869h5.297c1.142 0 2.497-.124 3.9-.48 1.188-1.005 2.24-2.305 3.026-3.994 3.073-6.62.335-9.395-4.6-9.395z" fill="#24135f"/>
  <path d="M138.72 23.316c-3.071.008-6.788.184-10.823.724-4.257.569-24.953 2.675-42.576 11.277 15.411-3.752 33.625-5.128 45.154-5.545 4.85-.172 10.177-.02 10.177-.02 3.449 0 6.646 1.02 7.872 3.031 1.271 2.082 1.622 4.578-.768 7.627-1.315 1.681-2.86 3.452-7.343 5.277l5.167-1.101c7.724-1.651 14.735-5.991 16.346-9.356 1.177-2.457 1.244-4.426.294-5.985-1.937-3.181-6.668-5.064-15.066-5.492 0 0-3.32-.45-8.438-.437zm-6.958 10.636c-2.354.032-10.232 1.194-16.371 7.05-5.702 5.041-11.862 18.134-16.761 33.726a347.943 347.943 0 0 1 16.068-1.285l8.012-.346c2.107 0 4.322-.114 6.558-.365 6.143-3.79 13.829-7.4 22.605-9.844a12.913 12.913 0 0 0 1.413-2.345c.883-1.892.985-4.244.356-6.104-.948-2.823-2.835-4.703-8.784-6.095-7.828-1.828-19.263-1.022-19.263-1.022 2.63-6.389 4.595-10.125 6.562-13.362a5.154 5.154 0 0 0-.395-.008zm-6.921 14.988h8.51c4.392 0 6.411 1.8 7.337 3.318 1.45 2.375 1.19 5.575-.605 9.584-3.464 7.731-11.857 8.428-14.376 8.428l-9.656.368c4.185-13.28 8.79-21.698 8.79-21.698z" fill="#9a7611"/>
  <path d="M194.658 47.589a7.51 7.51 0 0 0-2.623.36c-3.464 1.122-5.235 4.502-3.952 7.543 1.284 3.04 5.135 4.596 8.6 3.467 3.466-1.127 5.234-4.501 3.951-7.54-.962-2.283-3.37-3.726-5.976-3.83zm2.366 3.41c1.446.049 2.772.906 3.294 2.273.702 1.82-.3 3.856-2.232 4.55-1.933.69-4.059-.223-4.758-2.048-.698-1.82.308-3.855 2.235-4.544a3.914 3.914 0 0 1 1.461-.231z" fill="#c8102e"/>
  <path d="M194.995 49.165a5.923 5.923 0 0 0-1.928.292c-2.686.87-4.078 3.43-3.109 5.729.592 1.407 1.945 2.385 3.522 2.723-.776-.49-1.4-1.176-1.759-2.019-.965-2.283.43-4.85 3.109-5.722a5.904 5.904 0 0 1 3.086-.157 5.655 5.655 0 0 0-2.921-.846zm32.054 10.995 6.402 5.16-11.91-1.032 9.428 6.816c-10.117-3.307-37.365-12.235-59.944-6.59 0 0 24.776-.279 36.084 6.47-41.852-6.831-63.615 7.704-63.615 7.704 23.54-6.721 42.327-4.866 48.497-3.946-9.9 2.365 1.755 9.612 8.877 13.4.808 1.986 2.76 6.045.85 9.461 0 0 2.147-2.73 3.711-6.747l5.792 4.651c17.289-2.134 30.041 1.51 44.357 1.44 10.296-.057 18-.985 24.06-2.4-22.37-9.587-66.164-13.687-72.948-13.133 0 0-3.708 1.045.56 5.143-5.969-2.35-11.927-6.829-12.34-9.097-.435-2.41 3.924-3.083 14.247-1.87 38.655 4.566 72.11 11.036 76.63 20.506 0 0 2.361-11.854-16.912-23.145-16.49-10.994-41.826-12.792-41.826-12.792z" fill="#fff"/>
</svg>