<svg xmlns="http://www.w3.org/2000/svg" xml:space="preserve" height="174.89" viewBox="0 0 191.475 174.893" width="191.48">
  <path d="M140.756 30.504c40.545 30.855 9.69 35.473-21.973 39.98 0 0-13.362-3.686-36.514-15.188-52.51-26.08-35.979-38.369 5.291-45.805C21.51-19.284-33.54 30.816 27.19 79.532L10.524 91.445c13.689 8.392 42.051 25.995 37.931 52.952l-14.077 10.061 42.991 19.481 33.924-15.372c.246-14.929 26.928-22.684 38.41-53.051 63.2-14.5 47.102-70.093-8.946-75.014" fill="#fff"/>
  <path d="m91.869 122.679-12.188-13.863-13.992 2.086 6.467-10.655-12.185-13.87 16.187 7.284 6.453-10.658 3.53 15.153 16.183 7.273-13.999 2.092 3.544 15.158zm19.994-49.343C32.529 42.696 27.275 17.557 76.794 8.87 14.864-7.958-21.26 36.926 40.016 79.727l-16.44 11.754c17.458 11.663 35.96 28.94 29.683 56.126l-8.285 5.914 31.82 14.425c29.613-32.434 45.1-63.947 35.07-94.611" fill="#03202f"/>
  <path d="M152.144 35.329c27.227 21.316 8.322 34.935-24.871 38.635 8.397 35.398-17.352 67.82-44.614 92.927l24.996-11.324c1.849-14.388 27.21-21.869 39.226-53.794 56.445-12.594 47.233-53.101 5.263-66.445" fill="#a71930"/>
</svg>