<svg xmlns="http://www.w3.org/2000/svg" xml:space="preserve" height="126.38" viewBox="0 0 189.326 126.385" width="189.33">
  <g>
    <path d="M19.968 89.71c13.163-8.404 17.304-17.87 17.304-17.87L-.003 77.187l15.84-28.131 31.825-2.68s12.382-11.049 31.553-18.971c0 0 2-3.486 12.948-9.787 0 0 10.041-5.913 21.477-9.697 0 0 7.75-2.665 10.037-2.8l-.672-2.464 14.614-1.252.377-1.4s7.628.515 12.003 2.45l.862-1.147s10.209 4.693 17.807 16.223c0 0 7.37-.41 13.968 2.747 0 0 6.991 2.78 6.676 10.895 0 0-.048 10.355-3.143 20.617 0 0-.475 1.607-.917 2.566 0 0-.643 1.307-1.883 2.957 0 0-3.462 3.565-4.805 6.704 0 0-.728 2.088-2.173 5.881 0 0-1.112 5.217-8.69 5.507 0 0-7.377 9.334-10.453 12.013l-.26-2.267s-5.146 4.767-9.612 7.583l1.509-13.214s.37-2.36-1.128-2.53l-3.855-.092s1.262 7.953-.262 11.63c0 0-.97 5.773-9.927 8.522 0 0-6.92 2.202-14.84 2.821l-1.7-.27-12.465 5.109 3.643-13.07s-4.67.473-5.073-.113l-13.88 5.95 5.456-15.633 3.738-2.07-1.193-1.62-7.674.068-2.823 2.197c-6.518-1.698-12.855-1.24-12.855-1.24l-32.253 26.177-8.082 17.865-9.651-12.904 3.02-3.951-1.147-.864-4.375 3.443-6.477 17.445-9.539-13.463 2.453-5.471-.543-3.352c2.84-1.875 4.677-3.131 6.113-4.744.782-1.01 1.214-1.36 2.123-3.058.858-2.074.89-4.32 1.846-5.031 1.196-.813 2.111-1.359 2.433-1.564" fill="#fff"/>
    <path d="M17.648 51.875 5.315 73.609l159.131-23.715s-5.53-4.206 2.487-10.856L17.645 51.875" fill="#c60c3d"/>
    <g fill="#00338d">
      <path d="M179.182 36.01s-12.425 8.495-8.117 15.824c0 0-4.51 2.498.473 6.013 0 0-7.701 3.466-5.665-6.045L40.764 70.734s-2.675 11.33-20.418 22.057c0 0-1.302.763-1.418 2.187 0 0 .126 1.776-1.489 3.925 0 0-2 3.488-6.636 6.453l.331 2.325-2.17 4.982 5.315 7.63 4.809-12.98 9.52-7.313s9.319-14.582 24.642-20.29c0 0 13.52-5.77 33.26-2.502l1.802-1.73 22.853-.504s.86.197.286.662c0 0-4.501 3.462-9.432 3.908l.457 1.406s.134.493-.235.611l-4.787 1.9-3.166 8.777 8.983-3.91.502.379s7.818.485 19.58-1.895c0 0 8.16-1.615 10.43-12.181l15.528-.678s3.235.69 2.829 3.692l-1.112 8.804 7.102-6.327.493 1.66s5.38-5.826 6.76-9.16c0 0 5.907.118 7.364-2.27 0 0 .669-.67 2.558-5.867 0 0 .885-3.652 4.534-7.244 0 0 2.826-2.646 4.395-9.592 0 0 1.895-10.067 1.879-11.986 0 0 2.037-9.958-4.787-12.892 0 0-5.072-2.798-14.565-2.021 0 0-1.893-6.607-14.979-15.665l-.95 1.416s-4.472-3.078-10.803-3.007l-.32.88s-3.848-.028-12.24.847l.782 2.323s-17.305.802-41.853 17.238l-.448 1.345-3.121 1.469 1.666.914S65.74 35.283 52.092 46.45l127.087-10.44"/>
      <path d="m135.344 76.584 5.37-.06s1.074 7.086.437 10.246c0 0-1.059 4.698-5.856 6.536 0 0-7.066 2.99-17.662 3.67l-.512-.44-8.033 3.389 2.638-9.342s10.767-.832 14.02-1.806c0 0 8.348-1.64 9.599-12.192M69.207 79.356s-19.052-.228-32.1 15.14c0 0-.036 5.577-6.796 9.358l.25 1.76-3.212 4.427 5.7 7.638 6.424-14.233 29.734-24.09"/>
    </g>
  </g>
</svg>