<svg xmlns="http://www.w3.org/2000/svg" width="296" height="173.55" viewBox="0 0 298 175.55">
  <path d="M151.14 172.568c.006.114-.127.87-.424 1.2-.303.334-.746.457-1.17.551a2.324 2.324 0 0 1-1.94-.417c-.457-.344-.742-.828-.776-1.297 0-.01-.003-.015-.003-.025l-.004.002-5.182-16.875c-2.902-8.65-7.29-17.934-15.805-26.148-10.284-9.92-25.445-16.78-46.346-20.966-18.218-3.65-30.212-6.787-38.884-10.173-8.325-3.247-13.233-6.627-18.045-10.701-12.26-10.385-20.81-23.63-21.365-40.306 0 0 12.2 17.24 25.609 9.006 6.337-3.892 10.896-3.336 10.896-3.336-4.124-4.553-7.168-10.494-7.98-16.958-.65-5.17-.227-10.906 1.256-17.054C33.502 8.613 40.853.949 40.925.827c0 0-2.89 25.128 9.123 34.04 7.407 4.17 15.011 2.49 15.011 2.49s-9.977-4.62-11.374-19.449c-.614-6.519.35-11.645.607-12.954 0 0 13.17 18.592 26.363 10.956 2.95-1.708 18.524-9.758 25.238-11.542 9.857-2.616 19.61-2.8 28.99-.548 7.79 1.872 15.392 5.435 22.6 10.59 12.852 9.19 21.172 21.122 24.152 25.826 0 0 25.866-1.137 40.02 16.952l.021.03 32.738 14.45-3.713 2.374-.161.105.167.106c10.595 6.732 29.13 18.667 34.178 22.971l.01.01.017.013 9.378 4.458-1.711 4.539v.003c-.112.305-2.658 7.582 2.145 11.185l2.413 1.81s.028.018.05.038l-.022.058-7.372 19.53-1.867-2.51c-10.285-14.173-20.002-16.79-24.889-16.892-5.526-.117-5.915 2.83-5.231 4.097 2.224 4.108 14.615 6.238 19.204 6.705l3.127.405-11.935 10.696-21.637-1.362-.089-.005.008-.09.364-4.246v-.028c-.111-.806-1.573-8.06-19.268-15.344l-.05-.016-.05.022c-3.01 1.39-9.184 3.785-16.75 4.191-9.12.493-17.585-1.968-25.16-7.31l-.052-.033-.061.016c-3.039 1.035-9.03 3.376-15.017 7.489-11.117 7.64-17.183 17.633-18.027 29.705 0 0-.974 9.948-1.276 18.208" fill="#0a2343"/>
  <path d="M183.742 45.647c7.708 2.381 10.061 4.726 10.656 6.288.395 1.045.002 1.697-.016 1.723l-.043.068-.076-.021C106.987 29.915 35.597 84.648 32.607 86.989c3.427 3.457 11.129 8.12 38.815 14.266 6.178-4.826 35.628-25.767 80.076-24.533l-7.212-10.897s27.535 7.155 43.25 15.89c-1.212 11.635 5.997 22.848 17.621 26.28 8.332 2.46 16.926.337 23.08-4.9l19.747 12.604-18.947-7.353c-8.055 5.828-18.692 7.858-28.874 4.55-12.598-4.091-20.952-15.21-22.138-27.606-42.653-10.713-74.102 16.262-80.387 22.199 5.081 1.609 9.768 3.434 14.02 5.468 5.181 2.483 9.846 5.333 13.938 8.516 3.159-3.855 15.754-17.093 39.907-17.293 0 0-23.715 6.137-31.274 25.454 6.715 7.778 10.174 16 12.833 23.85.604-7.46 2.989-14.309 7.12-20.357 3.377-4.941 7.912-9.363 13.479-13.144 9.475-6.435 18.789-8.804 18.883-8.826l.052-.014.041.033c19.216 15.49 40.37 3.294 40.581 3.166l.045-.021.049.015c5.915 2.26 10.913 4.792 14.844 7.533 3.152 2.19 5.633 4.52 7.376 6.922 2.708 3.725 2.786 6.404 2.77 6.96l14.331.94 4.202-3.59c-13.025-1.687-16.971-5.733-17.777-9.202-1.401-8.364 7.138-9.396 11.029-8.889 9.073 1.183 20.102 9.31 24.255 14.965l3.074-8.256c-4.186-3.18-5.034-7.726-5.004-10.984v-.002c.034-3.202.89-5.808 1.067-6.308l-5.582-2.608-.022-.006-.01-.015c-3.446-3.73-40.771-27.201-41.146-27.44l-.141-.088.139-.09 2.755-1.838-25.292-10.715-.03-.011-.017-.028c-10.268-15.352-30.502-15.966-34.388-15.937zm14.418 4.496s9.011 1.383 14.252 9.741c-4.947-1.907-10.357-3.702-14.348-4.685 12.519.255.096-5.056.096-5.056zm17.692 18.737s5.015.714 14.594 5.416a3.246 3.246 0 0 0 1.973 5.605 3.245 3.245 0 0 0 3.46-2.758c7.625 4.231 17.336 10.58 29.01 20.102l-29.342-16.377-3.136 2.14s-4.954-6.426-16.559-14.128zm16.35 6.3c.745.381 1.517.784 2.312 1.217l-3.2 2.352zm45.608 29.277c2.032.002 4.474.648 4.474.648-6.91 2.764 1.993 10.686 1.993 10.686-12.1-9.551-9.854-11.338-6.467-11.334z" fill="#fff"/>
  <path d="M121.004 7.724c-4.526.04-9.105.674-13.703 1.91-5.958 1.602-19.424 8.215-24.468 10.83-13.26 6.874-21.838-2.019-25.066-5.367l-.146-.15c.305 1.828.912 5.138 2.383 8.522 1.835 4.225 4.49 7.33 7.892 9.233 6.089 3.403 14.56 2.923 25.181-1.432 11.825-4.846 21.744-6.332 29.482-4.408 6.974 1.733 13.388 7.29 17.175 14.87a172.465 172.465 0 0 1 38.19 2.71c-6.422-9.938-14.171-18.45-22.43-24.627-6.746-5.047-13.848-8.56-21.108-10.44a51.414 51.414 0 0 0-13.382-1.651zm-84.074 7.55c-4.67 14.565-2.432 26.112 4.342 33.859 5.372 6.145 14.525 10.214 24.489 10.89 19.89-9.12 40.35-14.926 60.81-17.265-5.568-9.475-21.875-10.626-45.972-3.229-15.51 4.762-26.506 4.71-33.619-.164-6.062-4.152-9.716-11.527-10.05-24.091zm1.178 43.282c-2.525.059-5.494.869-9.367 2.854-12.25 6.276-19.533-.662-19.533-.662s5.6 28.912 47.16 5.03c-8.269-2.611-11.81-7.371-18.26-7.222zm192.335 15.74a3.246 3.246 0 0 0 1.973 5.605 3.245 3.245 0 0 0 3.46-2.758c-.461-.255-.915-.507-1.365-.746l-3.201 2.352.888-3.568c-.6-.311-1.186-.607-1.755-.885z" fill="#fc4c02"/>
</svg>