<svg height="275.705" viewBox="0 0 298 227.24" width="362.706" xmlns="http://www.w3.org/2000/svg">
  <path d="M100.587 6.761c-6.277-.017-12.77.504-19.458 1.643C58.03 15.812 37.217 30.01 22.913 49.88c-.117.163-.238.322-.353.485-.054.075-.104.152-.157.227-17.16 24.265-24.663 56.856-14.94 95.783 7.441 27.091 16.148 41.458 25.597 54.922 0 0-.433 6.54 10.84 3.127 2.555-.774 4.859-1.367 7.046-1.7 6.56-.998 12.062.36 20.061 6.323.479.356.973.706 1.47 1.054 18.777 13.108 49.647 18.809 69.725 8.336 5.145-2.682 9.584-6.435 12.929-11.4-.013 0 .145-.264.145-.264 1.517-2.158 2.456-4.128 3.243-6.378 1.462-4.096 1.839-8.25 1.702-12.153-1.273-.21-2.589-.43-3.945-.656-.88 16.854-17.594 33.088-47.48 31.22-12.46-.464-25.76-6.521-33.692-10.845-3.65-2.45-13.94-8.218-18.875-9.308 4.29.23 15.023 5.849 19.522 8.448 9.225 4.753 22.097 9.316 33.05 9.774 19.953 1.874 42.592-8.355 45.01-29.699l-50.428-8.4c-.784.562-1.77.836-2.862.764-2.02-.138-3.97-1.377-4.753-3.026-.577-1.224-.451-2.52.366-3.674-.015.026 9.483-14.136 9.483-14.136l.384-.762c-.445-2.16.583-4.058 1.041-4.514.778-.78 5.093-7.86 6.085-9.849.115-.228 1.257-2.007 3.52-2.176 1.002-1.607 3.42-5.47 7.527-12.132-.327-1.883.547-3.704 1.88-4.756a4.672 4.672 0 0 1 1.261-.703c5.072-8.209 10.751-17.199 12.332-19.552 1.81-2.488 3.23-4.14 4.849-6.01.587-.664 1.912-1.729 2.487-2.18.755-1.022 1.88-1.81 3.045-2.15.015-.092.084-.199.237-.325 4.09-3.336 9.858-5.422 9.858-5.422 7.704-3.226 21.414-6.935 35.425-9.747-.984-2.843-4.096-11.795-4.096-11.795-.025-.066-.106-.247-.213-.503a14.884 14.884 0 0 1-.828-2.584c-.208-.965-.302-2.027-.099-3.009.1-.483.264-.95.533-1.368.066-.104.16-.183.24-.277a3.31 3.31 0 0 1 .617-.57c.128-.092.245-.19.383-.27-6.393-10.821-16.134-21.778-28.611-30.77-10.28-7.408-22.418-13.476-36.068-17.047-.157-.04-.312-.089-.47-.13-.096-.025-.196-.044-.293-.07a107.014 107.014 0 0 0-26.058-3.272zm97.07 80.283c-11.004 2.303-22.5 5.059-32.453 9.107-3.434 1.241-6.161 3.004-8.835 4.726l2.794 6.164a40.068 40.068 0 0 1 7.159-5.486 25.528 25.528 0 0 1 1.179-.789c6.506-3.518 10.513-5.43 20.831-6.748l2.57-.355c1.754-.263 5.104-.958 6.07-2.705.548-.994.758-2.32.685-3.914zm-48.22 19.881a361.028 361.028 0 0 0-3.648 5.6c0-.01-5.095 8.14-10.385 16.691 3.763 4.013 9.365 9.708 13.56 13.74-.953-6.033-1.18-12.24.072-17.979a34.35 34.35 0 0 1 3.975-10.173zm-18.83 30.162c-2.572 4.158-4.263 6.9-5.31 8.595l11.333 7.437c2.433 1.604 5.151 3.508 5.266 7.06.104 3.658-3.067 7.923-4.097 9.303-1.33 1.767-5.53 6.757-10.987 3.285 0 0-7.91-4.914-13.49-8.246l-4.298 6.359c4.083.649 26.324 4.19 44.578 7.1-.965-7.048-3.285-13.483-4.69-19.104 2.454 5.276 5.008 12.012 6.45 19.383l3.645.58c-.382-1.873-.783-3.57-1.101-5.024-.663-3.039-3.365-9.508-5.756-17.398-3.532-2.064-7.074-4.84-10.55-8.61-.05-.053-5.906-5.632-10.994-10.72z" fill="#f30"/>
  <path d="m227.28 56.08-4.454 2.06 8.04 17.917.907.103c.649.11 1.307.13 3.887.882 3.382.982 3.974 8.598-2.467 7.953a130.479 130.479 0 0 0-2.88-.338c-.002-.007-.007-.013-.012-.02a37.423 37.423 0 0 0-4.093-.523l-.355-.042c1.642 6.402 1.165 15.022-7.48 16.945 4.461-1.951.555-3.296.33-3.398-9.323-2.137-24.81.734-26.51-.437 9.947-.962 10.7-5.921 9.888-11.051l-1.53.314c.957 5.396-1.292 7.403-4.279 8.516-4.557 1.546-7.835 1.588-7.983 1.57l-2.967-.104c1.289-.432 3.827-.54 6.944-1.183 4.782-.993 7.563-3.089 7.226-8.58-.611.128-1.222.252-1.837.38.073 1.595-.137 2.92-.685 3.915-.966 1.747-4.315 2.442-6.07 2.705l-2.57.355c-10.317 1.318-14.324 3.23-20.831 6.748 0 0-.807.51-1.179.789a40.041 40.041 0 0 0-7.159 5.486c.297.655.6 1.327.916 2.022a40.756 40.756 0 0 1 3.892-3.41s2.895-2.546 6.546-4.162c-5.23 3.353-8.475 6.648-10.067 8.39l15.17 33.489c-1.256-9.353 16.67-16.454 23.233-.926a70.34 70.34 0 0 1 3.257 9.723 712.87 712.87 0 0 0 3.967-.402 82.224 82.224 0 0 0-1.469-5.227c-.949-3.966-1.666-9.51-1.63-15.381-.005-.294-.009-.584-.009-.871 2.707 3.151 12.42 13.684 24.029 17.056l-2.896-7.1s-11.695-4.998-20.384-18.353c.12-.665.229-1.165.302-1.48.982-4.898 2.72-9.512 5.583-13.095.191-.237.367-.438.549-.651.163-.247.467-.653.93-1.117l18.421 43.189s3.074-.209 5.875-.713c0 0-14.58-34.53-19.014-45.047.302-.043.62-.074.948-.092.147-.018.274-.04.429-.057v-.005a6.56 6.56 0 0 0 .623-.053c4.4-.79 6.706-2.757 8.383-5.804 1.442-2.625 1.636-6.087 1.404-8.896.22-.306.457-.579.74-.836.383-.346.855-.663 1.497-.99 4.876 2.551 13.727-.943 8.388-9.416zm-23.04 1.804c.008-.028-.153.076-.153.076l-1.924 1.002c-1.395 1.669.699 7.151.699 7.151s1.615 5.05 3.658 10.105c5.36-1.4 9.197 8.49-.25 9.208.922 3.943 9.804 2.29 6.366-6.632-.688-1.795-6.632-14.125-7.768-17.2-.726-1.962-.752-2.305-.709-2.983 0 0-.025-.513.082-.727zm4.398 1.203c-.25 1.951 1.417 4.336 2.512 5.043.799-1.278.056-5.01-2.512-5.043zm-7.993.594-1.76.837s-.82 1.687.326 5.167c1.506 4.571 3.901 11.176 3.901 11.176l1.93-.36-3.68-10.282s-1.514-3.968-.717-6.538zm11.075 6.675c.126 2.054.787 3.468 2.078 4.747 1.186-1.803-.059-4.325-2.078-4.747zm10.805 10.32s1.385 3.225 1.385 5.48c2.693.258 7.961.759 9.972 1.202 2.224 0 2.613-1.473 2.677-2.122.108-1.206-.56-2.662-1.687-2.825l-.07-.01-.074-.026c-1.584-.53-9.219-1.411-12.203-1.7zm-15.353 1.318a3.43 3.43 0 0 0-.337.03c-17.068 2.753-36.814 7.849-46.33 11.838-3.285 1.373-5.711 2.56-7.58 3.819.602.339.7.465 1.42 1.742.454.797 1.713 3.526 1.713 3.526 2.282-1.733 4.454-2.969 8.527-4.437 12.94-5.26 28.416-8.357 42.083-11.092l1.036-.205c2.231-.356 2.824-1.716 2.656-2.881-.185-1.228-1.525-2.405-3.189-2.34zm7.435 6.57c-.104 1.402-2.042 2.722-2.042 2.722 7.16.502 8.85-2.685 8.85-2.685-2.294-.036-6.808-.036-6.808-.036zM151.29 95.38c-.966-.017-2.403.706-3.133 1.924-.55.935-.559 1.895-.016 2.866.016.033 13.083 28.631 24.24 53.038 2.831.593 6.451.429 6.451.429l-26.188-57.98c-.033-.056-.665-.269-1.354-.276zm-5.032 2.907c.535-.638-3.511 4.133-5.208 6.92-1.615 2.418-6.366 9.937-11.58 18.397 1.075 0 2.22 1.374 2.22 1.374l2.68 2.943 9.96-16.345c1.653-2.595 4.617-6.277 4.41-6.078 0 0-1.231-3.053-1.84-4.27-.755-1.522-.642-2.94-.642-2.94zm60.758 8.42c-6.298 4.584-8.268 20.638-6.412 29.278-5.093-5.628-2.586-28.189 6.412-29.278zm-54.006 8.097a34.356 34.356 0 0 0-3.974 10.174c-1.253 5.738-1.025 11.945-.072 17.98a176.24 176.24 0 0 0 1.814 1.724c.155.121.307.235.46.354-1.812-9.322-1.88-19.138 2.814-27.936zm1.943 4.283c-3.555 8.985-3.037 18.467-1.237 27.78 4.91 3.45 9.563 5.537 16.72 6.344zm-26.102 6.166c-.657.024-1.301.274-1.732.619-1.225.962-1.845 2.788-.679 4.443 4.671 5.119 16.274 16.175 16.389 16.29 10.488 11.383 21.033 13.744 30.536 14.278 6.674.462 15.26.063 13.748.158 17.481-1.056 47.228-5.212 63.514-8.174 1.217-.275 2.216-.47 2.216-.47l.565-.01c.772.36 1.508 2.727 1.55 2.9l-.026-.088c1.695 4.267 5.082 15.339 5.12 15.45 0 0 .932 3.392.563 3.765-.572.577-5.09 1.647-5.09 1.647-8.353 2.225-42.905 7.35-61.594 8.388-.13.028-5.046.789-15.618-.795-.015 0-69.364-11.392-69.364-11.392l-3.853 5.277c-.298.007 71.742 11.73 71.742 11.73 6.545 1.038 11.74 1.264 15.403 1.224l2.085-.059c2.611-.11 4.092-.338 4.126-.338 19.314-1.955 43.781-5.079 59.598-8.843 0 0 1.8-.382 3.172-.33.551.014 1.324.339 1.324.339.272.25.614.916.865 1.987 2.824 10.19 3.416 25.504 3.45 26.227 0 0 .056 3.173-.478 4.405-.66.709-3.003 1.112-3.003 1.112-25.644 6.565-55.573 1.932-67.179-22.94-2.508.208-6.33.135-6.33.135.213.862 1.17 2.663 1.17 2.663 7.48 16.564 20.954 23.17 32.345 26.177 12.55 3.319 27.456 3.108 41.36-.47 2.252-.754 2.172-.924 2.172-.924 2.092 1.072 4.16.137 4.16.137.952-.485 1.454-1.492 1.567-2.73 2.067-23.377-6.862-54.32-15.899-70.98-1.3-1.062-2.855-1.051-4.017-.517-.61.276-1.34.86-1.362 1.046l-.075.534.026.244s-.965.38-2.572.593c-12.673 2.498-55.773 7.77-67.601 7.471-.284-.008-6.02.073-10.88-.505-8.975-1.013-13.6-3.632-20.028-8.646-5.795-5.42-17.527-17.548-19.579-20.29-.48-.56-1.149-.762-1.806-.738zm-4.001 5.987c-5.686 9.23-7.183 11.722-7.29 11.89l-.032.06-.04.048c-.806.967.534 2.35.814 2.621 1.22 1.176 3.175 1.93 4.105 1.194l6.912-10.962s-2.75-2.484-4.47-4.85zm152.16 10.795c-.273.003-.432.037-.432.037 2.475.753 4.591 4.915.075 7.388 0 0 2.906 7.197 4.906 16.225 8.308-.064 8.736 9.898 3.87 11.474 0 0 3.148 15.905 4.008 24.651.104 1.615.035 2.937.035 2.937 3.438.712 5.441 3.116 5.441 4.405 1.68-10.033-4.183-39.054-11.739-60.237-1.688-6.346-4.987-6.897-6.165-6.881zm-2.271.984s-2.02.252-3.094.576c-3.447 1.014-8.427 2.012-12.305 2.678 1.34 2.604 1.664 3.66 2.126 4.682-.18.105 1.839-.282 4.025-.701 3.526-.663 7.052-1.494 8.815-2.042l.707-.155a2.487 2.487 0 0 0 2.117-2.619c-.184-1.247-.85-2.158-2.391-2.42zm-7.57.025s-8.55.853-11.422.65c.266.017 1.276.132 2.286.955 0 0 7.521-.959 9.136-1.605zm-32.154.546 1.833 4.191s8.942-.972 12.812-1.939c0 0 .11-1.509 1.715-1.72 0 0-7.016.755-16.36-.532zm-119.7.167c-1.256 1.087-1.498 3.156.889 4.652 4.167 2.61 17.756 10.614 17.756 10.614s3.67 2.339 3.83 5.294c1.11-3.16-.754-5.494-2.653-6.856l-12.644-8.463c-2.366.642-7.36-1.98-7.178-5.24zm9.49 3.496-1.027.99s9.66 6.432 12.138 8.096c2.833 1.916 3.936 4.341 3.49 6.774 0 0 2.4-4.048-2.039-7.414-2.475-1.882-8.206-5.64-12.563-8.446zm-11.555.132c-.538.934-1.754 2.952-4.26 6.475-1.097 1.549-1.488 2.949-1.157 4.177.494 1.824 2.453 2.733 2.47 2.742l.04.023.03.023 11.855 7.27 1.38.834-.005.01 3.816 2.353c2.81 1.866 6.18.363 7.94-1.996 1.547-2.094 2.15-5.088-1.023-8.106 0 0-.55-.728-3.288-2.253-2.547-1.414-11.393-6.767-15.596-9.404 0 0-1.66-.964-2.202-2.148zm-27.058.569c-3.21-.02-6.18 1.193-8.37 3.422-4.86 4.947-4.512 13.476.765 19.006 2.687 2.823 6.32 4.453 9.96 4.48a11.629 11.629 0 0 0 3.811-.586l7.986-11.812c-.066-3.535-1.47-7.19-4.192-10.033-2.686-2.819-6.319-4.455-9.96-4.477zm36.199 8.373c3.84.065 5.199 3.098 5.479 4.2 2.752-.34 4.775 1.458 4.861 1.54 3.31 3.253 1.044 6.214 1.021 6.247-.026.033-2.768 3.804-7.75.844a4.674 4.674 0 0 1-1.643-1.695l-.003.007a10.362 10.362 0 0 1-.602-1.314c-4.23.656-5.83-2.514-5.85-2.546-1.25-1.956-.403-4.228-.403-4.228.378-1.029 1.15-2.814 4.453-3.043l.028-.008h.029c.129-.005.256-.006.38-.004zm29.76.09c2.391 7.89 5.094 14.36 5.756 17.399.319 1.453.72 3.15 1.101 5.025l4.69.747a46.156 46.156 0 0 0-.044-.9c5.162-3.726 9.146-9.838 11.29-15.54l-.359-.79-.757-.046c-5.4-.304-11.308-1.104-17.338-3.705 1.525 5.793 3.086 11.399 3.95 16.64-1.067-4.502-3.527-10.599-5.782-17.49a40.921 40.921 0 0 1-2.507-1.34zm86.505.136s-4.802.788-5.653.893c0 0 7.15 17.495 8.28 19.638 0 0 4.718-.68 5.682-1.111 0 0-4.663-9.267-8.31-19.42zm-116.894.69c-.97.029-1.569.345-2.298.957 0 0-.858 3.535 1.721 4.988.178.082.275.226.445.282-.148-.527-.183-1.127-.193-1.913-.328-.222-.589-.31-.752-.602l.004-.899c.254.275.457.281.714.495.074-1.249.271-2.482.798-3.303a5.608 5.608 0 0 0-.44-.005zm2.005.16c-.564 1.053-.861 2.335-.908 3.737.5.222.957.39 1.474.433 0 0-.064.517-.05.754a3.74 3.74 0 0 1-1.411-.204c.03.578.042 1.104.178 1.63 2.598.4 3.874-1.247 4.027-2.46l-.213-.02c.092-1.662-1.252-3.285-3.097-3.87zm25.146 1.474c1.405 5.62 3.726 12.056 4.69 19.103l1.76.28c-1.442-7.371-3.996-14.107-6.45-19.383zm-30.398.463c-1.469 3.96 2.45 6.752 5.912 5.696.818 4.087 5.231 5.064 7.521 3.61-1.828.292-5.613.18-6.21-4.17-2.75 1.015-7.65.234-7.223-5.137zm-11.84.593-9.022 13.775c-.462.658-.534 1.316-.22 1.963.506 1.073 1.928 1.96 3.31 2.046.72.048 1.71-.1 2.339-1.062.01-.01 6.79-10.101 8.694-12.915 0 0-4.533-2.717-5.101-3.807zm101.015.536c-1.312.146-2.616.287-3.905.424.905 7.118.684 14.502-1.34 21.123a379.68 379.68 0 0 0 4.095-.411c.866-3.204 1.384-6.587 1.57-10.096.005-.324.011-.645.013-.955l30.644 5.21s-2.016-4.557-2.552-6.1l-28.152-4.832c-.01-.3-.023-.597-.037-.891a67.561 67.561 0 0 0-.336-3.472zm-79.581.907c-.195 1.331-1.026 2.329-1.53 2.694.543 2.897 2.369 4.18 5.612 3.757l.678-.113c1.868-2.728-1.039-6.45-4.76-6.339zm47.93 1.154c5.453 11.942 7.585 16.912 9.516 20.565 4.082.324 6.484-.146 6.484-.146l-9.485-20.386s-2.802.393-6.515-.033zm106.451 4.853c-1.638-.055-3.115.454-3.115.454-2.799.65-11.17 2.263-11.17 2.263l.534 1.501c2.259-.213 12.032-2.686 12.032-2.686 1.859-.034 1.931 1.216 1.931 1.216-3.755 1.403-13.385 3.408-13.385 3.408.428 1.823 1.355 5.37 1.355 5.37 11.39-2.035 13.856-3.293 13.856-3.293 3.328-1.397 2.045-5.298 2.045-5.298-.645-2.26-2.445-2.88-4.083-2.935zm-36.27 3.21 2.15 4.949 8.13-1.604s2.97-.115 2.107-3.302c0 0-5.19.072-12.386-.043zM69.465 182.893c11.209 14.366 30.935 14.433 40.886 3.901-4.232 2.073-21.92 13.694-40.886-3.901zm58.357 1.104a5.937 5.937 0 0 0-5.946 5.92c-.007 1.758.765 3.321 1.972 4.412.616 1.345 1.94 2.28 3.487 2.28a3.817 3.817 0 0 0 2.805-1.22 5.923 5.923 0 0 0 3.596-5.43 5.939 5.939 0 0 0-5.913-5.962zm123.41.504s-4.867 1.078-6.051 1.297c0 0 6.874 12.568 19.867 18.918 0 0-.177-4.948-.389-6.89 0 0-8.275-5.588-13.427-13.325zm-123.271.559c3.861-.008 6.552 4.948 3.331 8.28 1.399-3.007.254-6.835-3.437-6.994-3.835-.15-5.107 3.695-4.438 5.708-1.296-1.221-.852-6.973 4.544-6.994zm25.85 2.117c-2.419 21.344-25.06 31.572-45.01 29.699-10.953-.458-23.825-5.021-33.05-9.774-4.5-2.6-15.233-8.22-19.522-8.448 4.934 1.09 15.225 6.858 18.874 9.308 7.932 4.324 21.232 10.38 33.693 10.844 29.887 1.868 46.603-14.366 47.479-31.22l-2.464-.409zm-26.243.016c1.066-.008 2.15.436 2.8 1.403.582.871-.038 1.461-.486.77-.836-.932-2.935-1.368-4.142-.559-.541.333-1.102-.106-.412-.809.594-.519 1.411-.799 2.24-.805zm-.25 2.19c1.78 0 3.226 1.468 3.226 3.269 0 1.81-1.447 3.27-3.227 3.27-1.787 0-3.23-1.46-3.23-3.27 0-1.8 1.443-3.268 3.23-3.268zm-.03.666a2.58 2.58 0 1 0 0 5.158 2.578 2.578 0 1 0 0-5.158zm75.106 1.362c-1.098.117-2.185.232-3.243.34 0 0-.57.096-1.57.207l.613 1.215c.408.775.842 1.525 1.29 2.256a32.585 32.585 0 0 0 2.91-4.018zm-126.26.387a4.226 4.226 0 0 0-2.367.756c-1.487 1.052-2.134 3.14-1.849 5.237-.666 1.296-.262 3.206 1.11 4.652 1.475 1.558 3.546 2.025 4.878 1.191 1.2.099 2.354-.166 3.207-.882 2.128-1.77 2.223-5.247.267-8.032-1.346-1.906-3.378-2.962-5.246-2.922zm49.355.731c.068-.01.143.112.188.271.704 1.11 2.663 1.199 3.256.338.305-.434.3.162.3.162-1.231 2.429-4.04.893-3.85-.585.027-.125.065-.18.106-.186zm-49.137.673c3.574.2 7.65 6.14 3.356 9.3 3.963-5.154-3.748-11.157-6.79-6.388.713-2.19 2.035-2.99 3.434-2.912zm.126 2.119a.807.807 0 0 1 .297.048c.8.277 2.042 1.33 2.347 1.835.794 1.304-.05 1.963-.394 1.234-.39-.844-1.661-1.925-2.372-2.061-.63-.122-.5-1.031.122-1.056zm-2.07 1.54c.975-.024 2.08.45 2.946 1.364 1.387 1.463 1.624 3.489.534 4.518-1.086 1.04-3.093.692-4.48-.77-1.385-1.46-1.623-3.48-.533-4.519.41-.385.948-.58 1.533-.594zm-.086.586c-.39.022-.752.16-1.043.44-.833.81-.734 2.522.477 3.632 1.123 1.032 2.653 1.58 3.56.91 1.039-.787.348-2.818-.457-3.741-.682-.78-1.678-1.29-2.537-1.241zm-.238 1.141c.103-.028.196.026.231.269.163 1.104 1.33 2.266 2.438 2.558.267.064.353.469-.204.57-1.856.176-3.52-2.079-2.835-3.077 0 0 .198-.273.37-.32zm200.428 4.19s.314 4.836.21 6.018c0 0 3.218.966 5.044.858 0 0 .116-1.498-4.081-2.788 0 0 18.052 1.718-.963 5.8 0 0 .104 3.764-.43 6.133 0 0 9.848-2.586 12.891-3.448 3.43-.964 10.093-4.08 3.326-8.485 0 0 1.51 4.508-15.031 6.66 0 0 9.88-1.396 12.561-4.73 0 0 2.573-2.15-2.681-3.336-5.12-1.15-5.909-.533-10.847-2.683z" fill="#311d00"/>
  <path d="M216.272 69.334c.674 2.979-1.484 4.588-3.617 2.123-.902-1.027-1.324-1.974-1.7-3.195l-.058-.183c-.366-1.563-.182-2.853-.182-2.853a9.386 9.386 0 0 1-1.45-1.609 3.82 3.82 0 0 1-.297-.365 6.99 6.99 0 0 1-1.015-2.054l-.102-.422c-.013-.057-.013-.092-.013-.092a9.143 9.143 0 0 1-.113-1.335c0-.776.147-1.266.331-1.563l.01-.011a.867.867 0 0 1 .194-.24c.012-.023.036-.023.046-.034a.878.878 0 0 1 .115-.092c.558-.353 1.266-.17 1.266-.17 1.872.25 4.03 2.932 4.03 6.766 0 .16 0 .308-.012.468 1.14 1.141 1.973 2.225 2.567 4.861zM66.062 207.697c-.296.218-.673.49-1.039.753-4.53 3.252-15.154 7.212-24.603 8.102-9.596 1.552-14.95-5.192-13.09-10.327l-.524-1.3c-.514-1.234-6.663-13.786-5.98-19.218 5.078 9.311 9.542 15.245 10.92 16.638.048.216.093.434.16.639-.112 1.346.183 5.375 8.057 3.902-2.396 4.61-11.33 2.066-9.596-4.05-1.302-1.62-4.451-6.734-4.451-6.734-.136.035.15 1.518.125 1.415a1996.49 1996.49 0 0 0 2.91 6.027c-1.414 8.957 11.457 9.642 12.381 3.057.024-.011.046-.011.07-.023.672-.125.672-.022 1.129-.262-.56 2.694-1.848 4.154-3.367 4.93-2.76 1.392-3.56 3.845.628 3.537 4.256-.296 11.81-1.506 20.747-5.843l1.882-1.025c-3.777-2.387-7.749-2.786-10.465-2.98-2.122-.148-5.523.422-7.987.924.147-.057.296-.091.456-.148 10.247-3.378 16.546-1.255 21.636 1.986zm155.495-149-1.724.686c-.297-.617-.81-.936-1.609-1.085a6.275 6.275 0 0 0-.731-.102C154.866-53.706-38.046 8.315 8.379 156.402a163.461 163.461 0 0 0 11.126 26.806c-.33 1.335-.81 3.845-.035 7.189 1.255 4.747 2.317 7.657 6.127 16.067-1.54 5.684 3.778 14.059 16.685 11.571 15.348-2.373 23.381-7.942 25.23-9.369.525.366 1.05.742 1.552 1.119 27.216 21.248 71.746 22.937 88.176-2.214 6.572 1.358 14.743.252 14.743.252 8.513-.56 15.371-2.842 20.735-6.392a56.794 56.794 0 0 1-1.872-3.252c-6.857 4.645-16.775 7.122-30.696 5.991l-.89-.114c2.213-4.393 3.664-9.482 4.153-15.28-1.027-.17-2.088-.352-3.194-.536.137 3.903-.24 8.056-1.701 12.153-.788 2.25-1.726 4.219-3.243 6.377 0 0-.158.264-.145.264-3.345 4.964-7.784 8.718-12.93 11.4-20.077 10.473-50.947 4.773-69.724-8.336a60.95 60.95 0 0 1-1.474-1.055c-7.992-5.957-13.496-7.317-20.057-6.321-2.187.332-4.491.925-7.045 1.699-11.274 3.412-10.841-3.127-10.841-3.127-9.45-13.465-18.156-27.832-25.596-54.923C-2.261 107.444 5.24 74.853 22.4 50.59c.054-.075.104-.152.158-.227.115-.163.236-.322.352-.485C37.214 30.008 58.03 15.807 81.126 8.395c16.463-2.8 31.75-1.856 45.517 1.636.097.025.196.045.292.069.159.04.314.09.472.13 13.649 3.572 25.787 9.64 36.067 17.047 12.48 8.993 22.224 19.95 28.616 30.77-.141.078-.259.179-.388.27a3.307 3.307 0 0 0-.617.57c-.078.094-.172.174-.239.278-.269.42-.433.884-.534 1.368-.203.981-.11 2.044.099 3.01a15.15 15.15 0 0 0 .828 2.583c.107.255.188.436.213.502a14334.764 14334.764 0 0 0 4.097 11.8c.626-.126 1.243-.252 1.87-.377l-4.621-12.804c-1.825-4.336.218-5.945.218-5.945-.538 1.609-.08 3.469.215 4.439.595 1.894 2.614 7.44 4.304 11.72.318.844.616 1.643.877 2.407.503-.103 1.004-.194 1.508-.297-1.427-4.302-3.39-9.357-4.007-11.035-.512-1.403-.74-1.928-1.392-4.188-.878-3.058.32-3.115 1.609-3.23.743-.056 2.955-.01 3.537 0 1.337-.718 4.177-2.144 5.901-3-20.575-34.771-61.826-58.04-115.896-50.12 42.667-10.384 91.109 1.895 120.255 43.456 1.553 2.579 2.864 4.005 5.205 8.661-.321 0-.686 0-1.039-.011-1.62-2.283-3.265-3.024-5.283-3.059-.103 0-3.984 0-3.47 3.937.138 1.221.663 2.682.97 3.367l.035-.012 2.887 6.094.765 1.61 2.794 5.637s2.077 4.12 2.192 6.31l7.496.149s.116-2.306-1.493-6.391c-1.166-2.933-4.646-13.728-5.798-15.873a.422.422 0 0 1-.057-.103c.364 0 1.86.023 2.692.217 1.472 3.754 3.618 10.19 5.25 15.245 0 0 1.895.092 1.882.057.64.057 3.219.274 4.143.457l-7.542-17.049" fill="#311d00"/>
  <path d="M118.243 2.51a122.815 122.815 0 0 0-28.569 3.488c54.075-7.914 95.322 15.352 115.898 50.126-1.72.854-4.568 2.28-5.898 2.997-.59-.014-2.802-.059-3.539.003-1.288.106-2.489.17-1.615 3.226.65 2.26.887 2.791 1.399 4.194.608 1.674 2.572 6.731 4.001 11.035-.503.093-1.005.192-1.51.288a55.705 55.705 0 0 0-.88-2.403c-1.678-4.277-3.703-9.828-4.298-11.717-.3-.973-.754-2.834-.21-4.443 0 0-2.044 1.61-.22 5.95l4.618 12.802c-.624.12-1.246.246-1.868.37-14.012 2.811-27.723 6.52-35.427 9.747 0 0-5.768 2.086-9.858 5.423-.153.125-.222.232-.237.324-1.165.34-2.29 1.128-3.045 2.15-.575.452-1.9 1.516-2.487 2.18-1.62 1.87-3.04 3.522-4.85 6.01-1.58 2.354-7.26 11.344-12.33 19.552-.433.162-.86.387-1.262.703-1.333 1.052-2.207 2.874-1.88 4.756-4.107 6.661-6.525 10.525-7.527 12.131-2.263.17-3.405 1.95-3.52 2.178-.992 1.988-5.307 9.067-6.085 9.848-.458.457-1.486 2.353-1.041 4.515l-.384.762s-9.498 14.161-9.483 14.135c-.817 1.155-.943 2.45-.366 3.674.783 1.65 2.734 2.888 4.753 3.026 1.091.072 2.078-.202 2.862-.764a993360.633 993360.633 0 0 1 52.892 8.81l3.945.656c1.1.185 2.169.363 3.193.533-.495 5.803-1.939 10.885-4.147 15.279l.883.118c13.92 1.132 23.836-1.344 30.7-5.996a50.213 50.213 0 0 0 1.874 3.264c6.678 10.648 16.88 17.72 30.224 21.252 13.705 3.617 29.26 3.261 44.247-1.134 1.79.914 3.501.356 4.679-.25.34-.178.642-.398.916-.647 16.198-3.692 18.96-5.036 19.95-5.944.117-.066.22-.136.326-.205 4.405-2.585 4.184-9.695 4.167-10.032-1.368-18.56-5.539-37.065-12.559-56.721l-.851-2.037c-1.777-4.624-4.99-5.503-10.058-4.868l-4.398.481c-8.937.798-23.368 2.32-35.322.232l-16.314-38.71c-.146.004-.28.019-.42.027-.33.018-.646.049-.949.092 4.434 10.516 19.014 45.047 19.014 45.047-2.8.504-5.874.713-5.874.713l-18.42-43.189c-.464.464-.769.87-.932 1.117-.101.15-.156.247-.156.247l13.066 31.16c-.78-.403-1.512-.84-1.985-1.258-3.265-2.007-10.687-7.415-16.964-16.793 0 0-.037.144-.093.39-.073.314-.18.815-.302 1.48 8.689 13.354 20.384 18.353 20.384 18.353l2.896 7.1c-11.609-3.372-21.321-13.905-24.028-17.057 0 .288.004.577.01.872.005.253.01.504.02.762 6.582 8.327 15.202 14.25 24.367 17.375a954.435 954.435 0 0 1-21.29 2.47c-1.341.14-2.663.274-3.966.403a70.33 70.33 0 0 0-3.257-9.723c-6.564-15.529-24.49-8.428-23.233.925l-15.17-33.489c1.592-1.741 4.836-5.037 10.067-8.39-3.652 1.616-6.546 4.162-6.546 4.162a40.742 40.742 0 0 0-3.893 3.41l-.915-2.021c-1.065-2.347-2.007-4.426-2.794-6.164 2.674-1.722 5.401-3.486 8.835-4.727 9.952-4.048 21.449-6.804 32.453-9.106.615-.13 1.226-.254 1.837-.38.337 5.49-2.444 7.585-7.226 8.578-3.117.643-5.655.752-6.944 1.184l2.967.104c.148.018 3.426-.024 7.983-1.57 2.987-1.113 5.236-3.12 4.278-8.516.512-.104 1.026-.212 1.531-.314.812 5.129.059 10.088-9.888 11.05 1.7 1.171 17.187-1.699 26.51.437.225.103 4.131 1.448-.33 3.4 8.645-1.924 9.122-10.544 7.48-16.946l.355.042c1.604.115 2.99.32 4.093.522.004.007.01.014.013.021.833.089 1.84.203 2.879.338 6.442.645 5.85-6.972 2.467-7.953-2.58-.753-3.239-.772-3.887-.882l-.907-.104-8.04-17.915 4.454-2.061 11.494 20.748c5.34 8.473-3.512 11.967-8.388 9.415-.642.328-1.114.644-1.496.991 1.372.93 3.11 1.46 5.006 1.46 3.232 0 6.055-1.474 7.365-3.848.956-1.733 1.54-4.683-1.061-8.807l-12.217-22.05-9.76 4.307c.798.154 1.311.471 1.61 1.088l1.721-.69 7.55 17.056c-.934-.188-3.512-.403-4.148-.454.01.03-1.877-.065-1.877-.065-1.64-5.055-3.784-11.485-5.251-15.248-.838-.186-2.326-.21-2.7-.214.02.039.041.069.063.109 1.146 2.14 4.634 12.931 5.795 15.872 1.607 4.086 1.497 6.381 1.497 6.381l-7.503-.141c-.115-2.191-2.192-6.31-2.192-6.31l-2.788-5.637-.763-1.612-2.897-6.096-.024.009c-.313-.683-.835-2.145-.98-3.362-.504-3.942 3.375-3.942 3.479-3.94 2.01.037 3.655.779 5.276 3.062.36.006.716.012 1.039.015-2.339-4.658-3.654-6.09-5.202-8.67-22.768-32.462-57.315-47.057-91.686-46.94zm91.024 54.683a1.56 1.56 0 0 0-.842.218.873.873 0 0 0-.115.091c-.01.012-.034.012-.046.035a.866.866 0 0 0-.194.24l-.01.01c-.184.297-.331.788-.331 1.564 0 .366.034.81.113 1.336 0 0 0 .033.012.09.022.092.057.24.103.423a6.991 6.991 0 0 0 1.014 2.054c.081.114.173.228.297.365.355.502.81 1.038 1.45 1.609 0 0-.183 1.29.183 2.853l.057.182c.376 1.221.8 2.169 1.7 3.196 2.133 2.465 4.291.856 3.618-2.123-.594-2.636-1.427-3.72-2.568-4.861.012-.16.012-.308.012-.468 0-3.834-2.157-6.516-4.03-6.767 0 0-.176-.046-.423-.047zm-5.024.693c-.107.214-.081.727-.081.727-.044.678-.017 1.021.708 2.984 1.136 3.074 7.08 15.404 7.768 17.2 3.438 8.922-5.443 10.575-6.367 6.63 9.448-.717 5.612-10.606.251-9.207-2.043-5.054-3.658-10.105-3.658-10.105s-2.093-5.482-.699-7.15l1.925-1.003s.16-.104.153-.076zm4.398 1.203c2.567.034 3.31 3.765 2.512 5.043-1.096-.707-2.762-3.092-2.512-5.043zm-7.994.594c-.796 2.57.717 6.538.717 6.538l3.68 10.283-1.929.359s-2.395-6.605-3.901-11.176c-1.147-3.48-.326-5.168-.326-5.168zm11.076 6.675c2.019.422 3.264 2.943 2.077 4.746-1.29-1.278-1.951-2.692-2.077-4.746zm10.804 10.319c2.984.289 10.62 1.17 12.204 1.7l.073.026.07.01c1.128.163 1.796 1.62 1.687 2.825-.064.649-.453 2.122-2.677 2.122-2.01-.443-7.278-.944-9.971-1.202 0-2.255-1.386-5.48-1.386-5.48zm-15.353 1.319c1.664-.065 3.004 1.112 3.189 2.34.168 1.165-.425 2.525-2.656 2.88l-1.036.206c-13.665 2.734-29.141 5.83-42.083 11.091-4.073 1.47-6.245 2.705-8.527 4.438 0 0-1.259-2.73-1.713-3.526-.72-1.277-.818-1.404-1.42-1.743 1.868-1.258 4.294-2.445 7.58-3.818 9.515-3.99 29.26-9.085 46.33-11.839a3.43 3.43 0 0 1 .337-.03zm7.436 6.57s4.513 0 6.807.037c0 0-1.69 3.187-8.85 2.685 0 0 1.939-1.32 2.043-2.721zm-63.318 10.816c.69.007 1.321.22 1.354.275l26.189 57.98s-3.62.164-6.451-.428c-11.157-24.407-24.224-53.006-24.24-53.039-.543-.97-.534-1.93.016-2.866.73-1.217 2.167-1.94 3.132-1.924zm-5.031 2.907s-.113 1.42.64 2.942c.61 1.216 1.842 4.269 1.842 4.269.206-.2-2.757 3.483-4.41 6.078l-9.96 16.345-2.681-2.943s-1.145-1.374-2.22-1.374c5.214-8.46 9.966-15.979 11.58-18.397 1.697-2.787 5.744-7.558 5.209-6.92zm60.757 8.42c-8.998 1.09-11.504 23.65-6.411 29.278-1.857-8.64.113-24.694 6.411-29.278zm-57.58.218 3.575 7.879 1.042 2.296c-4.694 8.798-4.627 18.614-2.813 27.936-.154-.119-.306-.233-.461-.354a176.24 176.24 0 0 1-1.815-1.725c-4.195-4.032-9.797-9.727-13.56-13.74 5.29-8.552 10.385-16.7 10.385-16.692a360.873 360.873 0 0 1 3.648-5.6zm5.518 12.162 15.482 34.124c-7.156-.806-11.81-2.894-16.72-6.344-1.799-9.313-2.317-18.795 1.238-27.78zm-26.102 6.165c.657-.024 1.326.179 1.806.738 2.052 2.742 13.783 14.87 19.578 20.29 6.43 5.014 11.054 7.633 20.029 8.646 4.86.578 10.595.497 10.88.505 11.826.3 54.929-4.973 67.6-7.471 1.608-.214 2.572-.593 2.572-.593l-.025-.244.074-.534c.023-.186.752-.77 1.363-1.046 1.161-.534 2.717-.545 4.017.518 9.037 16.66 17.966 47.602 15.9 70.978-.114 1.24-.616 2.246-1.568 2.73 0 0-2.069.936-4.16-.136 0 0 .08.17-2.172.924-13.904 3.578-28.81 3.789-41.36.47-11.391-3.008-24.866-9.612-32.345-26.177 0 0-.957-1.801-1.17-2.663 0 0 3.822.073 6.33-.135 11.608 24.872 41.534 29.505 67.179 22.94 0 0 2.344-.403 3.003-1.112.534-1.232.477-4.405.477-4.405-.033-.723-.625-16.037-3.45-26.226-.25-1.072-.592-1.737-.865-1.988 0 0-.772-.325-1.323-.34-1.373-.051-3.173.33-3.173.33-15.82 3.765-40.287 6.89-59.597 8.844-.035 0-1.515.229-4.126.338l-2.085.06c-3.664.039-8.859-.187-15.403-1.225 0 0-72.04-11.723-71.742-11.73l3.853-5.277s69.35 11.392 69.364 11.392c10.571 1.584 15.487.823 15.617.795 18.69-1.039 53.243-6.163 61.594-8.388 0 0 4.52-1.07 5.09-1.647.37-.373-.563-3.764-.563-3.764-.038-.112-3.424-11.184-5.119-15.451l.025.089c-.041-.174-.777-2.542-1.55-2.9l-.564.01s-.999.194-2.216.47c-16.285 2.96-46.032 7.117-63.514 8.173 1.51-.095-7.074.304-13.749-.158-9.502-.534-20.048-2.894-30.536-14.279-.114-.114-11.717-11.17-16.388-16.29-1.166-1.654-.546-3.48.678-4.442.432-.345 1.076-.595 1.733-.62zm-4.002 5.988c1.72 2.367 4.47 4.851 4.47 4.851l-6.913 10.962c-.93.736-2.884-.019-4.105-1.194-.28-.27-1.619-1.655-.813-2.621l.04-.05.032-.057c.106-.17 1.604-2.662 7.29-11.891zm5.757 5.847c5.089 5.088 10.944 10.668 10.994 10.72 3.476 3.77 7.018 6.547 10.55 8.61.838.488 1.673.927 2.507 1.34 2.255 6.89 4.716 12.988 5.782 17.49-.864-5.241-2.425-10.847-3.95-16.64 6.03 2.6 11.939 3.4 17.338 3.705l.757.045.358.79c-2.143 5.703-6.126 11.815-11.289 15.54.017.299.032.599.043.901l-4.689-.748-3.644-.58-1.76-.28-44.578-7.1 4.298-6.358c5.579 3.332 13.49 8.246 13.49 8.246 5.456 3.471 9.656-1.518 10.987-3.286 1.03-1.38 4.2-5.645 4.097-9.302-.115-3.553-2.834-5.456-5.266-7.06l-11.333-7.437c1.046-1.696 2.738-4.437 5.31-8.595zm146.4 4.947c1.178-.016 4.477.535 6.166 6.88 7.555 21.185 13.418 50.203 11.738 60.239 0-1.29-2.003-3.694-5.44-4.405 0 0 .068-1.323-.036-2.938-.86-8.745-4.008-24.65-4.008-24.65 4.867-1.577 4.438-11.539-3.87-11.475-2-9.027-4.906-16.225-4.906-16.225 4.517-2.473 2.4-6.634-.074-7.387 0 0 .159-.034.43-.038zm-2.27.984c1.542.262 2.208 1.173 2.391 2.42a2.487 2.487 0 0 1-2.116 2.619l-.707.154c-1.763.549-5.29 1.38-8.815 2.042-2.187.42-4.206.806-4.025.701-.463-1.022-.786-2.078-2.126-4.682 3.878-.665 8.857-1.664 12.305-2.677 1.073-.324 3.094-.577 3.094-.577zm-7.57.026c-1.615.646-9.136 1.604-9.136 1.604-1.01-.823-2.02-.938-2.285-.955 2.872.203 11.421-.65 11.421-.65zm-32.153.545c9.344 1.287 16.36.533 16.36.533-1.606.211-1.716 1.72-1.716 1.72-3.87.966-12.811 1.939-12.811 1.939zm-119.701.167c-.183 3.261 4.813 5.884 7.178 5.241l12.644 8.463c1.9 1.362 3.764 3.697 2.653 6.856-.16-2.955-3.83-5.294-3.83-5.294s-13.589-8.003-17.756-10.614c-2.386-1.496-2.145-3.565-.89-4.652zm9.49 3.496c4.357 2.806 10.088 6.564 12.563 8.447 4.438 3.365 2.038 7.413 2.038 7.413.446-2.433-.656-4.858-3.49-6.774-2.477-1.664-12.137-8.095-12.137-8.095zm-11.555.132c.543 1.185 2.202 2.149 2.202 2.149 4.203 2.637 13.05 7.99 15.596 9.403 2.739 1.525 3.288 2.253 3.288 2.253 3.173 3.018 2.57 6.012 1.023 8.106-1.759 2.36-5.13 3.863-7.94 1.997l-3.815-2.354.005-.01-1.38-.834-11.855-7.27-.03-.023-.04-.022c-.018-.01-1.976-.918-2.47-2.743-.331-1.228.06-2.628 1.157-4.176 2.505-3.523 3.722-5.54 4.259-6.476zm161.657 2.416c1.273 2.952 3.296 9.282 3.838 11.536l1.216 4.987c-3.923.915-8.235 1.542-12.555 1.964-1.686-5.643-3.58-10.964-5.591-15.672 9.726-1.361 12.756-2.803 12.756-2.803.002-.003.004-.006.008-.008zm-23.53 4.4c.318.003.604.07.857.2.783.412 1.071 1.345 1.071 1.345l.015.051.02.038c1.211 3.06 3.411 9.628 4.56 13.093-4.668.187-8.951.193-12.264.14l-5.462-12.962c3.67-.578 7.065-1.149 10.04-1.688l.057-.017.056-.015a3.23 3.23 0 0 1 1.05-.185zm-128.987 2.127a7.41 7.41 0 0 0-.38.003h-.03l-.027.008c-3.304.23-4.075 2.015-4.453 3.044 0 0-.848 2.272.403 4.228.02.031 1.62 3.202 5.85 2.545 0 0 .194.553.603 1.314l.003-.007c.36.663.964 1.286 1.642 1.696 4.983 2.96 7.724-.811 7.75-.844.023-.033 2.29-2.995-1.02-6.247-.087-.082-2.11-1.881-4.862-1.541-.28-1.101-1.639-4.134-5.479-4.2zm116.265.226c3.646 10.152 8.31 19.42 8.31 19.42-.965.43-5.683 1.11-5.683 1.11-1.13-2.142-8.28-19.638-8.28-19.638.852-.105 5.653-.893 5.653-.893zm-116.894.69c.138-.004.285-.003.44.005-.527.82-.725 2.054-.799 3.302-.257-.213-.46-.22-.713-.494l-.005.898c.163.292.424.381.752.602.01.787.045 1.386.193 1.913-.17-.055-.267-.2-.445-.281-2.579-1.453-1.72-4.989-1.72-4.989.728-.612 1.327-.927 2.297-.956zm2.005.16c1.845.585 3.189 2.208 3.097 3.87l.213.02c-.153 1.213-1.429 2.86-4.027 2.46-.136-.527-.148-1.052-.178-1.63a3.74 3.74 0 0 0 1.412.204c-.015-.237.05-.754.05-.754-.518-.042-.975-.211-1.475-.433.047-1.402.344-2.684.908-3.737zm107.425.056c1.628 3.878 3.168 7.554 4.545 10.838l-27.732-4.85.023.493c.014.295.027.592.037.892l28.152 4.832c.536 1.543 2.552 6.1 2.552 6.1l-30.643-5.21c-.003.31-.009.63-.013.954-.003.152-.005.296-.006.45l30.233 5.139c-10.09 1.718-20.562 3.316-31.798 4.507-1.354.144-2.718.28-4.096.412 2.025-6.62 2.246-14.005 1.34-21.124a777.26 777.26 0 0 0 3.906-.423 759.355 759.355 0 0 0 23.5-3.01zm-112.676 1.88c-.428 5.37 4.472 6.151 7.222 5.137.598 4.35 4.383 4.462 6.211 4.17-2.29 1.453-6.703.477-7.521-3.61-3.462 1.056-7.38-1.736-5.912-5.697zm-11.84.594c.568 1.09 5.1 3.806 5.1 3.806-1.903 2.815-8.684 12.906-8.693 12.916-.629.962-1.62 1.11-2.34 1.062-1.381-.087-2.802-.973-3.31-2.046-.313-.647-.241-1.306.221-1.963zm21.436 1.442c3.721-.11 6.628 3.61 4.76 6.34l-.678.112c-3.243.422-5.07-.86-5.612-3.757.504-.365 1.335-1.363 1.53-2.695zm47.93 1.154c3.713.426 6.515.033 6.515.033l9.485 20.386s-2.402.47-6.484.147c-1.93-3.653-4.063-8.624-9.516-20.566zm106.451 4.854c1.639.055 3.438.675 4.084 2.935 0 0 1.282 3.9-2.046 5.297 0 0-2.465 1.258-13.856 3.294 0 0-.927-3.548-1.355-5.37 0 0 9.63-2.005 13.385-3.41 0 0-.072-1.248-1.931-1.214 0 0-9.773 2.472-12.032 2.686l-.534-1.502s8.371-1.612 11.17-2.263c0 0 1.477-.509 3.115-.454zm-36.269 3.21c7.196.114 12.387.043 12.387.043.862 3.187-2.108 3.301-2.108 3.301l-8.13 1.605zm37.564 6.976.198 1.077c1.3 7.036 3.272 17.68 4.015 24.193a6.077 6.077 0 0 1-.107 1.615c-1.24-.25-2.201-.313-2.408-.323-3.981-.632-7.88-1.8-11.59-3.412-.64-6.607-1.78-13.43-3.269-20.089 3.73-.687 10.634-2.419 13.16-3.061zm-22.909 4.748c.314-.017.464.086.524.13.422.3.582 1.078.6 1.32l.008.092.022.082c.855 3.034 1.516 7.085 2.012 11.1-4.259-3.118-8.004-6.86-10.98-11.046a214.071 214.071 0 0 0 7.442-1.614c.145-.04.268-.059.373-.064zm-9.643 2.183c5.152 7.737 13.427 13.326 13.427 13.326.212 1.94.389 6.889.389 6.889-12.993-6.35-19.868-18.918-19.868-18.918 1.185-.219 6.052-1.297 6.052-1.297zm-123.272.559c-5.395.021-5.84 5.773-4.544 6.994-.668-2.013.603-5.859 4.438-5.708 3.692.16 4.836 3.987 3.437 6.994 3.222-3.332.53-8.288-3.331-8.28zm-107.131.65c-.682 5.43 5.466 17.981 5.974 19.217l.526 1.298c-1.857 5.14 3.49 11.877 13.095 10.328 9.45-.892 20.065-4.852 24.595-8.105.367-.258.75-.535 1.043-.751-5.084-3.243-11.388-5.362-21.634-1.982-.16.052-.306.095-.46.144 2.462-.496 5.867-1.065 7.992-.918 2.712.197 6.69.588 10.465 2.975l-1.891 1.029c-8.934 4.336-16.48 5.545-20.744 5.844-4.19.301-3.381-2.149-.623-3.542 1.52-.773 2.802-2.24 3.362-4.927-.458.235-.458.138-1.127.263-.025.007-.05.011-.074.017-.917 6.586-13.795 5.907-12.37-3.06 0 0-1.854-3.805-2.915-6.014.022.091-.265-1.387-.121-1.418 0 0 3.15 5.106 4.447 6.725-1.738 6.118 7.2 8.668 9.599 4.062-7.881 1.467-8.175-2.563-8.062-3.913-.065-.198-.111-.418-.161-.633-1.374-1.397-5.835-7.327-10.916-16.64zm222.56.078c5.788 10.399 13.7 17.19 21.743 20.889.154 2.23.221 3.662.223 3.7-.006 1.867-1.052 2.538-1.207 2.633-23.729 6.43-51.944 3.164-64.666-17.581-.449-.73-.883-1.481-1.291-2.256l-.613-1.215c1-.11 1.57-.207 1.57-.207 1.058-.108 2.145-.223 3.243-.34 12.723-1.366 27.886-3.37 40.996-5.623zm-115.822 1.405c-.828.006-1.646.286-2.24.805-.69.703-.129 1.142.412.81 1.208-.81 3.307-.374 4.142.559.449.69 1.068.1.487-.771-.65-.967-1.735-1.411-2.8-1.403zm-.25 2.19c-1.787 0-3.23 1.468-3.23 3.269 0 1.81 1.443 3.27 3.23 3.27 1.78 0 3.227-1.46 3.227-3.27 0-1.8-1.447-3.268-3.227-3.268zm-.029.666a2.578 2.578 0 1 1 0 5.158 2.58 2.58 0 1 1 0-5.158zm-1.8 2.48c-.042.007-.08.061-.107.186-.19 1.478 2.619 3.014 3.85.585 0 0 .005-.596-.3-.162-.593.86-2.551.773-3.256-.338-.044-.159-.12-.282-.188-.27zm-49.138.673c-1.398-.078-2.72.722-3.434 2.912 3.042-4.769 10.753 1.234 6.79 6.389 4.294-3.161.219-9.1-3.356-9.3zm.127 2.119c-.622.025-.753.934-.123 1.056.71.136 1.982 1.217 2.372 2.06.344.73 1.188.071.394-1.233-.305-.504-1.546-1.558-2.347-1.835a.808.808 0 0 0-.296-.048zm-2.071 1.54c-.585.014-1.123.208-1.533.593-1.09 1.039-.852 3.06.534 4.519 1.386 1.462 3.393 1.81 4.48.77 1.089-1.029.852-3.055-.535-4.518-.865-.914-1.971-1.388-2.946-1.365zm-.085.586c.858-.049 1.855.46 2.536 1.24.805.924 1.496 2.955.458 3.743-.908.67-2.437.12-3.56-.91-1.212-1.111-1.31-2.823-.478-3.633.291-.28.653-.418 1.044-.44zm-.239 1.141c-.172.047-.37.32-.37.32-.685.998.979 3.253 2.836 3.076.556-.1.47-.505.203-.57-1.107-.291-2.274-1.453-2.438-2.557-.035-.243-.128-.297-.231-.269zm200.428 4.19c4.937 2.15 5.727 1.533 10.846 2.682 5.255 1.187 2.681 3.336 2.681 3.336-2.681 3.334-12.56 4.731-12.56 4.731 16.54-2.153 15.03-6.661 15.03-6.661 6.767 4.405.104 7.522-3.325 8.485-3.044.863-12.892 3.448-12.892 3.448.535-2.369.43-6.132.43-6.132 19.016-4.082.963-5.8.963-5.8 4.197 1.29 4.081 2.787 4.081 2.787-1.825.109-5.043-.858-5.043-.858.104-1.182-.211-6.018-.211-6.018z" fill="#fff"/>
</svg>