<svg xmlns="http://www.w3.org/2000/svg" xml:space="preserve" height="100.84" width="158.17" viewBox="0 0 158.168 100.937">
  <path d="M152.503 44.586c-1.34-1.205-2.435-1.87-2.78-2.165-1.98-1.58-.32-.32-2.22-1.55-1.365-.855-1.74-1.55-3.13-2.325-2.49-1.42-2.755-1.82-4.76-4.225-1.74-3.185-4.44-3.64-7.15-4.255-2.62-.59-4.495-2.675-4.95-3.395-1.39-2.275-3.665-3.37-4.87-4.04-3.72-2.035-8-1.685-11.35-4.68-5.05-3.585-6.4-2.915-11.7-3.075-2.94-.08-6.75-1.955-8-2.995-1.045-.885-2.275-1.445-3.345-1.79-3.745-1.15-6.3.83-11.55-1.71-1.525-.75-2.915-1.765-4.415-2.65-.5-.385-1-.65-2.5-.97-3-.59-5.5-.215-8.5.08-2 .13-2.5-.7-4-1.475-1.5-.72-3-1.255-4.5-1.575-2.45-.43-5.05-.135-7.7.4-5.25 1.045-10-1.605-15.1-1.125-.85.08-2.5 1.15-3.1 2.355-.75 1.605-.75 2.54-.64 4.145.161 2.165.401 2.325.83 3.72.91 3.05 1.39 4.71 2.115 6.75.855 2.38.83 5.3-1.205 6.25-.965.455-2.595.455-3.505-.24-1.42-1.096-2.195-2.596-3.8-2.916-2.14-.428-4.71 1.765-7 2.38-2.275.59-2.57-.64-4.145-1.365-1.045-.481-2.06.214-2.65.56-1.07.59-1.31 1.82-1.58 3.13-.187 1.045-.294 2.005-.026 3.155.374 1.66.935 2.65.965 3.8.107 2.89-.375 5.05-1.55 6.55-.75.965-1.765 3.665-2.06 4.655-1.045 3.315-.935 2.755-1.445 5.85-.268 1.58-.214 3.345-.348 4.815-.027.268.187 3.61.348 4.63.4 2.49.855 4.065 1.39 6.15.75 3.025 1.07 4.895.99 7.2-.08 2.38-1.58 4.63-.16 6.3.884 1.045 3.21 1.98 5.1 1.15 1.924-.855 3.314-1.845 4.814-2.06 2.755-.374 4.55.8 5.75.67 1.07-.134 2.915-1.175 3.8-1.255.695-.053 2.22-.134 2.755.268.855.64 1.365 1.34 1.23 3.505 0 .027-.51 2.325-.51 2.355-.885 2.86-1.82 5.55-2.275 7.5-.481 2.06-2.73 6.55 1.845 8.35 1.925.775 3.96.615 6.5-.027 1.285-.321 1.82-.374 3.025-.59 0-.08 1.79-.053 1.79-.134l1.605-.08c2.835-.321 3.505-.134 6 .214 2.355.294 4.6.75 6.95.482 1.175-.134 2.325-.348 3.45-.72 3.265-1.045 4.79-2.46 8.7-2.995 3.265-.455 3.265.107 6.15-.027 2.995-.134 4.655-1.42 5.9-2.115 1.525-.83 1.925-.91 2.94-1.445 3.69-1.98 8.05-1.74 12.2-2.755 2.915-.72 4.065-2.085 7.35-2.97 1.31-.348 2.73-.321 4.12-.51 1.07-.16 2.94-1.095 3.985-2.06 1.79-1.66 1.605-1.74 2.995-2.515 2.325-1.31 4.975-1.285 7.35-2.38 2.195-1.015 4.44-1.87 6.15-3.61 2.515-2.54 6.5-3.265 9.75-4.44 1.925-.695 4.465-1.955 6.6-5.6 2.085-3.585 3.93-4.12 7.6-5.2 2.46-.75 3.53-1.255 5.45-3.05 1.71-1.605 2.325-2.65 3.105-3.77.885-1.285 2.595-3.425.775-5.05-.8-.72-1.63-2.035-3.345-3.37"/>
  <path fill="#fff" d="M150.008 47.686c-2.14-1.525-2.325-1.79-3.45-2.54-2.89-1.925-3.45-2.355-4.87-3.985-1.39-1.58-1.765-2.115-3.345-2.97-.59-.348-4.575-1.71-3.85-1.58-3.64-.64-3.77-1.42-5.2-2.755-1.205-1.74-2.62-3.825-3.85-4.63.482.294-2.22-1.47-2.195-1.42-2.06-.72-2.78-.535-5.4-.64.08 0-2.835-.4-3.585-.75-1.34-.59-2.06-1.285-2.97-1.98-2.035-1.525-1.47-1.175-3.48-2.65-2.73-1.98-3.075-1.5-6.55-1.845-2.94-.294-5.05-.99-7.35-2.65-4.095-2.97-8.1-1.925-10.6-2.3-3.61-.535-6.15-2.005-7.5-2.86-2.915-1.845-2.245-.99-5.35-2.435-3.72-1.765-7.2 1.175-11.55-.053-2.3-.64-3.155-1.845-4.63-2.38-4.45-1.3-5.95-.6-9.55-.55-4.3 0-8.15-1.15-12.25-1.1-1.15 0-2.035.965-1.87 2.275l.054 1.605c.214 1.31.695 2.7 1.095 4.145.51 1.765.775 2.355 1.5 5.15.267 2.245 0 2.86-.16 3.825-.135.775-.64 2.3-1.016 2.86-.428.64-.99.885-1.74 1.34-1.285.775-2.62 1.125-4.01 1.095-1.445-.054-1.07-.054-3.345-.885-.83-.321-2.54-1.285-4.255-.56-3.29 1.39-3.665.24-5.45.374-.535.027-1.07.294-1.58.535-.83.348-1.205.885-1.74 1.98-.32.67-.56 1.765-.428 2.755-.187 0 .321 1.55.321 1.605.401 2.115.51 3.77-.294 5.65-.775 1.765-.99 2.38-1.98 3.825-.965 1.39-2.65 5.4-2.78 9.1.134-.134-.026 4.385.51 7.05.59 2.94 1.445 3.185 1.63 8.05.08 1.845-.107 3.45-.16 5.1-.027 1.07.321 2.57 1.66 2.355 1.925-.294 4.095-1.365 5.6-1.42.75-.026 2.035.214 2.57.375 3.05 1.07 2.035.267 6.8-.56 1.58-.294 3.77.053 4.63.56 2.81 1.63 2.57 5.2 1.765 8.75-.134.56-.83 4.28-.99 4.84-.482 1.87-.428 1.98-.67 3.985-.107.965-.054 1.71.481 2.595.455.72.965 1.23 1.66 1.23 3.105.08 4.815 0 8-.56 4.12-.75 6.2-.75 9.05-.482 2.915.268 7.05.187 8.75-.455 1.55-.56 3.61-1.765 5.25-2.115 5.4-1.15 5.6-.615 10-1.175 3.505-.455 5.3-2.22 7.1-3.155 2.46-1.31 4.63-1.765 7.45-1.765 1.66 0 4.04-.56 5.2-1.095 4.655-2.115 2.915-1.98 9.4-3.185 3.29-.615 5.65-3.235 7.7-4.36 1.31-.75 2.46-1.34 3.93-1.79 1.98-.59 4.2-.91 6.1-1.55 3.05-1.07 3.985-2.115 5.65-3.61 1.39-1.255 1.845-1.23 3.395-2.195 1.58-.99 3.88-1.71 4.76-1.98 2.005-.615 4.95-3.985 7.7-6.75 3.235-3.315 6.25-2.755 9.85-4.68 2.195-1.15 3.61-1.925 2.595-4.01-.4-.83-1.5-1.845-2.38-2.46"/>
  <path d="M77.058 64.186c-6.8-5.3-4.87-10.05-2.005-12.25l.855.935-1.445 1.525.107 5.5h19.6l2.515-2.41v-6h-1.5l-6.8-7.3c13.05-2.78 19.45 2.915 23.3 9.2h5.1l2.595-2.515v-14.5h-5.45l-3.265 2.005c-11.5-5.6-20.5-5-29.5-2.05l-1.47-1.5 8.3-4.95 5-.026 2.46-2.325v-4.92h-20L73.34 24.77v3.37L54.59 38.89v-8.25l3.025-3.05v-4.975h-19.65l-2.675 3.13v3.93h3.21v21.25h-.99s-2.62 2.97-2.49 3.025v5.5h20.7l2.06-1.925v-6.6h-3.05V49.24l11.4-6.55.965.99c-2.54 1.79-4.55 3.48-6.05 6.15-2.245 3.72-3.05 8.9-1.74 13.05.855 2.78 1.925 4.465 3.8 6.4 1.79 1.845 3.315 2.915 6.25 4.305 2.41 1.205 8.05 2.915 12.45 3.37 4.255.32 9.6.267 13.1-.187 3.85-.401 7.85-1.79 10.25-2.78 1.925-.935 4.065-1.79 5.7-3.075 4.12-2.97 8.5-7.45 8.55-13.05h-7.7c-2.41 8.6-25.7 12.5-35.05 5.85" stroke="#000" stroke-width=".5"/>
  <path d="m94.869 23.95-18.51.027v3.21h2.166L54.049 41.15V27.214l3.049-.027v-3.21H39.15v3.21h3.049V52.84h-3.05v3.69h17.949v-3.69h-2.915v-4.334l13.91-7.972 11.53 12.28-2.57-.028v3.745h18.619v-3.718h-.589l-16.88-18.216 12.546-7.383 4.12-.054v-3.21zm.1 11.55c-5.815-.04-9.95 1.354-11.95 1.986l4.788 5.243c10.298-2.461 21.344.106 26.186 7.408l4.656-.051.053-12.868h-4.28l-3.049 2.007c-6.342-2.797-11.882-3.695-16.405-3.725zm19.025 14.637-.106.001h.106v-.001zm-45.15-5.135c-4.28 2.916-5.724 5.644-6.66 8.292-.723 2.194-1.74 6.661.32 10.834 2.514 4.333 6.58 6.848 9.31 7.838 4.466 1.872 11.688 3.584 19.874 3.263 5.858-.134 10.967-1.204 15.89-3.665 2.862-1.525 3.45-1.872 6.312-4.52 2.14-2.461 3.878-3.986 4.6-7.784h-4.921c-1.98 3.263-4.708 5.857-10.967 7.703l.053.027c-12.09 3.585-23.727 1.793-28.89-4.574-4.28-4.922-2.274-9.256.455-11.61l-5.38-5.8z" stroke="#e31837" stroke-width=".267267" fill="#e31837"/>
</svg>