<svg xmlns="http://www.w3.org/2000/svg" height="202.57" viewBox="0 0 192.537 202.567" width="192.54">
  <path d="M96.248 201.094c-19.222.086-33.959-5.402-41.014-9.124-13.817-7.254-25.206-16.858-35.007-30.188-14.091-19.109-16.816-34.494-17.941-42.874-.657-4.362-1.442-14.848.03-24.255C3.98 81.08 7.067 74.32 9.273 67.703 10.986 63 16.524 51.68 19.806 46.488c2.794-4.069 7.888-11.566 9.967-14.213.571-.832-.17-.438-.48-.43-.765.186-1.155.233-1.746.186-.438 0-1.322-.147-1.81-.294-2.747-.585-6.666-3.625-6.175-8.92-.1-1.175 1.175-11.267 2.156-14.405 1.272-4.407 3.92-6.466 8.626-6.86 2.35 0 12.245-.196 16.743.505C56.09 2.952 62.681 5.57 66.6 13.51c3.135 6.957 2.06 17.836-2.25 26.165-1.472 2.84-4.416 8.135-6.963 11.563-2.35 3.43-3.332 5.197-5.389 9.017-2.059 4.016-8.919 19.011-11.27 28.81-4.473 18.287-1.959 28.812 6.664 43.122 6.372 9.505 13.82 16.368 19.599 19.503 9.51 5.976 22.492 7.644 29.256 7.644 6.76 0 19.746-1.668 29.252-7.644 5.78-3.135 13.23-9.998 19.597-19.503 8.628-14.31 11.136-24.835 6.666-43.122-2.35-9.798-9.214-24.794-11.27-28.81-2.057-3.82-3.038-5.588-5.391-9.017-2.548-3.428-5.486-8.722-6.957-11.563-4.313-8.33-5.389-19.209-2.25-26.165 3.916-7.939 10.51-10.558 19.512-11.453 4.493-.701 14.393-.505 16.743-.505 4.707.394 7.351 2.453 8.626 6.86.981 3.138 2.253 13.23 2.156 14.405.488 5.294-3.431 8.335-6.178 8.92-.485.147-1.369.294-1.813.294-.584.047-.978 0-1.743-.186-.313-.009-1.048-.402-.482.43 2.079 2.647 7.179 10.144 9.97 14.213 3.284 5.192 8.82 16.512 10.538 21.215 2.203 6.616 5.288 13.377 6.957 26.95 1.469 9.408.685 19.893.025 24.255-1.126 8.38-3.847 23.765-17.941 42.874-9.801 13.329-21.188 22.934-35.008 30.188-7.054 3.722-21.789 9.035-41.011 9.124" fill="#fff"/>
  <path d="M96.136 182.207a2.307 2.307 0 1 0-.001-4.61 2.307 2.307 0 0 0 0 4.61zm-61.387-29.203a2.308 2.308 0 0 0 0-4.615c-1.275 0-2.306 1.034-2.306 2.31s1.031 2.305 2.306 2.305zM21.03 99.695a2.306 2.306 0 0 0 2.307-2.306 2.305 2.305 0 1 0-4.613 0 2.308 2.308 0 0 0 2.306 2.306zm27.05-62.72a2.306 2.306 0 0 0 0-4.613 2.305 2.305 0 1 0 0 4.612zm111.982 113.724c0-1.275-1.034-2.309-2.306-2.309a2.309 2.309 0 0 0 0 4.615 2.306 2.306 0 0 0 2.306-2.306zm13.722-53.309c0-1.277-1.034-2.308-2.309-2.308a2.307 2.307 0 1 0 0 4.615 2.308 2.308 0 0 0 2.31-2.307zm-27.046-62.72a2.308 2.308 0 0 0-4.615 0 2.308 2.308 0 0 0 4.615 0zM53.271 185.506c-12.545-7.445-23.912-16.853-34.888-34.96-4.9-8.942-16.27-27.953-10.665-61.075 6.469-30.284 19.485-45.573 26.93-56.059 3.528-5.095-.095-8.035-2.938-6.957-2.384.903-4.02.962-4.02.962-4.212-.571-3.622-3.313-2.84-10.47l.98-5.878c.88-5.194 3.233-5.097 9.408-4.978 9.8.194 11.56.274 16.858 1.253 7.056 1.568 16.265 8.625 9.013 28.027-4.507 10.389-9.21 13.914-14.31 24.696-5.485 11.958-18.81 38.808-9.798 61.74 12.351 30.772 36.26 41.748 58.996 42.142 22.737-.297 49.002-13.723 59.507-42.142 9.013-22.933-4.313-49.783-9.801-61.74-5.095-10.782-9.798-14.307-14.308-24.696-7.25-19.402 1.963-26.459 9.017-28.027 5.291-.979 7.054-1.06 16.855-1.253 6.172-.12 8.528-.216 9.407 4.978l.984 5.879c.784 7.156 1.37 9.898-2.844 10.469 0 0-1.638-.059-4.019-.962-2.838-1.078-6.469 1.862-2.94 6.957 7.447 10.485 20.463 25.775 26.93 56.059 5.61 33.122-5.763 52.133-10.663 61.075-10.974 18.107-22.34 27.515-34.888 34.96-17.169 11.96-49.312 11.27-43.136 10.881 6.466.491-23.618 1.273-42.826-10.881" fill="#013369"/>
</svg>