<svg xmlns="http://www.w3.org/2000/svg" height="197.98" viewBox="0 0 250 197.97647" width="250"><g transform="matrix(1.25 0 0 -1.25 -258.11 595.22)"><g><path d="m405.74 437.05c-0.0327 0.7411-0.17404 1.1813-0.17404 1.1813l-0.002 0.004c-0.90147 3.1495-4.1178 5.0949-8.4975 5.0949-0.46553 0-0.9393-0.0236-1.4074-0.0705-3.3559-0.33301-9.3236-2.3541-11.095-2.9732-5.5627 1.4057-10.776 2.0899-15.923 2.0899-2.66 0.00026-5.3056-0.18826-7.9446-0.5568l0.004 0.002-1.0886-0.14675s-0.42401 1.3775 0.68421 4.5944c0.57416 1.6682 1.3619 3.2024 1.3619 3.2024s-12.113-6.2961-13.626-4.2864c-1.5126 2.0097 5.261 17.987 5.261 17.987s-11.677-12.975-13.971-12.399c-0.8992 0.22551-0.98507 4.9248-1.0297 9.9819-0.0606 6.8478 0.17773 14.681 0.17773 14.681s-9.6156-23.906-11.962-23.781c-2.0344 0.10778-4.9942 12.868-4.9942 12.868s-1.8567-10.996-5.1941-12.341c-3.3372-1.3448-11.922 19.219-11.922 19.219s-0.39642-20.582-2.7844-21.044c-2.3876-0.46182-9.9893 7.2306-9.9893 7.2306s3.5635-10.252 2.3569-11.603c-0.72062-0.80591-8.0322 3.7148-15.639 9.1712-4.3944 3.1523-8.0692 5.7942-8.0692 5.7942s4.2876-7.1211 7.6964-14.564c2.3467-5.1242 3.7706-10.042 3.1569-10.999-1.5052-2.3478-12.796 0.99846-12.796 0.99846s6.4178-6.1826 6.0038-7.7749c-0.20079-0.77265-6.583-0.21469-13.069 0.67199-6.8796 0.9407-13.88 2.238-13.88 2.238s22.911-13.321 22.192-15.718c-0.56904-1.8968-14.828-0.34324-14.828-0.34324s12.397-5.6642 12.347-7.536c-0.0501-1.8718-24.267-7.9992-24.267-7.9992s21.933-4.5878 22.352-7.0338c0.41945-2.4462-8.6499-10.294-8.6499-10.294s10.559-0.9541 11.083-2.3367c0.52441-1.3823-2.5662-6.8438-5.2482-7.7097-3.3147-1.0701-6.3325-1.7509-10.008-1.7509-0.52864 0-1.0451 0.0151-1.5507 0.0424 0.18172 0.23519 0.36145 0.47778 0.51784 0.70868 0.90404 1.3238 1.5772 2.7386 1.944 4.0882l0.004 0.0139 0.003 0.0142c0.18798 0.74138 0.28494 1.4796 0.28835 2.1945l0.00026 0.0307-0.001 0.031c-0.0253 0.81245-0.28951 1.5049-0.76867 1.9764-0.89807 0.78288-1.7356 0.68961-2.3361 0.42257l-2.0834-1.0215c-0.155-0.0683-0.32988-0.13422-0.54174-0.19794-0.39898-0.1197-1.2396-0.26219-2.982-0.26219-1.6519 0-3.6181 0.12286-5.5195 0.24173 0 0-1.1676 0.0651-1.3932 0.0651-2.2682 0-3.7822-0.72204-4.6945-1.3826l-0.49624 0.26135c-4.6388 2.4638-10.038 3.4606-13.409 4.0828-0.26191 0.0486-0.51189 0.0927-0.74764 0.13905-3.7239 0.73027-5.762 2.9402-5.9278 3.1193-0.31539 0.34153-0.72629 0.78347-1.2624 1.0929 0 0-0.96889 0.60458-2.4053 0.16238-0.93701-0.32931-1.3329-1.0599-1.3329-1.0599-0.80309-1.3343-0.0367-3.2928 0.97369-5.5021 1.1495-2.5099 4.7528-8.7776 13.377-12.779 2.8236-1.3113 6.5384-2.2449 11.041-2.7738 3.3892-0.39814 6.2509-0.44849 7.3912-0.45046 1.098-0.53464 4.4775-2.0967 9.5022-3.6673 5.5163-1.7239 14.137-3.7737 24.013-3.82 0 0 3.505-0.0444 5.3975 0.0762 0.19024-0.78888-1.1788-3.6099-2.8239-6.9166-1.9491-3.9181-4.4508-8.5532-4.4508-8.5532s4.519 3.9935 8.7304 6.9542c4.2389 2.98 8.9872 5.3744 10.11 3.9943 2.1212-2.6069-0.14218-13.366-0.14218-13.366s8.5634 7.5775 10.549 6.5512c0.90887-0.46978 1.0002-6.132 1.0036-12.097 0.005-7.068-0.1778-14.574-0.1778-14.574s11.796 23.867 14.25 23.185c2.4536-0.68166 5.1398-11.564 5.1398-11.564s4.4812 13.258 7.2195 12.936c1.0949 0.13452 3.4469-4.1656 5.5374-8.5612 2.2912-4.8173 4.254-9.5266 4.254-9.5266s0.0478 4.9231 0.39103 9.9532c0.31026 4.5446 0.88812 8.9812 1.8868 9.2272 2.1044 0.51815 8.2085-7.6631 8.2085-7.6631s-2.1584 11.403-0.46723 12.369c1.6912 0.96633 22.009-16.599 22.009-16.599s-13.333 24.705-11.711 26.592c1.6218 1.8866 15.862-1.9619 15.862-1.9619s-2.1217 2.5056-3.9375 5.3366c-1.8976 2.9598-3.4782 6.2674-2.736 7.0628 0.67456 0.7226 8.0994-0.0296 15.77-1.5174 8.8441-1.7154 14.598-2.9387 14.598-2.9387s-5.2092 2.8193-12.891 7.4413c-6.6516 4.0018-12.503 8.5066-12.253 9.2371 0.53775 1.5749 16.424 3.086 16.424 3.086s-2.666 1.5684-5.5308 3.3201c-3.1099 1.9016-6.4306 4.2694-6.4306 5.1364 0 0.75759 3.9833 2.6353 9.2371 4.2514 6.2984 1.9366 12.124 3.2348 12.124 3.2348s-21.656 1.739-23.009 4.8264c-0.92337 2.109 0.77295 4.8586 2.0162 6.6351 1.2436 1.7762 3.0232 3.3881 3.0232 3.3881 5.9168 5.4634 13.447 10.494 15.853 11.973 0.17005 0.10465 0.33244 0.20758 0.49794 0.31111 0 0 5.5553 4.1013 6.1263 4.5805 0.49766 0.41773 1.7683 1.7506 2.0538 3.4466 0 0 0.0998 0.4678 0.0671 1.2154" fill="#fff"/><path d="m162.86 11.064c-2.53 7.32-9.5 23.518-13.14 22.95-2.96-0.285-5.3-8.041-5.81-11.059-0.61 2.812-2.13 9.413-6.58 10.057-4.44 0.647-10.49-10.01-13.03-17.852-0.38 13.995-2.74 20.186-4.61 20.225-3.74 0.078-6.64-3.605-9.58-6.36 1.46 2.357 3.54 9.498 0.81 11.709-2.72 2.211-20.985-10.781-24.984-14.769 4.503 6.637 12.548 22.295 10.177 26.226-2.371 3.932-10.653 2.227-12.103 1.52 0.946 0.782 6.676 7.396 1.76 8.463-6.605 1.429-24.671-2.786-25.637-3.014 4.322 1.557 23.291 12.786 22.103 17.098-1.038 3.761-8.74 2.471-11.779 2.431 2.712 1.273 9.163 3.863 8.381 7.51-0.779 3.651-18.921 7.75-24.524 8.93 6.349 1.408 22.408 3.913 22.643 8.801 0.235 4.9-9.836 11.67-9.836 11.67s8.945 0.41 10.867 1.45c2.816 1.52 0.65 7.23-1.842 10.2 3.409-1.58 6.737-3.62 10.209-6.19-2.875-7.08-4.46-14.83-4.46-22.941 0-33.709 27.325-61.037 61.035-61.037 12.36 0 23.85 3.675 33.47 9.984 4.25-1.585 8.37-2.733 12.36-3.515-0.26-1.614-0.05-3.332 0.93-5.479-3.5 2.887-12.49 5.457-15.08 3.004-2.6-2.453 1.76-12.7 3.99-16.937-3.68 4.379-10.16 12.196-14.08 10.65-3.93-1.543-1.27-20.109-1.66-23.725zm47.07 73.149c-2.02 1.923-4.19 3.984-6.45 6.113 0.32 2.549 0.49 5.152 0.49 7.793 0 33.711-27.32 61.041-61.04 61.041-13.34 0-25.69-4.29-35.74-11.56-4.6 0.9-9.168 1.42-13.778 1.66-0.739 4.17-3.783 8.46-5.631 12.41 11.133-10.29 17.289-9.92 19.449-8.73 2.16 1.18 1.61 10.99 0.97 13.89 1.74-2.29 9.84-7.33 12.24-6.23 2.39 1.09 1.31 23.17 1.32 27.7 2.68-5.85 11.53-23.85 15.34-23.85 3.8 0 6.32 6.8 6.91 9.9 0.82-3.09 5.13-11.18 8.98-11.61 3.84-0.43 8 11.45 10.55 17.35 0.19-5.02-0.19-16.79 2.9-18.01 3.09-1.21 6.66 2.85 8.74 5.38-0.56-3.48-1.09-10.34 1.06-11.75 2.14-1.4 17.29 10.9 22.82 16.39-1.36-3.43-13.35-21.75-11.19-26.74 1.97-4.54 14.24-1.05 16.59-0.35-3.21-2.52-6.72-10.99-5.37-13.73s21.68 1.26 30.2 3.66c-6.85-2.68-25.56-14.08-24.22-17.48s13.34-4.65 16.99-4.65c-1.08-0.53-8.74-4.75-11.37-7.82-2.63-3.08 11.2-8.805 19.11-9.879-7.08-0.572-20.41-1.671-20.55-6.818-0.04-1.642 0.22-2.975 0.68-4.08z" transform="matrix(.8 0 0 -.8 206.49 476.18)" fill="#fc4c02"/><path d="m238.39 43.193c-0.57-0.006-1.14 0.019-1.72 0.077-4.65 0.462-13.98 3.822-13.98 3.822-17.03-4.422-37.24-4.92-62.04 10.17-4.63 2.819-8.86 5.733-12.77 8.705s-7.51 5.997-10.86 9.033c-1.45 1.308-3.31 2.985-4.9 4.596-8.05 2.684-11.62 0.173-22.68 1.627-8.75 1.151-12.15 4.138-14.077 6.484-0.249 0.675-0.224 1.27 0.231 1.633 1.045 0.839 2.66 0.419 5.726 0.191 3.06-0.224 7.7-0.149 10.76 1.764 1.97 1.226 2.87 4.189 3.19 5.828-2.29 2.431-4.54 4.787-6.81 7.027-13.971 13.83-23.374 22.07-33.896 26.18-22.828 8.94-35.689-1.56-40.839-4.65h-0.004c-6.249-4.01-14.538-5.33-18.985-6.17-4.447-0.83-6.879-2.98-7.8278-3.79-0.9491-0.81-1.6772-2.17-2.7578-1.86-0.2769 0.08-0.5196 0.16-0.6934 0.33 0.1738-0.16 0.4165-0.25 0.6934-0.33 0.1674 1.93 6.6436 18.04 27.215 20.96 5.88 0.84 7.749 0.57 8.848 0.49-3.459-3.04-6.311-7.28-6.553-7.53 0.786 0.69 1.572 1.34 2.358 1.96 6.139 6.55 13.117 9.26 18.978 10.24 0.384 0.12 6.168 0.37 6.168 0.37 6.747-0.15 15.804-2.13 24.211-4.57 24.685-7.16 48.495-28.55 48.495-28.55s-1.33 5.77-1.84 7.81c-0.34 1.61-1.55 7.01-3.83 12.67 0 0-0.68 1.71-1.67 3.79-1.47 3.09-3.53 6.97-3.53 8.6 0 0.08 0.01 0.15 0.02 0.21 0 0 0.01 0.18 0.09 0.4 1.85-0.98 4.37-2.69 7.24-5.11 4.5-3.74 10.19-9.44 16.78-17.57 14.81-18.272 17.16-30.777 27.58-40.507 4.4-4.123 15.99-10.493 21.92-12.562 0.07-0.036 0.12-0.057 0.14-0.065v0l0.01-0.003c10.02-5.724 19.83-10.148 21.43-10.791 5.86-2.361 26.49-9.211 28.66-5.805h0.01c-0.8-3.434-4.5-5.058-8.49-5.104zm-20.26 6.471c0.03 0.008 0.06 0.025 0.07 0.057 0.11 0.249-0.92 0.832-4.15 2.154-2.36 0.967-4.52 1.558-8.02 2.426-1.61 0.487-3.89 1.219-3.89 1.219-0.01-0.015-0.01-0.033-0.02-0.047-3.95 1.343-10.62 3.991-12.75 7.127 0.09-0.175 1.44-2.95 2.55-4.514 0.92-1.411 2.98-4.087 6.04-5.424 4.27-1.863 7.05-1.572 9.02-1.572 1.96 0 6.57-0.142 8.44-0.594 1.64-0.395 2.46-0.885 2.71-0.832zm-25.72 47.481c-3.03 2.726-6.08 5.395-9.05 7.865-2.33 1.94-4.96 4.04-7.9 6.24-0.91 11.5-3.24 16.96-3.22 18.02 0.02 0.59 0.19 1.17 0.64 1.44 2.72-1.97 7.88-7.1 11.8-14.53 3.29-6.25 5.98-13.63 7.73-19.035zm-136.76 24.595c-0.888 0.12-1.283 1.03-3.359 1.65-2.417 0.72-7.579 0.35-12.25 0.06-3.402-0.21-5.197 1.07-5.926 1.78 2.126 1.21 8.98 5.19 14.834 6.32v-0.01c-0.195-0.26 9.269-6.67 6.705-9.8h-0.004z" transform="matrix(.8 0 0 -.8 206.49 476.18)" fill="#008e97"/><path d="m244.67 49.586c-1.69-0.006-4.79 0.783-9.72 2.451-0.03 0.011-0.05 0.016-0.08 0.027-0.67 0.228-1.37 0.469-2.11 0.729-23.2 8.147-45.63 33.646-74.66 55.667l0.21-0.34c8.62-12.972 11.59-22.467 20.29-30.597 4.49-4.283 11.37-8.752 18.16-12.627-0.01 0.008-0.06 0.029-0.13 0.065-5.93 2.069-17.52 8.439-21.93 12.562-10.41 9.73-12.76 22.235-27.57 40.507-6.59 8.13-12.29 13.83-16.78 17.57-2.87 2.42-5.39 4.13-7.25 5.11 0.02 0.04 0.25 0.82 0.91 0.99 1.07 0.27 5.1-1.76 10.24-6.1 0.03-0.01 9.9-4.69 14.62-7.27 5.55-3.02 14.7-8.73 16.7-10.05 0-0.01 0.01-0.01 0.01-0.01 3.57-2.37 9.88-7 9.88-7.02 2.93-2.2 5.57-4.3 7.9-6.24 2.97-2.47 6.02-5.139 9.05-7.865-1.75 5.405-4.44 12.785-7.73 19.035-3.92 7.43-9.08 12.56-11.8 14.53 0.87 0.55 2.17-0.27 2.31-0.35 2.24-1.22 8.55-6.58 12.78-15.16 6.04-12.24 8.57-21.656 8.62-21.827 0.49-0.451 19.97-18.839 20.24-19.088 7.29-6.736 16.78-13.156 20.19-15.25 3.55-2.19 5.71-3.846 6.98-4.959 1.28-1.112 1.66-1.674 1.66-1.674v-0.004c0.19-0.351 0.71-1.316 0.61-1.962-0.09-0.558-0.59-0.846-1.6-0.85zm-26.55 0.078c-0.24-0.051-1.06 0.437-2.7 0.832-1.87 0.452-6.48 0.593-8.44 0.594-1.97 0-4.75-0.292-9.02 1.572-3.06 1.336-5.11 4.014-6.04 5.424 0.3-0.411 0.57-0.74 0.8-0.914 0 0 3.11-3.588 9.47-3.121-0.22 0.323-0.39 0.778-0.19 1.224 0 0.007 0.01 0.014 0.01 0.02 0.03 0.06 0.06 0.119 0.1 0.178l0.03 0.045s2.28-0.731 3.89-1.217c3.5-0.869 5.67-1.46 8.02-2.426 3.23-1.321 4.26-1.905 4.15-2.154-0.01-0.032-0.04-0.05-0.08-0.057zm-81.1 25.336c-2.28 0.732-4.04 1.167-5.7 1.461-3.77 0.744-6.5 0.549-14.32 1.576-12.28 1.616-18.024 5.466-19.635 6.953-0.486 0.449-0.858 0.838-1.369 1.549-0.351 0.489-0.598 1.067-0.637 1.172 1.929-2.348 5.331-5.336 14.081-6.488 11.06-1.453 14.63 1.055 22.68-1.629 1.59-1.609 3.45-3.285 4.9-4.594zm-3.15 32.23s-23.81 21.39-48.495 28.55c-8.407 2.44-17.464 4.42-24.211 4.57 1.205 0.02 16.884 0.63 34.1-5.82 14.076-5.14 27.916-13.54 36.766-19.49 0.51-2.05 1.84-7.81 1.84-7.81zm-129.72 6.63c-0.2062 0.06-0.394 0.12-0.5469 0.22h-0.0039c-0.0502 0.03-0.1003 0.07-0.1426 0.11-0.5087 0.46-0.4297 1.57 1.17 5.07 2.1505 4.7 7.091 10.94 15.68 14.93 7.852 3.65 19.809 3.83 22.226 3.83h0.412 0.004s20.262 10.48 46.012 9.27c0.057-0.01 15.329 0.34 34.059-6.98-0.01-0.06-0.02-0.14-0.02-0.21 0-1.63 2.06-5.51 3.52-8.6h0.01c0.99-2.08 1.67-3.79 1.67-3.79-8.07 4.28-20.96 9.76-32.622 12.5-22.967 5.38-37.677 0.71-40.197-0.11l-0.33-0.11-0.026-0.01h-0.004c-0.011 0-0.017 0-0.025-0.01-5.861-0.97-12.839-3.68-18.978-10.23-0.786-0.62-1.57-1.27-2.356-1.96 0.242 0.25 3.092 4.49 6.551 7.53-1.099 0.08-2.968 0.35-8.848-0.49-20.571-2.93-27.047-19.03-27.215-20.96zm51.727 7.86c-0.102 0-0.183 0.02-0.219 0.02 2.564 3.13-6.9 9.54-6.705 9.8v0.01c0.317 0.06 1.081 0.19 1.799 0.26 0.715 0.07 1.564 0.03 1.746 0.02 0.014-0.01 1.115-1.26 1.783-2.24 1.102-1.61 1.785-3.18 2.137-4.47 0.192-0.76 0.291-1.5 0.295-2.23-0.032-1.02-0.529-1.17-0.836-1.17z" transform="matrix(.8 0 0 -.8 206.49 476.18)" fill="#005778"/></g></g></svg>
