<svg xmlns="http://www.w3.org/2000/svg" width="296" height="203.79" viewBox="0 0 298 205.79">
  <path d="m173.65 16.305-14.43 15.123c23.634-9.82 75.172-26.68 75.172-26.68l-16.513 16.153C262.95 7.556 297.202 1.234 297.202 1.234s-9.925 23.098-24.753 46.228c2.869-.31 21.59-2.491 21.59-2.491s-16.86 27.928-36.328 48.057l10.896 2.711s-16.977 24.466-39.383 44.436c-32.222 28.714-48.801 24.304-48.801 24.304-23.92 17.323-43.09 8.544-43.09 8.544s8.283-20.903-.274-23.122c-7.714-2.004-19.45 4.027-20.915 6.446-1.522 5.274-7.935 18.668-14.56 26.776-12.704 15.543-26.79 21.894-26.79 21.894s-11.096-9.468-11.169-25.586c0 0-7.62 8.073-20.027 10.712-8.685 1.847-20.537.347-32.678-9.79-8.153-6.805-9.71-29.673-9.71-29.673s7.66-14.636 22.436-27.46c-3.27-2.806-5.274-6.336-5.903-8.515 39.273-17.143 39.3-33.505 70.523-53.398 30.762-19.598 50.092-28.61 85.382-45" fill="#fff"/>
  <path d="m154.516 30.185-12.339 12.933c24.369-10.786 75.83-28.305 75.83-28.305l-14.937 14.61C255.833 13.089 289.3 7.554 289.3 7.554s-10.936 24.373-25.489 45.078c7.047-.676 21.745-2.384 21.745-2.384s-14.698 24.626-36.42 45.484c2.414.355 12.271 2.604 12.271 2.604s-13.1 19.438-35.868 39.376c-29.064 25.448-41.957 22.434-41.957 22.434s.28-.993.253-2.538c-.02-.854-.203-1.628-.21-1.69-22.374 21.055-41.014 13.951-41.014 13.951s8.275-20.035-4.418-24.08c-9.833-3.13-24.895 4.918-26.095 9.23-1.306 4.687-7.552 17.698-13.745 25.322-10.744 13.227-22.636 19.263-22.636 19.263s-10.811-8.317-7.062-32.66c.819-5.305-.232-7.377-.811-8.268-1.775-2.716-15.606.247-18.98 7.963-2.382 5.45 11.362 10.055 11.362 10.055s-6.343 6.997-17.429 9.263c-6.972 1.426-17.769.971-29.103-8.844-6.708-5.806-8.098-25.454-8.098-25.454s8.285-15.177 24.423-28.284c-3.185-2.085-5.604-5.617-6.215-7.005 32.519-14.006 36.976-33.811 73.686-55.944 17.109-10.314 35.13-20.465 57.03-30.24" fill="#004851"/>
  <path d="M277.433 16.224s-29.304 6.168-43.33 9.166c-26.339 5.627-47.243 12.785-47.243 12.785l12.608-12.213s-40.433 12.762-64.297 24.474c-2.644 1.296-8.705 3.887-8.705 3.887l7.238-9.111s-19.183 8.188-44.243 24.86c-22.74 15.13-33.218 35.49-59.93 47.74 0 0 1.726 2.875 7.265 4.999-5.225 3.75-17.837 13.836-27.405 29.696 0 0 1.815 17.625 6.695 21.799 19.895 17.016 37.093 3.287 37.093 3.287s-11.91-5.277-8.508-12.793c4.22-9.333 17.594-10.947 21.119-10.785 0 0 8.838-.432 6.502 13.539-3.168 18.952 4.218 27.364 4.218 27.364s23.11-13.242 32.215-41.388c3.507-10.838 49.236-25.882 38.458 13.604 8.876 2.054 30.257-5.8 37.259-18.6 1.462 1.835 2.673 4.495 2.882 7.616 18.66-1.463 52.047-37.04 63.218-55.157-2.976-1.233-8.316-2.2-9.619-2.469 23.12-22.06 33.358-42.655 33.358-42.655s-9.523.52-18.356 1.14c14.625-20.546 21.51-40.785 21.51-40.785zM85.468 108.378c1.802.202 3.36 1.044 4.23 2.492 1.72 2.868.118 6.977-3.581 9.182-3.7 2.209-8.09 1.673-9.813-1.19a4.893 4.893 0 0 1-.492-1.14c.55-.308 1.082-.646 1.596-1.01.075.347.188.684.375.994 1.218 2.03 4.397 2.361 7.105.746 2.709-1.618 3.917-4.569 2.701-6.596-.686-1.145-2.008-1.732-3.506-1.75.507-.624.97-1.211 1.385-1.728z"/>
  <path d="M183.956 35.492s-24.57 5.884-57.85 21.685c-9.384 4.454-14.34 7.106-14.34 7.106 1.44-1.665 8.115-7.522 9.73-9.604-24.698 12.112-33.714 20.125-48.39 35.681-13.09 13.882-12.497 16.302-32.364 27.04 0 0 14.636 6.008 29.462-3.648 2.566-1.667 4.985-4.01 7.281-6.458 5.245-6.084 3.508-12.325 10.47-16.809-.993 2.314-2.627 5.25-2.775 8.277 3.345-4.608 9.956-10.674 17.312-15.061 18.706-11.154 31.12-13.076 31.12-13.076-.48.167-.941.338-1.408.508-25.566 10.628-29.74 24.52-29.87 25.978-.277 3.133 9.241-3.883 17.024-4.832-8.187 2.89-15.214 9.852-18.616 17.893-1.443 3.405-1.882 7.285-5.924 10.317-1.14 1.039-2.637 2.062-4.629 2.963-5.374 2.43-9.09 1.203-10.35.362-.756-.502-1.222-1.354-1.222-1.354 2.604.734 6.143.096 9.373-1.943 2.386-1.506 4.16-3.495 5.113-5.512.003 0 .005 0 .008.002.519-1.076 1.493-3.177.062-5.853-.726-1.366-2.235-2.102-3.955-2.371.108-.287 1.005-2.565 3.81-5.93-3.811 2.741-6.28 6.037-7.564 7.527 1.803.203 3.361 1.047 4.233 2.494 1.72 2.869.115 6.976-3.584 9.18-3.7 2.209-8.09 1.674-9.813-1.19a4.895 4.895 0 0 1-.492-1.14c-.197.112-.388.23-.588.332-1.158.599-3.492 1.59-3.492 1.59 1.106.257 2.585.37 3.506.195.305 4.051 2.84 10.564 17.104 6.885-4.074 4.009-13.889 3.744-19.838.628a39.713 39.713 0 0 0 2.854 1.936c17.888 11.114 38.487.651 43.516-2.244a38.467 38.467 0 0 1 3.725-2.115s-5.212 4.596-8.744 11.728c6.268-8.015 24.475-20.866 48.894-17.897 0 0-12.777-6.206-32.921.377 0 0 27.788-16.476 62.963-9.469-22.823-7.666-43.37-4.023-55.502.059-7.117 2.746-11.346 5.017-11.346 5.017s1.782-1.304 5.115-3.28c8.24-6.062 19.547-12.622 30.735-17.23 7.766-3.198 23.242-7.334 29.534-7.695 0 0-16.186-2.74-30.952.982 0 0 23.378-9.123 46.061-9.627 7.596-.17 24.978.752 24.978.752-25.069-7.441-51.052-8.907-68.809-6.183-10.09 2.5-18.05 4.996-18.05 4.996s1.394-.707 4.058-1.84c6.4-3.8 32.656-17.909 81.471-25.524 0 0-6.242-.743-13.873-.743-7.8 0-23.144 2.637-23.144 2.637 11.114-5.077 32.055-10 57.953-12.496 0 0-39.572-4.695-87.48 10.32-.411.175-.634.273-.634.273s5.053-3.658 10.76-7.445c4.206-2.79 10.292-7.148 10.292-7.148zm-103.578 78.72c-.634.615-1.3 1.211-2.004 1.77.105.3.36.819.953 1.258 1.046.771 2.655.639 2.655.639-1.41-1.066-1.674-2.52-1.604-3.666z" fill="#fff"/>
  <path d="M256.744 30.363s-22.033 1.777-47.04 6.418c-26.006 4.828-42.812 11.61-46.165 13.03 47.908-15.014 87.48-10.32 87.48-10.32-25.898 2.497-46.84 7.42-57.954 12.496 0 0 15.344-2.636 23.145-2.636 7.63 0 13.872.742 13.872.742-48.813 7.616-75.07 21.725-81.47 25.524 6.485-2.748 20.528-8.049 40.635-12.032 18.967-3.757 41.004-4.69 49.878-5.574 12.65-12.222 17.619-27.648 17.619-27.648zm-45.886 36.11c-9.748.082-19.98.625-29.124 2.031-6.31.969-13.1 2.467-19.13 3.957 17.755-2.723 43.738-1.258 68.808 6.184 0 0-17.381-.922-24.978-.752-22.683.504-46.06 9.626-46.06 9.626 14.765-3.722 30.951-.982 30.951-.982-6.293.362-21.768 4.497-29.534 7.695-11.188 4.608-22.495 11.169-30.735 17.23 13.19-7.821 50.7-26.203 98.3-16.06 0 0 3.11-2.394 11.393-11.483 8.784-9.633 10.654-15.577 10.654-15.577s-19.099-2.05-40.544-1.87zm-78.652 4.658a94.03 94.03 0 0 0-.938.336C107.84 80.21 95.52 94.1 97.341 101.13c.687 2.641 5.272-.086 5.272-.086s-6.2 5.25-8.684 10.916c-.015.312 0 1.447-.816 3.045.604.14 1.232.23 1.762.172 1.605-.175 3.484-1.309 3.484-1.309s.038 3.367-3.54 6.62c4.042-3.034 4.482-6.914 5.924-10.319 3.403-8.04 10.43-15.001 18.617-17.892-7.783.948-17.302 7.965-17.025 4.832.13-1.458 4.304-15.349 29.87-25.979zm53.02 29.044c-19.544.067-37.096 5.362-47.94 9.551 12.131-4.081 32.679-7.725 55.502-.059-35.175-7.007-62.963 9.469-62.963 9.469 20.144-6.583 32.921-.377 32.921-.377-24.418-2.968-42.627 9.883-48.895 17.898a35.433 35.433 0 0 0-1.34 3.074c5.655-5.327 11.7-9.648 25.645-13.105 33.033-8.195 55.989 1.739 58.746 12.176 0 0 .112-.055.325-.17 1.338-.727 6.47-2.915 14.196-10.516 8.113-7.985 13.198-14.392 15.207-18.702-13.727-6.881-28.031-9.284-41.403-9.239zM62.449 124.671c-5.367 1.642-12.173 1.173-15.93.154-4.331 2.986-19.926 9.66-29.847 26.452.512 5.692 1.102 12.977 3.441 16.971 9.538 15.065 26.2 9.496 26.2 9.496s-25.315-11.234 1.745-27.608c8.639-5.228 32.538-9.152 46.791-4.569 1.216.447 2.72 1.515 2.617 1.787-1.477 7.257-7.462 27.577-17.382 33.353-5.484-8.008 8.99-26.397-5.773-27.099 0 0 3.672 5.693 2.09 13.342-.697 3.357-2.984 12.32 1.103 21.597 0 0 22.44-13.42 29.101-44.399.864-3.05 1.448-5.636 2.773-7.978-28.834 11.363-46.93-11.498-46.93-11.498zm-6.805 4.62c1.545 1.266 3.15 2.15 7.352 2.552 0 0-7.544 2.192-9.219 2.69-2.067.615-6.532 1.248-4.41-1.933 0 0 2.685-1.446 6.277-3.308zm92.336 2.112c-19.5-.234-28.415 8.463-28.415 8.463s8.323-6.264 22.452-3.992c20.901 3.36 20.302 16.526 20.302 16.526s9.408-4.045 14.166-12.32c0 0-5.9-5.632-16.571-7.517-4.348-.768-8.323-1.117-11.934-1.16z" fill="#a2aaad"/>
  <path d="M49.359 132.596c-2.122 3.18 2.344 2.546 4.41 1.932 1.676-.5 9.22-2.691 9.22-2.691-4.202-.402-5.807-1.286-7.352-2.551-3.592 1.862-6.278 3.31-6.278 3.31"/>
</svg>