<svg xmlns="http://www.w3.org/2000/svg" width="248" height="235.355" viewBox="0 0 250 237.36">
  <path d="M233.913 51.353C200.509 30.268 123.999 14.138 66.927.873L1.307 71.405l56.327-1.206c-28.047 45.314-22.33 151.864 48.591 166.025-3.65-7-9.99-19.857-1.772-35.775 5.851-11.322 38.39-73.566 38.39-73.566h7.791c10.547 0 14.02 3.967 9.342 9.557 28.117-.359 45.379-10.99 53.126-22.35-5.896-10.792-24.66-23.496-32.267-28.644h39.34c11.282 0 13.826 4.725 11.17 9.87 18.409-3.617 27.822-28.024 2.568-43.964" fill="#a5acaf"/>
  <path d="M229.42 53.503C183.923 27.984 71.267 10.976 71.267 10.976l-48.26 51.693h50.036C36.1 111.48 44.285 210.018 98.612 230.499c-3.853-9.163-5.806-19.795 1.138-33.327 7.837-15.257 20.314-40.908 38.182-75.146h14.583c12.104 0 15.973 5.115 14.329 9.065 9.954 0 28.151-.978 41.356-17-11-15.367-47.373-33.286-47.373-33.286h62.394c9.17 0 13.751 3.26 12.486 8.783 15.937-7.782 11.793-25.941-6.29-36.085" fill="#fff"/>
  <path d="m68.08 18.18 4.398 5.593-28.099 30.246 98.81 7.557c-.182.358-.369.722-.554 1.092H76.276l5.138 4.847C77.217 73.42 73.648 79.8 70.65 86.477l55.489-11.34c-.302.445-.602.892-.896 1.341L59.137 98.511l5.808 3.29c-2.727 9.074-4.498 18.474-5.348 27.874l56.168-34.09a60.387 60.387 0 0 0-.479 1.547l-61.945 48.875 5.71 1.43c.321 10.6 1.81 20.933 4.392 30.522l50.423-59.442c.085.475.178.949.28 1.42l-49.939 73.284 4.697.319c5.788 13.025 14.014 23.71 24.489 30.35-4.044-8.991-2.754-19.784 1.936-29.398 4.066-8.319 57.013-113.75 57.013-113.75l-8.846-4.734h82.27c8.425 0 13.093 3.534 12.999 8.288 5.206-4.394 6.37-17.708-11.237-27.367-38.26-20.988-159.45-38.75-159.45-38.75zm142.706 37.1c4.205 1.403 13.668 6.678 17.25 10.81h-6.796c-2.682-4.408-10.454-10.81-10.454-10.81zm21.09 9.234c7.377 3.764 8.284 11.293 7.299 14.101-.669-2.052-3.841-5.62-11.363-5.62H208.85c.183-.368.366-.726.544-1.083 3.6-.289 16.336-1.372 23.537-2.729zm-76.303 17.968 1.149 3.408c-2.715 5.308-12.443 24.585-15.812 31.33h25.24c.344 4.469 4.784 8.26 9.394 9.267-2.731-3.648-1.649-7.267.39-9.268h11.92c3.313 0 2.29 3.972-3.098 8.11 8.432-1.925 14.73-5.762 18.85-11.241-7.816-11.933-48.032-31.605-48.032-31.605z"/>
  <path d="m78.142 33.673-8.025 8.691 131.136 18.142c.236-.475.474-.941.703-1.402C175.135 51.293 122.31 40.5 78.143 33.673zm44.084 35.422-35.609.81a91.326 91.326 0 0 0-4.978 7.609l39.537-7.065c.346-.454.696-.908 1.05-1.355zM109.644 89.96l-38.895 13.974a123.479 123.479 0 0 0-2.203 9.741l40.414-22.07c.218-.547.45-1.097.684-1.645zm43.178 17.48-2.902 5.626h30.868c.232-.456.453-.906.676-1.35zm-48.543 8.43-37.6 31.96c.253 3.543.652 7.045 1.181 10.477l36.484-40.7a68.676 68.676 0 0 1-.065-1.739zm6.647 25.313-32.814 49.484c1.721 3.263 3.624 6.313 5.695 9.113l27.887-57.176a67.912 67.912 0 0 1-.768-1.42z" fill="#a71930"/>
</svg>