<svg xmlns="http://www.w3.org/2000/svg" viewBox="0 0 288 288" xml:space="preserve">
  <path d="M40.894 246.654c-6.711 4.245-7.818 3.946-13.045-3.97-4.777-7.234-5.9-15.9-6.847-24.253-1.748-15.424-.073-30.536 6.592-44.837.894-1.918 2.64-2.952 3.78-4.546 1.102-1.538 2.196-3.31 4.252-2.826 2.78.656.126 3.266 1.735 5.256 4.974-1.84 10.185-3.766 15.392-5.7.148-.056.316-.173.386-.307 4.557-8.64 7.284-17.809 9.205-27.748-7.659 1.037-9.194-.524-7.1-7.06 1.408-4.398.834-9.178 3.227-13.357 1.436-2.508 2.662-3.382 4.794-.942 2.325 2.658 4.034 1.618 5.31-.965a110.128 110.128 0 0 0 3.436-7.749c6.77-16.868 19.486-28.618 33.817-38.82 22.737-16.184 48.545-21.444 75.797-18.957 22.696 2.072 42.85 11.238 60.486 25.809 21.063 17.4 33.371 40.04 37.912 66.541 4.775 27.867-.754 54.183-15.64 78.403-2.981 4.849-7.2 8.935-7.535 15.36-.197 3.79-5.294 5.958-9.213 3.737-8.852-5.018-17.437-2.666-25.88.25-16.181 5.587-32.589 10.393-49.584 12.242-7.987.87-16.262.877-24.393-.488-10.184-1.71-15.86-8.566-19.889-17.158-1.892-4.036-3.036-8.435-4.372-12.715-.797-2.552-2.009-4.64-4.785-5.202-4.808-.972-8.523-3.623-11.607-7.278-1.834-2.173-3.155-2.21-4.007.512.274 1.498 1.406 1.543 2.288 1.92 1.339.571 2.204 1.456 2.1 3.036-.103 1.567-.908 2.52-2.473 2.595-6.643.314-8.468 5.718-11.342 10.288-8.387 13.335-19.798 22.056-36.321 21.499-5.405-.183-10.764-1.729-16.476-2.57m175-178.98c.574-2.364-.545-3.594-2.642-4.547-6.815-3.095-13.899-5.248-21.417-6.856-.844 3.98-3.456 5.29-6.983 4.997-4.021-.334-6.141-2.741-6.45-6.449-5.16-1.436-10.015-1.126-15.023-.635-5.13.503-10.206 1.003-15.257 2.074-2.624.557-3.907 1.306-2.985 4.277.708 2.283-.064 4.455-2.414 5.389-2.503.995-4.972.468-6.837-1.562-.855-.931-1.345-2.198-2.029-3.36-.795.088-1.494.03-2.092.25-18.246 6.702-33.285 17.817-45.352 33.014-.802 1.008-1.289 2.16-.247 3.13 5.527 5.145 5.34 11.835 5.21 18.55-.036 1.83.23 3.341 2.124 4.633 9.131 6.231 19.227 10.444 29.33 14.713 13.01 5.5 23.988 13.547 31.656 25.711 1.933 3.068 4.321 5.841 4.679 9.704-2.032 1.12-4.878 1.072-5.078 4.234 2.006 1.559 4.689-.238 7.27 1.96 0 2.195-.015 4.987.008 7.78.009 1.152-.292 2.703.804 3.25 4.588 2.29 3.095 5.919 2.448 9.501-.707 3.916-1.725 7.882-1.64 11.806.088 4.1-1.441 5.133-5.188 5.229-6.452.164-12.883.788-19.301 1.653-2.817.38-6.225.345-5.179-4.69.794-3.82-1.092-4.634-5.717-2.661 1.414 4.75-.207 10.324 3.592 14.62 2.666-1.603-.863-4.121 2.174-5.976 3.961 5.517 4.95 13.15 10.934 17.316 2.508-.597 5.715-6.266 7.25.375.92 3.978 3.239 4.99 6.386 5.707 2.58.588 5.167 1.32 7.788 1.532 7.643.62 15.29 1.005 21.736-4.448 1.168-.988 2.664-1.01 4.208-1.15 6.575-.592 13.54.232 18.147-6.585 2.225-3.294 7.437-1.94 8.476 1.949.506 1.89.78 2.802 3.051 1.633-.195-2.422-2.493-6.267 1.737-6.83 9.08-1.209 18.258-4.253 27.408-.308 1.822.785 3.203.57 4.354-1.031 7.219-10.042 13.185-20.713 16.475-31.79-.374-2.79-2.908-1.95-3.146-2.92 2.565-13.368.112-25.435-4.059-37.32 2.282-2.331 5.156-2.42 8.532-1.62-1.48-2.064-4.568-1.294-4.575-3.873.4-1.237 1.321-1.395 2.098-1.315 4.987.514 5.437-2.13 4.508-6.075-2.019-8.583-4.318-17.058-8.214-25.026-8.412-17.207-20.059-31.65-35.826-42.559-4.845 3.356-10.324 1.47-14.733-5.4M80.061 227.554c2.704-3.131 6.524-5.39 7.96-9.117-12.283-4.218-23.88-5.018-34.263 3.72-.348.294-.969.237-1.41.452-3.432 1.667-6.997 3.122-10.239 5.105-4.081 2.497-4.866 6.881-1.714 8.902 2.318 1.486 4.821 2.843 7.773 3.035 12.202.796 23.014-2.075 31.893-12.097m60.415-35.914c-3.697-5.635-2.668-8.523 4.714-13.231-2.169-9.089-12.69-20.533-18.345-19.483 1.613 7.595 3.028 15.22 2.55 23.073-.291 4.807.197 9.663-.12 14.467-.272 4.11 1.555 5.332 5.254 5.203 2.652-.093 5.345-.135 7.967.206 6.507.847 7.687-.342 6.265-7.116-2.741-.104-5.438-.758-8.285-3.119m-39.347-.196c.264-1.457.48-2.925.8-4.37 2.042-9.236 2.026-9.267-7.545-10.766-.327-.05-.68-.027-.978-.147-2.97-1.202-4.135.382-5.051 2.942-4.78 13.362-4.49 13.86 7.771 15.906 2.832.473 4.053-.387 5.003-3.565m-48.648 18.389a34372640 34372640 0 0 0-16.303-5.442c-2.281 5.862-2.084 11.498-1.461 17.615 7.825-2.654 15.469-4.561 22.016-9.108-.709-2.013-2.21-2.314-4.252-3.065m63.161-29.683c.024-1.98-.197-3.94.514-5.91 1.096-3.04-.875-3.706-3.518-4.763.331 2.695 3.04 4.49 1.395 5.87-4.725 3.964-3.847 9.573-5 14.566-1.83 7.92-.199 9.452 8.493 7.74-1.696-5.421-2.152-11.001-1.884-17.503m-50.659-15.66c2.887.596 4.891-.466 5.73-3.3 1.175-3.97 4.36-7.725 2.118-12.118-.73-1.43-2.397-3.023-4.33-2.949-1.994.077-2.382 2.132-2.866 3.63-1.11 3.441-2.012 6.95-2.976 10.438-.484 1.75-.385 3.298 2.324 4.3m-9.338 9.72c-2.816.397-5.525 1.133-7.732 3.019-1.011.864-1.933 2.019-1.11 3.45.606 1.054 1.608 1.35 2.96 1.233 2.95-.257 5.93-.163 8.895-.276 4.953-.19 6.631-2.18 6.466-7.772-2.882-.794-5.785-.686-9.479.345m.18 27.368c3.51.225 6.82 2.514 11.91.774-9.749-3.672-18.32-7.008-26.86-10.592 2.982 5.99 8.537 7.882 14.95 9.818m46-46.926c1.199-5.963-.934-12.302-4.846-14.405-5.815 9.506-3.7 12.58 4.846 14.405m-8.208 6.122c-3.493 4.273-2.97 6.398 1.933 7.566 1.6.381 3.283.411 4.883.793 1.584.378 3.211.51 3.905-1.113.863-2.016-.82-3.051-2.326-3.774-2.534-1.217-5.157-2.25-8.395-3.472m-6.564-18.29c-3.88-3-7.887-5.667-13.907-5.288 3.162 4.461 7.28 6.538 11.318 8.58 2.925 1.478 2.82-.806 2.589-3.292m-16.699-12.47c1.616-1.715 1.052-3.724-.346-4.758-2.527-1.868-5.218-.48-7.842.356 1.874 5.327 3.351 6.2 8.188 4.402m52.254 44.59c-1.155-.73-1.872-.316-2.112.92-.863 4.437-2.28 8.906.698 13.568 1.988-4.673 1.715-9.358 1.414-14.487m-93.164 25.852c-.634-2.363-2.485-2.799-2.778-.462-.458 3.654-1.033 7.621.657 11.691 1.288-1.92 1.191-3.595 1.262-5.227.079-1.81-.134-3.653.86-6.002m49.353-26.563c-3.206-.694-4.902 1.108-4.984 3.874-.071 2.398 2.41 2.136 3.8 1.67 2.54-.848 3.85-2.58 1.184-5.544m-5.653 15.96c4.126.397 2.557-3.139 3.922-4.979-5.497-.025-6.197.313-7.74 3.665 1.1.356 2.176.704 3.818 1.313m9.072-25.046c1.086-2.611 3.801-5.07.804-8.359-3.122 1.507-3.357 4.416-3.799 7.025-.284 1.675 1.32 1.459 2.995 1.334m3.252 43.035c2.74.557 5.422 3.185 8.562.42-.571-.596-.87-1.201-1.234-1.244-4.64-.551-9.348-.443-14.536-1.982 2.231 2.331 4.649 1.546 7.208 2.806m68.898 2.485c4.894.539 5.333-2.342 4.609-6.145-.61 2.906-5.648 1.778-4.61 6.145m-35.097-52.066c-.598-.902-1.076-2.694-2.288-1.98-2.058 1.214-2.536 3.474-2.328 5.968 3.26.907 4.28-.84 4.616-3.988m-10.678-13.266c-2.056 2.328-1.737 4.253 1.156 6.304.69-2.524 3.337-4.651-1.156-6.304z"/>
  <path d="M182.095 195.406c4.575-6.566 10.273-9.306 15.98-7.94 3.895.933 11.638 9.145 12.197 12.937.813 5.51-2.483 11.832-7.824 15.009-6.45 3.837-13.31 3.632-18.002-.539-5.191-4.614-5.984-10.601-2.351-19.467m6.36 14.306c2.527 1.169 8.158-.608 8.855-3.013.886-3.057-.874-5.056-3.37-6.427-2.696-1.482-5.273.527-6.71 1.777-2.179 1.896-.805 4.855 1.226 7.663z"/>
  <path d="M214.949 218.293c-1.624 1.125-2.901 1.09-3.716-.337-1.121-1.96.458-3.19 1.66-4.195 6.425-5.366 6.93-12.095 4.632-19.467-3.218-10.326-13.398-16.48-24.165-14.7-1.133.188-2.291.582-3.398.475-1.269-.123-2.005-1.1-1.99-2.454.013-1.253.86-1.68 1.933-1.83 22.003-3.058 35.137 6.816 33.182 30.49-.414 5.019-4.119 8.583-8.138 12.018z"/>
</svg>