<svg xmlns="http://www.w3.org/2000/svg" xml:space="preserve" height="145.05" width="193" viewBox="0 0 193 145.055">
  <path d="M185.082 52.163s-3.104-6.813-11.94-12.618c2.214-2.84 3.072-6.252 2.05-8.949-1.06-2.802-8.498-7.92-11.3-9.372-2.803-1.446-6.67-3.575-6.67-3.575s-9.94-6.03-17.749-9.436c-9.414-4.1-26.372-9.562-44.813-5.669 0 0-11.067-3.629-31.077 2.554-7 1.922-18.884 5.081-25.547 6.194-9.875 1.647-19.894 1.815-27.655 2.637-4.09.435-6.813-.472-8.142 1.835-5.844 10.122 11.58 27.256 17.896 29.962-1.87 10.528.503 22.98 11.554 35.428 12.016 13.54 28.64 16.109 38.388 23.309 10.94 8.079 13.208 18.282 22.346 27.829 8.407 8.783 24.84 16.275 39.563 9.101 15.968-7.782 18.865-20.772 19.443-23.21.19-1.245-.53-2.506-2.135-3.28a41.99 41.99 0 0 1-1.51-.762c.636-2.543 2.257-10.193.657-16.863 0 0-4.514 6.606-7.926 10.262-.953-.895-5.335-5.33-4.609-10.585 2.003-.795 4.328-1.88 6.103-3.216a37.925 37.925 0 0 0 2.75-2.293c8.985-2.575 11.003-6.289 11.003-6.289.333.911 1.467 2.077 1.467 2.077 1.325-.747 3.089-2.077 3.089-2.077.17 1.08.148 2.993.148 2.993a5.71 5.71 0 0 1 1.32-.307c-.668 3.322-4.557 8.953-4.557 8.953 13.631-3.904 19.37-13.97 19.37-13.97l-.006-.053c.514-.106.874-.244.874-.244s9.15-2.6 13.35-11.57c4.201-8.969-3.396-17.663-5.737-18.797z"/>
  <path d="M82.32 21.942c.836.36 1.519 1.095 1.98 1.869-1.224-.09-2.452-.158-3.676-.211.567.196.958.386 1.058.433 0 0-1.016-.154-1.705-.17 0 0 .345.19.535.403 0 0 .037.403-.021.63-.053.234-.17.578-.037.96.132.386.518 1.245.576 1.552 0 0-1.175-.095-1.863-.111 0 0 1.9.922 2.478 1.271 0 0-.386-.02-.635 0 0 0-.652.382-.785.631-.137.25.001 1.383-.634 1.881-.63.498-1.48.38-1.745.688-.27.307.155.732.155.732s-1.377-.312-1.801-.35c0 0 .656.662 1.074.97 0 0-.54-.124-1.096-.05-.556.08-2.283.212-3.21-.513-.922-.731-.439-1.308-.227-1.536s.264-.52-.346-1.23c-.614-.71-.519-.708-.402-1.09 0 0 2.146.005 2.914.217 0 0-2.093-1.18-2.914-1.355 0 0 .037-.266.498-.616.46-.344 1.075-.62 1.281-1.484 0 0 1.549.297 2.428.43-.959-.366-1.405-.906-2.979-1.346 0 0 1.097-.053 1.51-.09 0 0 .754-.132 1.104-.46.143-.133.323-.302.55-.45-3.046.058-6.083.344-9.076 1.049-4.778 1.123-9.535 2.31-14.303 3.48-.037.01-.08.02-.117.031.805-.503 1.506-1.212 2.147-1.912-1.41.35-2.84.64-4.276.889-2.341.413-4.751.774-7.14.637-3.947-.228-7.894-1.13-11.74-2.014l-1.018-.238c.085.058 1.388.873 1.838 1.138 1.896 1.118 3.852 2.137 5.918 2.905.625.206 1.245.444 1.875.64.7.218 1.41.403 2.119.567.652.148 1.314.264 1.97.365 1.177.175 2.375.245 3.561.213 1.198-.027 2.39-.191 3.57-.408a42.482 42.482 0 0 0 4.06-.938c.222-.058.438-.128.655-.191 1.844-.567 3.628-1.383 5.35-2.262a40.023 40.023 0 0 0 1.373-.709c.01 0 .02-.006.031-.012-.026.032-3.2 2.666-4.758 3.62-.339.206-.683.411-1.033.613-.567.323-1.15.63-1.732.927-.498.26-.995.499-1.498.721-.265.117-.53.228-.8.334-.017.005-.026.016-.042.022-.138.068-.277.142-.42.216a26.965 26.965 0 0 1-2.818 1.553c-.01.005-.025.009-.041.02-.323.153-.646.302-.975.445-.005.005-.016.006-.021.012-.011.005-.017.004-.028.01-.884.386-1.796.737-2.691 1.06-.715.249-1.435.486-2.166.687-5.176 1.516-8.334 1.479-8.334 1.479.35.159.821.301 1.256.396 1.557.35 5.288.68 5.463.733.016-.005.026-.007.03-.012-.01.01-.106.117-.308.297-2.33 2.135-5.307 3.428-8.338 4.26a35.333 35.333 0 0 1-5.757 1.058c-.106.038-.18.087-.207.145-.827 2.58-.852 5.366-.71 8.047.08 1.44.255 2.876.514 4.3.006.006.004.017.004.022.186-.185.408-.387.662-.594 0 0 .77-.636 2.11-.832 0 0-.016-.02-.059-.052a.586.586 0 0 0-.058-.053c-.287-.244-.725-.366-1.112-.424-.106-.026-.207-.036-.297-.047.027 0 .117-.022.254-.043.837-.175 1.828-.329 2.639-.154.021 0 .037.001.059.012.492.11.926.44 1.191.863.026.048.047.09.068.133.032.058.06.115.08.174.006.015.01.032.016.043.021.058.042.121.053.18.016.057.026.117.037.175 0 .01.006.027.006.037a1.516 1.516 0 0 1-.127.82c-.318.705-.897 2.05-.897 2.559 0 .233-1.202 1.07-1.525 1.398-.021.022-.037.043-.053.059.032 0 .07-.006.102-.006.021-.005.051-.004.078-.01.355-.031.706-.095 1.06-.132.196-.016.375-.032.518-.032h.018s.825 1.535 1.466 2.05c.641.508 1.213 1.595 1.409 2.427l.021.004a.65.65 0 0 0 .266-.057c.01-.005.02-.012.03-.012a.859.859 0 0 0 .112-.047c.112-.047.207-.095.239-.11.121-.049.239-.102.36-.155.102-.048.217-.11.345-.174l.03-.016s-1.207 1.779-2.616 2.616c.09.015 1.213.181 1.77-.057.004 0 .01-.006.015-.006 0 0 .097 2.123-1.975 4.412-.143.159 1.541 2.158 2.574 3.328.043.048.08.09.118.137.031.037.068.074.09.105.079.09.158.175.216.239.064.08.11.133.137.16.074-.064.642-.55.934-.79a23.533 23.533 0 0 1 1.562-1.138c.503-.344 1.668-.965 1.668-.965.005 0 .01-.006.016-.011.058-.525.234-.827.382-1.012.196-.244.493-.297.737-.44.1-.058.212-.121.318-.238a.975.975 0 0 0 .11-.133c.02-.032.043-.062.064-.1a.898.898 0 0 0 .074-.142c.021-.042.037-.084.053-.127a3.03 3.03 0 0 0 .158-.482c.085-.323.356-.625.356-.625-.006 0-.016-.006-.016-.006a21.41 21.41 0 0 0-1.123-.371c-.599-.18-1.207-.34-1.816-.483-.403-.095-.812-.19-1.225-.27 3.179-2.102 6.696-3.67 10.314-4.894 1.208-.408 3.771-1.138 3.771-1.138-.36-.334-.714-.727-.894-1.092-.45-.896.317-2.242.635-2.75.323-.514-.254-.832-.254-.832.514-.387.896-1.022.896-1.022-.01 0-.016.006-.027.006-1.139.25-2.209.313-2.209.313l-.006-.006c-.636-.509-.889-1.595-.762-2.172.127-.572.381-1.473.381-1.473h-.021a2.784 2.784 0 0 1-.662-.027c-.371-.048-.695-.137-.78-.158l-.004-.006c2.427-.318 3.64-1.213 3.64-1.213-.011 0-.022.006-.032.006-.641.122-1.754.185-1.754.185v-.006c.01-.069.09-.716.572-1.039.18-.122.556-.122 1.006-.058.254.037.53.09.81.16.133.032.267.062.4.1.487.132.952.275 1.286.386.01 0 .011.006.022.006.959.323 1.408 1.6 1.408 1.6.26.826.668 1.424 1.15 1.875.006.005.01.011.016.011.222.196.46.365.709.508.095.064.197.118.303.16.1.048.2.095.306.137.308.127.62.227.922.307.196.053.393.101.578.138l.282.063c.17.037.321.1.464.185.43.244.742.69.953 1.13 1.69-.18 3.393-.33 5.082-.43a7.782 7.782 0 0 0-.683-.703c-1.7-1.569-4.08-2.575-6.215-3.258 4.249-.567 8.545-.737 12.82-.885 2.448-.09 4.896-.15 7.338-.176-.514-.429-1.223-.678-1.838-.922 1.436-.164 2.934-.026 4.37.08-1.224-.614-2.612-.965-3.92-1.351-.922-.27-1.849-.53-2.776-.774.016 0 .064.006.111.006-.016-.005-.033-.006-.049-.012.626.053 1.268.113 1.909.176.106.006.206.017.306.028 3.66.386 7.312.8 10.951 1.302 4.593.636 9.16 1.408 13.705 2.309 4.138.821 8.264 1.84 12.354 2.867a194.9 194.9 0 0 1 5.16 1.371 212.372 212.372 0 0 0-9.181-2.416c-2.182-2.05-4.334-4.104-6.643-5.99a246.884 246.884 0 0 0-17.529-3.975c-4-.752-7.707-1.36-11.14-1.841 3.501.333 7.288.772 11.378 1.355 5.33.763 10.268 1.643 14.834 2.58-2.49-1.77-5.128-3.247-7.718-4.847-.896-.551-1.818-1.128-2.586-1.854-.392-.366-.81-.827-.864-1.389a1.638 1.638 0 0 1 0-.322c0-.005.006-.016.006-.021.006-.07.016-.139.032-.207l.015-.065c.005-.016.018-.03.018-.047.02-.053.04-.123.056-.176a.81.81 0 0 1 .043-.1c.228-.529.635-1.012 1.043-1.35.059-.048.113-.1.182-.159.042-.037.085-.063.127-.105.058-.048.111-.091.164-.14.064-.047.126-.105.174-.148.005-.005.006-.003.012-.003.02-.016.04-.04.062-.055.01-.01.027-.02.037-.031l.012-.01c.021-.016.036-.027.047-.043l.142-.291c3.523-6.32 12.338-7.936 12.338-7.936a8.24 8.24 0 0 0-1.986-1.97c1.187-.419 2.676-.16 3.248-.034-.005-.026-.005-.051-.016-.078-.19-.768-.1-1.213.09-1.367 0 0 1.287.042 1.668.18-.137-.064-.714-.355-1.095-.656a101.876 101.876 0 0 0-4.467-.971c-6.05-1.176-12.241-1.626-18.387-1.854a85.247 85.247 0 0 0-3.295-.068zm38.09 6.656c-.251.175-.62.452-.96.785v.08c0 .975.705 3.016 2.205 4.24 1.944 1.59 5.565 3.18 5.565 3.18-.174-.615-.09-1.41-.09-1.41.53.879 1.682 2.204 3.445 3.18.113.063.233.122.361.181.546.26 1.262.566 1.977.848a16.55 16.55 0 0 0 1.565.513c1.899.392 3.914.71 5.82.235 1.145-.286 2.399-.854 3.295-1.659l-.002-.002c.005 0 .008-.005.013-.015-1.982.73-4.108.97-6.144.27a15.685 15.685 0 0 1-1.025-.381 5.497 5.497 0 0 1-.377-.176c-2.042-1.023-3.89-2.508-5.7-3.89-3.1-2.376-6.344-4.47-9.949-5.98zm24.61 2.287c6.254 6.466 1.84 11.986 1.84 11.986s-7.877-1.633-13.855-1.299c-2.852.164-6.22 1.457-8.965 2.762.027.004.055.004.076.01h.01c.588.02 1.125.08 1.623.175.329.063.642.138.932.229.88.27 1.6.65 2.178 1.08.197.143.378.291.54.445.086.074.167.152.24.233 1.362 1.388 1.643 2.937 1.643 2.937h.002c.053-.042.11-.091.172-.139.514-.381 1.078-.689 1.65-.974.472-.239.953-.462 1.44-.674a32.083 32.083 0 0 1 5.307-1.754c2.152-1.023 8.397-1.637 9.621-1.537 1.23.106 2.867.308 2.867-.408s-.715-3.276-2.66-7.162c-1.293-2.581-3.388-4.744-4.66-5.91zm-13.736 18.559c3.91-.143 6.752 3.917 7.51 4.94H138.905c2.258 0 4.543-.097 6.811-.038.255.006 2.493.107 2.615.117a81.557 81.557 0 0 1 6.193.637c.35.047.701.1 1.051.152 0 0-1.23-1.111-1.812-2.017-.583-.913-.531-1.877-.531-1.877l.002-.002c1.473-.09 2.327-.767 2.545-1.631.259-1.04-.891-1.887-.891-1.887l-.07-.027c.424.376.588.774.392 1.182-.944 1.945-5.953-.669-11.328-1.15-5.37-.483-12.598 1.6-12.598 1.6zm39.46-18.293c-.324.647-1.733 2.215-7.755 1.224.037.022.078.038.115.059a45.551 45.551 0 0 1 3.313 1.877c1.474.902 2.804 1.813 3.795 2.687 0 0 2.005-2.443.806-5.294a4.377 4.377 0 0 0-.238-.489c-.01-.02-.026-.042-.037-.064z" stroke="#9f792c" stroke-width=".312" fill="#9f792c"/>
  <path d="M31.46 15.915c-.96.069-1.926.126-2.886.18-5.28.28-10.564.158-15.838.482a38.03 38.03 0 0 1-2.343.068h-.032c.43.095.86.213 1.284.33a77.832 77.832 0 0 1 7.447 2.45c.933.36 1.86.74 2.777 1.138.975.43 1.94.88 2.889 1.357.259-.397 1.431-.398 1.431-.398l-.148-.307s.328.206.736.18c.032 0 .054-.005.08-.01l.297-.111c.133-.084.244-.203.498-.287.435-.154 1.04-.09 1.04-.09.164-.297.89-.582.89-.582a7.442 7.442 0 0 0-.318-.276c.291-.047.96.09 1.24.122.192-.017.345-.033.402-.065l.028-.016c.08-.063.132-.195.058-.312-.138-.127-.446-.223-.658-.318-.244-.111-.269-.27-.275-.313-.005-.01-.004-.016-.01-.021-.255.047-.84-.202-.84-.202s.49-.026.617-.107a3.17 3.17 0 0 1 .322-.146l.05-.05c.01-.005.02-.015.025-.02.016-.016.038-.03.048-.042l.02-.017s.404-.403.717-.493c.312-.084 2.894-1.287 2.894-1.287s-.706.043-1.338 0c-.667-.047-1.2-.222-1.2-.222-.277-.096-.065-.419.095-.616zm-24.553 4.55c-.84-.019-1.685.008-2.539.086 0 0 2.243.552 3.822 2.666-.493 2.079 2.194 6.685 6.254 10.215a66.96 66.96 0 0 0 2.301 1.94c-.731-.015-3.059-.068-3.059-.068 2.152 1.389 7.852 3.265 7.852 3.265-1.251.418-3.404.764-3.404.764.142.16 4.256 2.296 11.926 2.613 4.21.17 8.391-.568 12.27-2.21.038-.017.065-.033.09-.044a2.18 2.18 0 0 1 .124-.068c-.175-.053-3.907-.38-5.465-.73a6.78 6.78 0 0 1-1.252-.399s3.153.038 8.332-1.473c.731-.206 1.454-.44 2.164-.69.9-.323 1.806-.673 2.691-1.06l.028-.011c.005-.005.016-.004.021-.01.329-.143.652-.292.975-.445.016-.012.032-.017.043-.022.975-.456 1.909-.985 2.82-1.553.144-.074.28-.147.418-.216-3.308 1.314-6.675 1.765-10.236 2.02-3.064.216-7.522.339-12.086-.228-7.5-.938-11.465-3.462-11.465-3.462 6.854 1.203 10.474.99 12.123.714-2.502-1.59-4.648-3.593-7.447-5.341-5.848-3.656-11.422-6.117-17.3-6.253zm111.47 3.648c-1.109-.026-3.56.09-5.441 1.45l.207.129c.02.015.047.025.068.04l.145.096c.026.01.045.027.066.043.053.032.101.068.149.1l.048.033c.064.042.127.085.186.127 0 0 .006.004.012.004.052.037.099.07.14.102.017.015.039.027.055.042a.764.764 0 0 1 .068.047c.016.011.032.027.047.034.006.004.007.01.012.01.022.015.03.025.047.036 0 0 .007.006.011.006.017.011.026.02.026.02-.483-.117-1.48-.254-1.945-.318a10.23 10.23 0 0 0-.573.605s-.28.365-.445 1.303c-.052.302.116.999.424 1.27.307.264 1.268 1.148 1.422 1.566.154.424-.128 1.083-.065 1.369 0 0-.741-.478-1.16-.594.084.085.932.954.455 1.064 0 0-.424-.49-1.193-.835-.769-.345-2.184-1.041-2.608-1.422-.398-.361-.657-1.124-.683-1.22.047.064.281.378.492.415.213.037.838.44.918.492-.027-.063-.244-.587-.498-.799-.266-.233-.917-.542-1.262-.96l.381-.118s.107-.752-.063-1.494c-.573-.127-2.062-.387-3.25.031 0 0 1.078.695 1.989 1.967 0 0-8.815 1.617-12.34 7.936l-.145.29s-.014.018-.047.05l.075-.06s.01 0 .025-.005h.006c0-.006 0-.006.006-.006.138-.116 1.527-1.307 2.375-1.78 1.235-.688 2.612-1.114 3.959-1.523 1.399-.418 3.038-.747 4.49-.884 4.92-.467 9.786.354 14.35 1.902 4.441 1.506 8.53 3.812 13.082 5.031.58.156 1.163.295 1.75.42.109.023.219.044.328.066a16.515 16.515 0 0 1-1.56-.511 32.811 32.811 0 0 1-1.977-.848 4.697 4.697 0 0 1-.361-.182c-1.764-.975-2.913-2.3-3.444-3.18 0 0-.086.796.088 1.41 0 0-3.62-1.59-5.564-3.18-1.5-1.225-2.205-3.266-2.205-4.24v-.081a3.518 3.518 0 0 0-.672.85c-.536.985-.494 1.732-.494 1.732s-.462-.196-.88-.52c0 0 .212.891.966 1.268 0 0 .429.568.244.996 0 0-1.321-.106-1.63-.355-.307-.255-1.286-.61-1.286-.61s.327-.053.677-.03c0 0-.354-.864-.693-1.155-.34-.287-1.025-.813-.871-1.48 0 0 .807.056 1.193.21 0 0-1.271-1.102-2.05-1.277l1.064-.057s-.144-.752 1.209-1.41c1.357-.657 1.775-1.076 2.062-1.5.28-.424.397-.859.752-1.113 0 0 .664.376 1.188.773 0 0-.302-.895-1.262-1.553 0 0-.22-.026-.59-.035zm-17.3 11.777c-.472-.015-.95 0-1.42.032-.038.006-.579.064-.579.058.419 1.357 2.273 3.36 2.273 3.36-.88.063-2.01-.248-2.01-.248 1.633 2.194 6.15 4.955 9.665 5.644 3.514.69 6.71.563 6.71.563-.498.254-1.314.566-1.314.566s1.378-.064 3.26.313c.244.047.508.112.795.191 1.247.318 2.788.833 3.695 1.15.106.035.206.072.291.102a32.83 32.83 0 0 0-1.324-.85 53.573 53.573 0 0 0-3.361-1.955c-1.775-.938-3.6-1.812-5.47-2.554a73.299 73.299 0 0 1-3.442-1.872c-1.526-.885-3.041-1.818-4.483-2.841-.684-.482-1.478-.886-2.072-1.479-.038-.037-.086-.079-.123-.084a8.678 8.678 0 0 0-1.092-.096zm13.522.954c.78.18 1.608.805 2.233 1.244.382.27.725.589 1.091.875.075.057 1.028.642 1.07.642.133.048.276.08.409.08.465 0 .815-.318.847-.843h.002c.033-.53-.642-.827-.642-.827-.504-.138-1.018-.282-1.57-.425-1.096-.292-2.962-.656-3.44-.746zM77.047 50.298c.927.243 1.854.503 2.776.773 1.308.387 2.696.737 3.92 1.352-1.436-.106-2.934-.245-4.37-.08.615.243 1.324.492 1.838.921-2.442.027-4.89.086-7.338.176-4.275.149-8.571.318-12.82.885 2.135.683 4.515 1.69 6.215 3.258.244.222.472.456.684.705-1.69.1-3.39.248-5.08.428l.003.006c.334.683.446 1.373.446 1.373-.445.762-1.664 1.466-1.664 1.466.577.127 1.345 0 1.345 0-.323 1.086-.062 1.6-.062 2.686 0 1.091-1.347 1.541-3.455 1.86-2.109.317-3.004-.382-3.004-.382l.318-.71c-.704.127-2.754.197-2.754.197 1.346-.583 3.073-1.797 3.073-1.797-.827.323-2.55.736-2.55.736s-.518-.37-1.032-.857c0 0-2.564.73-3.772 1.138-3.618 1.224-7.136 2.792-10.314 4.895.413.08.822.174 1.225.27.609.142 1.218.302 1.816.482a21.4 21.4 0 0 1 1.139.377c.561-.63 1.558-1.086 1.558-1.086a2.704 2.704 0 0 0-.588 1.482.02.02 0 0 0 .016.006c1.123-1.78 3.02-1.636 3.02-1.636-.392.1-.88.392-.88.392s.831.292 1.663.535c.832.25 2.687.39 3.767.39 1.076 0 3.079.393 3.079.393.879-.29 3.576-.974 3.576-.974-.933.583-2.592 1.414-2.592 1.414 3.375 1.86.488 5.68.488 5.68s-.594.147-1.812 1.074c-1.224.932-1.52 2.152-1.52 2.152.636-.583 1.52-1.123 1.52-1.123-.25.392-.147.588-.688 1.807-.535 1.223-1.86 1.176-2.787 1.271-.927.1-2.443-1.023-2.443-1.023-.54.196-1.52 1.123-1.52 1.123.44-1.468 2.055-3.03 2.055-3.03-.683.292-1.906 1.17-1.906 1.17-.684-.535-3.09-1.224-4.7-2.103-1.615-.88-1.42-2.59-1.42-2.59.101-1.028.981-2.4.981-2.4-.54.296-1.123.933-1.123.933a3.027 3.027 0 0 1 .006-.54v-.016c-.005.005-.01.01-.016.01 0 0-1.166.62-1.67.964-.535.36-1.059.736-1.562 1.139-.291.238-.858.726-.932.79.085.094.148.163.18.194 2.675 2.882 5.822 5.399 9.049 7.645a82.622 82.622 0 0 0 4.656 2.988c5.631 3.354 11.581 6.193 17.578 8.82 3.714 1.632 7.242 3.737 10.33 6.385a34.2 34.2 0 0 1 5.318 5.68c1.802 2.442 3.116 5.191 4.743 7.75 2.69 4.238 5.895 8.19 9.699 11.475 2.172 1.875 4.55 3.55 7.13 4.81a19.7 19.7 0 0 0 2.151.917c.276.095.594.237.89.263-.078.689-.79 1.278-1.314 1.664 4.302.848 8.757.726 13.053-.021-.768.826-1.545 1.653-2.324 2.484 4.365-.17 8.84-1.51 12.766-3.353 3.777-1.775 7.227-4.238 10.03-7.348a29.996 29.996 0 0 0 4.2-6.017c.138-.265.17-.277-.08-.393-1.62-.848-3.538-1.218-5.34-1.414-5.456-.588-10.775 1.282-15.855 3.02-2.161.741-4.364 1.647-6.636 1.992-3.226.487-6.527.497-9.504-1.034-2.798-1.44-5.118-3.75-7.147-6.123-1.912-2.246-3.608-4.679-5.16-7.195-3.125-5.06-5.642-10.469-7.592-16.084-1.642-4.736-2.918-9.747-2.738-14.801.148-4.058 1.17-8.355 3.332-11.83 1.07-1.722 2.478-3.257 4.22-4.316a11.53 11.53 0 0 1 3-1.278 13.48 13.48 0 0 1 1.659-.322 247.109 247.109 0 0 0-16.901-3.227 238.523 238.523 0 0 0-11.195-1.478c3.507.217 7.312.536 11.418.986 34.949 3.841 54.014 13.148 54.014 13.148s1.553 1.023.705 2.305c-.408.615-1.245.54-1.844.375a79.929 79.929 0 0 0-3.91-1.775c-2.183-.97-5.213-2.22-9.064-3.608a26.318 26.318 0 0 0 2.638 4.149c1.41 1.811 3.073 3.444 5.006 4.705 2.554 1.663 5.515 2.526 8.545 2.754 2.935.222 5.865-.228 8.64-1.16 1.96-.657 3.799-1.61 5.727-2.33 2.665-.991 5.276-2.052 8.078-2.608a23.251 23.251 0 0 1 4.77-.455c.201.005.402.01.603.021.149.006.064-2.193.032-2.416a8.653 8.653 0 0 0-.493-1.927c-.487-1.277-1.25-2.528-2.351-3.36-.021-.02-.038-.031-.059-.052a13.465 13.465 0 0 0-1.744-1.39c-2.808-1.906-5.963-3.357-9.078-4.708-.28-.122-.562-.244-.848-.365-3.729-1.606-7.533-3.1-11.369-4.403.625.334 1.245.682 1.86 1.037.111.064.222.134.328.198.154.09.307.185.46.275.536.313 1.076.63 1.6.969 1.42.89 2.914 1.844 4.122 3.04a2.574 2.574 0 0 0-.663.08 15.54 15.54 0 0 0-.634.175 24.074 24.074 0 0 1 4.09 3.672c.158.174 1.514 1.933 1.556 1.933a26.82 26.82 0 0 1-2.527 1.028c-.424.143-.847.276-1.276.392-1.525.419-3.063.573-4.636.668a.724.724 0 0 1-.174-.012l-.006.012c-.043.111-.1.227-.18.338-.418.61-1.251.515-1.85.34a79.197 79.197 0 0 0-3.867-1.865c-7.21-3.397-23.77-10.173-48.874-14.65a242.233 242.233 0 0 0-10.86-1.711c-.005 0-.016.001-.021-.004-.021 0-.063-.007-.106-.012-.047 0-.095-.006-.111-.006zm108.43 5.98s-2.224 5.56-8.058 8.39c-4.184 2.031-8.025 4.395-10.48 7.21-.35.402-.672.817-.964 1.24l.043.004c5.914.657 8.82 3.154 9.773 4.369.065.084.116.159.164.228 0 0 .005 0 .022-.005.366-.065 6.302-1.135 9.97-5.18a4.994 4.994 0 0 1-.398 0c-.902-.037-4.369.059-3.492-1.686.291-.582 1.33-.422 1.845-.39.891.053 1.775.147 2.664.1 1.231-.07 1.458-1.182 1.766-2.2.292-.985.466-1.914.547-2.789-1.358 1.728-3.795 2.313-4.596 2.455-.054.01-.102.016-.138.022-.547.084-1.61-.08-1.467-.854.085-.477.741-.881 1.154-1.05 1.173-.477 2.323-.923 3.377-1.634a7.2 7.2 0 0 0 1.07-.853c.09-.085.573-.47.557-.613a11.232 11.232 0 0 0-.838-3.112 7.36 7.36 0 0 1-.625 1.133c-.647 1.103-1.447 1.612-1.734 1.772-.424.238-1.25.487-1.627-.244-.382-.727.668-1.352.668-1.352 1.548-1.119 2.175-2.253 2.43-2.994-.833-1.289-1.633-1.967-1.633-1.967zm-14.78 21.285c-1.199-.03-2.53.69-3.317 1.195-.17-.355-.495-.668-1.104-.88-1.834-.62-4.103 1.13-4.103 1.13.191-1.336-1.637-.955-1.711-.945-.541.043-2.811.765-4.153 1.518-1.987.694-4.61 1.537-7.51 2.236.546 3.091.378 5.264.378 5.264 3.08-1.595 5.628-4.872 7.181-7.237.334 1.59 1.674 3.739 1.674 3.739 2.153-1.336 4.072-3.278 4.072-3.278.664 1.199.553 3.711.553 3.711 1.515-.492 2.871-1.468 3.746-2.205-.97 5.131-4.076 10.113-4.076 10.113 3.637-1.367 10.575-8.756 11.025-10.766.44-2.008-.222-3.1-2.152-3.535a2.525 2.525 0 0 0-.504-.06zm-22.044 4.29c-3.37.804-7.103 1.42-10.639 1.378.62 6.292-4.967 11.97-4.967 11.97 9.054-2.54 13.808-9.822 15.266-12.437.154-.386.27-.706.34-.912zm-19.54 20.883s-2.89 7.09-6.224 10.557c-3.334 3.466-5.158 4.353-5.37 4.846-.212.483-.253 2.24 3.659 1.738 3.912-.504 6.673-3.42 6.673-3.42s5.355-.995 10.061-.353c0 0 1.305 1.42 3.165 1.287 1.861-.127 5.73-7.41 5.439-14.285 0 0-5.576 8.928-8.088 10.77 0 0-.6-1.455-1.336-2.177 0 0-3.06 2.062-3.67 3.195.063-.116-.55-.964-.613-1.076-.345-.566-.696-1.124-1.121-1.633-1.218.721-2.628 1.771-3.27 3.06.515-1.034.901-2.094 1.182-3.212.17-.689.292-1.389.361-2.094.249-2.427-.063-4.897-.847-7.203z" fill="#fff"/>
  <path d="M111.721 4.434c-4.509.005-7.191.67-7.191.67s2.02.122 6.228 1.596c.266-.085.615-.229.928-.452.605-.434.997-.52 1.256-.52.26 0 1.379 1.337 1.379 1.337s-.123-1.033-.34-1.902c0 0 1.102-.096 1.521 0 .616.143 1.125.35 1.342.35.218 0 .307-.263.307-.263s.387.257.387.565c0 0 .87.603.87 1.17 0 .562-.132 1.298 0 1.648 0 0-.218.129-.568-.433 0 0-.56.476-1.123.476a1.87 1.87 0 0 0-.69.137c1.94.865 4.135 1.93 6.6 3.25 0 0 .28.196.487.35 0 0 .203-.82.336-.948 0 0 .254.227.306.36 0 0 .047-.361-.027-.77 0 0 .69-.56 1.225-.613.541-.054.748-.05.922-.155 0 0 .121-.429-.06-.884 0 0 .904.523 1.083 1.191 0 0 .08-.406.053-.82 0 0 .944-.154 1.638.027.69.18 1.15.412 1.305.666.154.254.583 1.114.344 1.299-.244.186-.68.26-.807.467-.127.201-.179.38-.36.508-.174.127-.407.16-.407.16s-.048.71.132 1.07c0 0-.366-.048-.547-.482 0 0 .086.403-.173.69-.255.28-.432.456-.686.53 0 0-.631-.6-.683-.834 0 0 .07 1.416-.174 1.15 0 0-1.331-1.177-1.596-1.32 0 0-.572.085-.799.059-.233-.021-1.024-.328-1.178-.588 0 0-.028.309.407.615 0 0-.392-.063-.54-.132 0 0-.227.26-.636.365 0 0 .41.462.59.637 0 0-.808-.145-1.174-.532 0 0-.464.024-.975-.13-.513-.154-.822-.102-1.283-.028-.46.074-.535.026-.869-.053-.334-.074-1.25-.588-1.25-.588s.153.409.307.541c0 0-.08.335-.82.127-.743-.207-.772-.434-1.153-.668-.386-.227-.641-.562-.56-.843.073-.281.306-.489.306-.489s.23.208.637.387c0 0-.688-.868-.768-1.176 0 0 .36.074.541.1 0 0 .126-.487 1.201-.715.361-.08.664-.127.909-.164-2.96-.922-7.1-2.077-11.88-3.036-.08.09-.144.18-.201.275-.07.111-.13.228-.188.35-.175.36-.308.727-.588.964 0 0-2.22-.694-2.935-1.048 0 0 1.123.923 1.908 1.341 0 0-.676 1.118-3.024.854 0 0-1.085.472-1.94.38-.845-.089-2.137-.645-2.402-1.085-.266-.44-.235-1.353.677-1.883 0 0 1.245.758 1.86 1.107 0 0-1.097-1.367-1.012-1.806 0 0 .39-.323.857-.604a55.54 55.54 0 0 0-1.652-.203c-5.025-.567-9.472-.652-13.506-.424.319.461.253.89.508 1.352.307.561-.143.816-.143.816-.334-.276-1.732-.869-1.732-.869.53.504.98 1.203.98 1.203-.334.197-1.224.372-2.183.42-.96.044-2.323.836-2.323.836-.572-.17-1.06-.752-1.543-1.197-.09-.08-.173-.149-.238-.207-.02-.021-.048-.037-.064-.053-.016-.01-.025-.02-.035-.031-.016-.006-.033-.021-.05-.031.022.02.044.1.06.152 0 .006-.002.01.003.015a7.746 7.746 0 0 0 .102.26c.068.16.144.325.228.479.244.466.535.905.827 1.34.004.005.01.016.015.021.122.196.234.378.33.525.042.06.078.11.11.168l.021.04a.346.346 0 0 1 .037.056c.017.032.033.049.043.065l.022.037c.016.016.02.032.025.043-.121-.155-.502-.228-.687-.291-.011-.006-.023-.007-.034-.012a5.462 5.462 0 0 1-.922-.486c-.132-.091-.519-.447-.677-.39l-.096.034c-.016.006-.042.009-.064.02l-.122.033c-.048.01-.096.025-.154.04-.048.011-.099.023-.158.034-.068.016-.149.025-.229.041a3.585 3.585 0 0 1-.408.049h-.021c-.17.01-.36.016-.551.006-.981-.059-2.183-.897-3.021-1.74a1.285 1.285 0 0 1-.403-.926 78.43 78.43 0 0 0-2.57.65c-1.251.292-8.053 1.813-15.002 3.371.042.483-.158 1.003-.158 1.273 0 .483.387.848.387.848-.796.064-2.2-.467-2.2-.467.398.568 1.543 1.219 1.543 1.219s-.166.632-.691.85c-.525.217-.92.131-1.572.084-.658-.043-1.225.265-2.057.308-.832.043-1.852-.472-1.852-.472.918.085 1.602-.536 1.602-.536-1.177-.133-1.543-.568-1.676-.828-.095-.191-.385-.45-.65-.64l-9.055 2.023c-3.233.435-5.846.764-5.846.764-.159.196-.371.521-.095.617 0 0 .533.173 1.2.22.632.043 1.339 0 1.339 0s-2.583 1.205-2.895 1.29c-.312.09-.716.492-.716.492s-.01.005-.02.016c-.01.01-.033.027-.049.042-.005.006-.015.017-.025.022l-.05.047c.182-.08.41-.153.622-.18.387-.052.848.307.848.307s.408.075.816-.078c.419-.148 1.271-.128 1.229-.118-.265.043-.529.223-.784.223.207 0 .489.143.653.26.758.514-.203 1.181-.696 1.42-.752-.085-1.218.213-1.218.213s.97 0 .922.28c-.053.282-.487.461-.948.561-.461.102-.822.563-.822.563.207.026.387.229.387.229s-.49.052-.563.105c-.08.048-.334.615-.54.87-.203.254-.917.435-.917.435.329.18 1.377.306 1.377.306-.578.207-1.254.244-1.488.254a517.1 517.1 0 0 1 1.824 1.156c.005 0 .005.004.01.004l1.017.24c3.849.886 7.792 1.787 11.74 2.014 2.386.138 4.799-.221 7.141-.635a61.362 61.362 0 0 0 4.277-.89c-.64.7-1.34 1.409-2.146 1.912.036-.01.08-.02.117-.031 4.765-1.172 9.525-2.358 14.301-3.483 2.995-.704 6.031-.992 9.074-1.05a2.576 2.576 0 0 1 1.358-.422c1.097-.037 2.14.221 2.882.476 1.225.052 2.45.122 3.674.211-.456-.774-1.145-1.51-1.976-1.871 1.097 0 2.193.026 3.29.068 6.15.228 12.342.68 18.39 1.856 1.49.286 2.983.615 4.468.97.016-.005.112-.036.186-.185.074-.169.038-.54.38-.615.346-.08.961.229 1.114.308.154.074 1.023.62 1.299.752.16.075.227.339.254.567.816.228 1.628.461 2.44.71-.006 0-.007-.004-.012-.01-.016-.005-.031-.022-.047-.032a.764.764 0 0 0-.069-.047c-.016-.016-.038-.026-.054-.041-.042-.033-.09-.067-.143-.104-.005 0-.01-.004-.01-.004a5.65 5.65 0 0 0-.185-.127l-.05-.03c-.046-.033-.095-.07-.148-.102-.02-.016-.042-.033-.068-.043l-.143-.096c-.02-.015-.047-.025-.068-.041l-.207-.127c2.508-1.813 6.031-1.416 6.031-1.416s.806.107 1.398.309c0 0 .808-.4 1.407-.336.6.063 1.68.627 1.78.97.095.346-.202 1.41-.398 1.84-.202.43-1.277 1.085-1.886 1.293 0 0-.027-.054-.074-.133-.017-.026-.037-.052-.059-.084a2.505 2.505 0 0 0-.647-.664c.005.017.017.054.028.102l.031.101c.005.026.017.058.021.09.011.027.016.054.022.08.032.112.057.242.084.37a5.1 5.1 0 0 1 .047.312s-.128.07-.313.197c3.605 1.51 6.849 3.604 9.95 5.979 1.809 1.383 3.657 2.867 5.699 3.89.126.064.249.123.377.176.338.144.69.265 1.027.381 2.036.7 4.162.462 6.145-.27h.004l.113-.095a4.41 4.41 0 0 0 .363-.399c.106-.137.207-.275.303-.418v-.006a2.72 2.72 0 0 0 .148-.263c.647-1.209.69-2.62.477-3.918a7.12 7.12 0 0 0-.121-.662 13.398 13.398 0 0 0-.387-1.342 15.896 15.896 0 0 0-.424-1.092c-.048-.1-.09-.197-.127-.287-.021-.047-.042-.09-.062-.13-.038-.08-.076-.156-.108-.226-.02-.037-.037-.074-.058-.105a1.215 1.215 0 0 1-.043-.09l-.053-.096-.031-.062c.53.45.997.884 1.422 1.324 1.272 1.167 3.365 3.33 4.658 5.91 1.945 3.886 2.66 6.447 2.66 7.162 0 .716-1.637.515-2.867.409-1.224-.1-7.47.514-9.621 1.537h.01c1.426-.335 2.864-.557 4.183-.573 3.823-.047 9.17 1.054 10.77 2.481l.07.027s1.15.848.891 1.887c-.217.864-1.07 1.543-2.545 1.633 0 0-.054.964.53 1.877.582.906 1.814 2.017 1.814 2.017 1.786.27 3.56.621 5.326 1.008.016.006.032.011.053.016.97.323 2.04.466 3.031.72.558.149 1.113.292 1.67.446 1.22.333 2.433.69 3.637 1.082.768.249 1.537.504 2.3.78.202.069 1.157.554 1.294.454.382-.27 2.519-1.758 4.193-2.082 1.846-.355 3.572-1.05 3.572-3.123-.18-2.168-1.892-4.415-3.757-5.916 0 0-2.693 3.33-4.03 2.307-1.34-1.023.7-2.391.272-5.053-.426-2.66-9.15-11.623-20.17-18.232 0 0 5.099 2.103 10.023 4.717 6.021.99 7.43-.577 7.754-1.225a9.02 9.02 0 0 0-.663-.986 4.725 4.725 0 0 0-.894-.47c-.696-.266-1.351-.378-1.813-.606 0 0-1.06-1.07-1.41-1.584 0 0-.111.466.18 1.023 0 0-.816-.716-1.564-.87-.747-.154-1.649-.455-1.881-.63-.229-.175-.69-.578-.69-.578s.022.366.133.637c0 0-.767-.06-.9-.865-.133-.806.498-1.135.498-1.135s-.059-.227 0-.514c0 0 .69.763 1.017.96 0 0 .15-.488-.133-1.325l-.253-.145a11.975 11.975 0 0 0-.739-.369c-.195-.09-11.549-6.525-16.93-9.228a6.706 6.706 0 0 1-1.521-.319s-.9-.418-1.049-.847c0 0-.064.22.068.465.228.413.71.854.854 1.427 0 0-.898-.53-1.633-.912-.647-.334-1.999-.723-2.771-1.295a1.811 1.811 0 0 1-.366-.353 1.194 1.194 0 0 1-.238-.441.732.732 0 0 1-.033-.133c-.005-.022-.01-.037-.01-.06a.764.764 0 0 1-.006-.241c.022.016.027.02.037.031.01.011.021.02.041.031.011.011.033.027.055.043.318.276.663.582 1.066.694.03.01.068.022.1.027a.245.245 0 0 0-.037-.047 7.904 7.904 0 0 0-.143-.164 4.877 4.877 0 0 1-.726-1.063c-4.38-2.17-9.63-4.484-16.75-5.884a50.821 50.821 0 0 0-9.9-.988zM99.08 35.978c-.387.042-.78.09-1.166.154-1.16.186-2.304.46-3.385.73-.005.006-.165.043-.228.06-.07.015-.127.026-.158.036-.006 0-.006.001-.006.006h-.006c-.016.006-.026.004-.026.004l-.027.018c-.01.016-.026.025-.047.04l-.012.013c-.01.01-.026.02-.037.03-.02.017-.041.038-.062.054-.005 0-.007 0-.012.005-.048.043-.11.101-.174.149-.053.048-.105.089-.164.137-.042.042-.084.07-.127.107-.069.058-.123.11-.181.158-.408.34-.816.822-1.043 1.352a.81.81 0 0 0-.043.1 2.281 2.281 0 0 1-.059.175c0 .016-.01.031-.016.047l-.015.065a1.37 1.37 0 0 0-.031.205c0 .005-.006.016-.006.021-.01.106-.01.218 0 .324.053.562.471 1.022.863 1.387.768.726 1.69 1.305 2.586 1.856 2.59 1.6 5.229 3.078 7.719 4.847 25.266 5.197 38.727 12.311 38.727 12.311s1.515 1.076.63 2.326c-.429.604-1.262.503-1.855.323a74.763 74.763 0 0 0-3.85-1.906c-5.34-2.575-15.846-7.09-31.193-11.174 2.31 1.886 4.46 3.942 6.643 5.992 3.327.8 6.39 1.61 9.182 2.416.265.074.53.152.795.226 1.658.472 3.309.97 4.957 1.5 2.733.88 5.437 1.839 8.101 2.893.164.063.328.132.492.201.228.095.456.18.668.27 1.16.471 2.31.964 3.453 1.478.657.297 1.314.593 1.965.9.016 0 .027.005.037.016l.092.043.031.016s1.006.7.91 1.642c-.005.064-.02.133-.037.207-.01.037-.02.08-.037.118.074.01.134.015.176.01 1.573-.096 3.11-.25 4.635-.669.429-.116.853-.247 1.277-.39.863-.297 1.7-.648 2.526-1.03-.043 0-1.398-1.758-1.557-1.933a24.066 24.066 0 0 0-4.09-3.67c.201-.058.418-.123.635-.176.217-.053.445-.083.662-.078-1.208-1.197-2.701-2.151-4.121-3.041a41.517 41.517 0 0 0-1.6-.97c-.153-.09-.306-.186-.46-.276-.107-.064-.217-.132-.329-.195a63.939 63.939 0 0 0-1.86-1.04l-.02-.01a.057.057 0 0 1 .025-.005h-.031c-.758-1.023-3.603-5.08-7.512-4.938 0 0-.016-.078-.053-.21a6.196 6.196 0 0 0-.562-1.346c-.037-.075-.079-.143-.121-.217a6.36 6.36 0 0 0-.907-1.166 1.219 1.219 0 0 0-.142-.139 3.926 3.926 0 0 0-.266-.242 4.629 4.629 0 0 0-.248-.203l-.127-.094-.222-.16c-.08-.053-.16-.1-.239-.152-.079-.048-.165-.101-.25-.149a7.156 7.156 0 0 0-1.145-.514c-.105-.037-.21-.075-.322-.107a7.496 7.496 0 0 0-.931-.226 4.451 4.451 0 0 0-.383-.065 4.776 4.776 0 0 0-.291-.037 10.42 10.42 0 0 0-.947-.074c.005 0 .009.006.02.011.005.006.01.004.01.004.409.133.743.679 1.018.98.345.377.688.748 1.016 1.13.45.535.886 1.086 1.299 1.642a26.381 26.381 0 0 1 1.996 3.12c.291.54.562 1.097.8 1.664.123.28.228.57.345.857.052.138.107.276.144.414.021.074.031.318.084.365-.636-.598-1.218-1.238-1.865-1.832a47.804 47.804 0 0 0-1.219-1.082 45.42 45.42 0 0 0-4.486-3.431 35.255 35.255 0 0 0-.817-.551s-.005-.006-.01-.006-.01-.006-.015-.006a4.588 4.588 0 0 0-.291-.1c-.906-.317-2.449-.833-3.7-1.156-.286-.08-.55-.142-.794-.19-1.881-.375-3.258-.312-3.258-.312s.816-.314 1.314-.568c0 0-3.193.128-6.71-.56-3.513-.69-8.033-3.45-9.665-5.643 0 0 1.129.313 2.008.25 0 0-1.853-2.01-2.271-3.365z" fill="#d7a22a"/>
  <path d="M88.192 10.956c-.212.922-.031 3.525-.031 3.525-.424-.498-1.008-1.824-1.008-1.824s-.488-.212-.986-.106-1.315.604-1.389.922c-.068.324-.492.643-.492.643 0 .71.492 1.843.492 1.843-.53-.28-1.275-1.24-1.275-1.24-.144.25-.283.998.072 1.883.355.89 2.517 1.352 2.517 1.352 1.315.105 2.169-1.102 2.88-.996.71.106.98.093.98.093.211.287 1.219 1.188 1.219 1.188V16.76s.18-.053.859-.334c.673-.286 1.028-1.564 1.098-2.062.074-.499-.07-1.101-.569-1.6-.498-.493-1.24-.567-2.093-.424-.854.143-1.446.206-1.446.206-.288-.391-.829-1.59-.829-1.59zM67.997 13.33c-.8-.069-2.4.595-2.851.908-.457.313-1.287.656-1.95.693-.663.038-1.845.663-2.195 1.113-.35.457-.38.73-.38.73s-.489.284-.526.804c-.033.524-.005.777.138 1.021 0 0 1.023-.153 1.924-.535 0 0-1.432 1.569-3.107 2.264 0 0 1.739.014 2.576-.368.016 0 .182.022.568.733.409.747 1.765.853 2.952.89 1.181.032 1.563 0 1.95.032.382.037 1.427-.206 1.74-.45.292-.227.954-.762 1.034-.832-.1.033-.87.264-1.416.131 0 0 .52-.556.9-.588.388-.037 1.013-.418 1.188-1.011.176-.59.763-1.007 1.076-1.22.318-.206 1.496-1.018 1.602-1.935.106-.916-.383-1.647-1.947-1.753 0 0-1.324.625-2.856.8 0 0 .837-.383 2.156-1.427 0 0-1.006.175-1.457.207 0 0-.319-.138-1.119-.207zm39.438.519c.143.17.7.479.7.479s-.615.057-1.204.253c-.588.196-.812.7-1.119.897-.307.196-1.398.164-1.398.164.392.646 1.927 1.652 1.927 1.652-1.17-.28-3.19-1.228-3.19-1.228s-.725-.058-1.563.334c-.842.392-.929 1.26-.647 2.013.28.757 1.818 1.512 1.818 1.512-.678 0-1.726-.197-1.859-.219.127.096 1.26.908 2.395 1.172 1.203.282 2.263-.195 2.263-.195-.222-.334-.136-1.008-.136-1.008.885.911 3.042 1.855 3.207 1.924-.641-.45-1.416-1.562-1.416-1.562s.868-.336 1.287-.643c.419-.307 1.12-1.203 1.177-1.426.054-.223.53-.758.53-.758.536.308 1.177.366 1.177.366-.334-.34-.418-.926-.418-.926s.698-.277 1.27-.748c.572-.477.854-1.405.154-1.633-.7-.223-1.538.059-1.988.006-.446-.059-1.451-.117-1.451-.117-.366 0-1.516-.309-1.516-.309zm29.967 1.783c-.28 0-.534.045-.687.098-.308.1-1.528.101-1.528.101.509.477 1.188 1.426 1.188 1.426-.778-.577-2.374-1.426-3.022-1.426h-.136c-.638.032-1.479.26-1.766.61-.307.376-.95.545-.95.545.033.302.882 1.258.882 1.258-.509-.139-1.46-.579-1.46-.579s.611.815 1.188 1.059c.573.25 1.12.536 1.936.875.817.34 2.002.238 2.002.238-.169-.375-.885-1.293-.885-1.293.854.445 2.82 1.664 2.82 1.664.308-.068.615-.339.817-.609.2-.27.54-.035 1.119-.1.578-.068.918-.446.955-.918.031-.477-.172-.785-.988-1.357-.816-.577-.815-.984-.815-.984.381.095.884.306.947.332-.03-.064-.3-.555-.777-.778a2.01 2.01 0 0 0-.84-.162zm-13.59 1.457c.51.202.711.479.711.479s-.303.031-.615-.006c-.314-.031-.372-.165-.844-.235-.476-.068-.678-.068-1.256.17-.577.24-1.123.204-1.123.204-.678-.202-2.006-.34-2.006-.34.685.376 1.295.884 1.295.884-.239.17-1.188.541-1.394.643-.202.105-.646.513-.409.916.24.408.309.783.309.783-.61-.206-1.633-.375-1.633-.375.514.376 1.973 1.733 1.973 1.733-.579-.101-1.565-.477-1.565-.477s-.271.34-.234.647c.032.302.472.541.95.68.476.137 1.595.136 1.595.136 1.226-.176 1.967-.545 1.967-.545-.254-.446-.832-1.013-.906-1.082.11.027 1.408.409 2.06.504.679.1 1.362-.27 1.633-.578.27-.302.41-.44.902-.55.493-.113 1.135-.538 1.135-.538-.1-.329-.52-.932-.572-1.012.274.096.98.27.98.27s.546-.683.032-1.182c-.51-.498-1.39-.65-1.39-.65-.508-.34-1.595-.479-1.595-.479zm22.555.037c.1.345.361.684.361.684s-.164.18-.77-.047c-.598-.228-1.075-.133-1.075-.133 0 .567.67 1.522.67 1.522-.372-.149-1.131-.68-1.131-.68.08.605.504 1.076.504 1.076s.322.404 1.095.801c.775.393 1.45.238 1.45.238a2.63 2.63 0 0 1 1.754.844c-.213-.032-.467-.049-.467-.049-.211 0 .604.521 1.172.961.567.44 1.61.4 1.61.4-.084-.274-.624-1.556-.624-1.556.387.338 1.494 1.314 1.494 1.314s.21-.228.21-.55c0-.324-.618-1.12-.618-1.12s.473-.47.394-.763c-.084-.291-.521-.746-.748-.863-.213-.106-.685-.414-.744-.452.102.398.477.901.526.965-.06-.042-.54-.408-.663-.547-.127-.148-.94-.942-1.654-1.25-.715-.306-1.658-.015-1.658-.015-.324-.143-1.088-.78-1.088-.78zm-101.54 1.787c-.47.022-.879.108-1.02.264-.275.318-.869.875-1.564 1.432-.699.556-.486.986-.486.986-.557.206-2.332.476-2.332.476.557.207 2.066.561 2.066.561s.091.097-.29.484c-.388.382-.573 1.24-.573 1.24.593.345 2.431.77 2.431.77-1.006.137-2.416.39-2.416.39s.275.488 1.457.663c1.188.17 2.752-.768 2.752-.768 1.288.313 2.194-.45 2.194-.45-.276-.038-.906-.35-.906-.35.837.068 1.675-.106 1.675-.106.832-.488 1.182-.903.975-1.496-.212-.594 0-.974-.037-1.844-.037-.87-.678-1.23-.678-1.23 1.166-.307 1.516-.858 1.516-.858s-1.782.174-2.201.174c-.419 0-.414 0-1.182-.213-.382-.103-.911-.146-1.38-.125zm95.562 3.168c.476.271 1.203.717 1.203.717-.026 0-.869.005-1.271.742-.409.748.17.678.34 1.696.17 1.017 1.187.748 1.187.748-.302-.24-.191-.6-.191-.6.456.356.837.467 1.482.6.642.137.88.408.88.408-.538 0-1.218-.031-1.218-.031s.741.577 1.5.73c.757.16 1.076-.322 1.076-.322.716 0 1.532.338 1.532.338-.138-.276-.375-.885-.375-.885.339-.202.784-.985.037-1.494-.748-.509-.786-1.119-1.766-1.797-.985-.68-1.871-.408-1.871-.408.307.27.406.779.406.779-1.287-.779-2.951-1.22-2.951-1.22zm-62.643 1.04a2.569 2.569 0 0 0-1.355.423c-.229.15-.41.318-.553.451-.35.329-1.098.461-1.098.461-.418.037-1.51.09-1.51.09 1.568.44 2.016.98 2.975 1.346-.88-.133-2.428-.428-2.428-.428-.207.864-.817 1.139-1.277 1.483-.462.35-.498.615-.498.615.821.175 2.908 1.351 2.908 1.351-.769-.212-2.908-.216-2.908-.216-.117.38-.213.38.402 1.091.61.71.555 1.001.344 1.229-.212.228-.694.808.229 1.539.922.726 2.65.593 3.207.514.556-.075 1.097.047 1.097.047-.42-.308-1.076-.97-1.076-.97.424.038 1.8.35 1.8.35s-.422-.425-.152-.732c.265-.307 1.113-.189 1.743-.688.636-.498.498-1.633.636-1.882.133-.25.786-.631.786-.631.25-.022.636 0 .636 0-.578-.35-2.482-1.266-2.482-1.266.69.016 1.867.11 1.867.11-.058-.308-.446-1.166-.578-1.553-.133-.381-.017-.727.037-.96.058-.227.022-.63.022-.63-.191-.212-.536-.402-.536-.402.69.016 1.705.17 1.705.17-.1-.047-.491-.238-1.058-.434-.742-.255-1.788-.515-2.885-.478zm76.48.51c.212.232.19.497.19.497-.17-.016-.383-.016-.822.096-.445.117-.806.502-.806.502.323.302 1.363 1.555 1.363 1.555-.387-.175-1.156-.541-1.156-.541 0 .27.387.767.865 1.095.482.324 1.822.653 1.822.653.309.418 1.5.593 1.5.593-.096-.249-.789-1.324-.789-1.324.365.176 1.748 1.002 1.748 1.002s.228-.001.383-.234c.154-.228-.214-.996-.346-1.229-.137-.228-.364-.725-.826-1.166-.46-.445-1.459-.695-1.459-.695l.156.541c-.577-.599-1.824-1.346-1.824-1.346zm-21.315.142c-.407-.025-.808.057-1.078.277-.544.44-.777.486-.777.486-.572-.227-1.055-.18-1.055-.18a24.47 24.47 0 0 1 1.559 1.427c-.71-.1-1.899-.51-1.899-.51-.344.37-.239.68-.207 1.02.038.338-.338.575-.338.575.27.408 1.563 1.358 1.563 1.358-.376 0-1.832-.201-1.832-.201 1.017 1.018 2.378 1.001 2.713 1.017.339.016.682.133 1.191.102.509-.038.98-.649.98-.649.446-.17.843-.783.987-1.048.148-.27.61-.647.61-.647-.233-.44-1.124-1.25-1.124-1.25.976.138 2.211.943 2.211.943-.472-.778-1.187-1.15-1.187-1.15s-.58-.818-1.19-1.215a2.361 2.361 0 0 0-1.127-.355zm-23.869.26c-.343.074-.307.446-.38.615-.074.15-.171.181-.186.187.38.302.96.593 1.097.657-.382-.138-1.67-.18-1.67-.18-.191.154-.28.599-.09 1.367.011.027.011.052.016.078.17.742.063 1.496.063 1.496l-.381.117c.345.419.996.726 1.262.96.254.21.471.737.498.8-.08-.053-.705-.457-.918-.494-.211-.037-.445-.348-.492-.412.026.095.285.858.683 1.219.424.38 1.84 1.075 2.61 1.42.769.345 1.19.838 1.19.838.478-.111-.37-.982-.454-1.067.418.117 1.16.594 1.16.594-.064-.286.22-.943.065-1.367-.154-.418-1.116-1.304-1.422-1.569-.308-.27-.477-.965-.424-1.267.165-.938.445-1.305.445-1.305.128-.16.436-.465.574-.604.467.065 1.461.202 1.944.319 0 0-.01-.011-.026-.022a.03.03 0 0 1-.011-.004c-.016-.01-.026-.023-.047-.039a96.27 96.27 0 0 0-2.44-.709c-.026-.227-.094-.494-.254-.568-.276-.132-1.144-.678-1.298-.752-.153-.08-.769-.388-1.114-.308zm-15.797.087a1.26 1.26 0 0 0-.736.268c-.488.376-1.293.593-1.76.805-.466.217-.584.54-.584.54.36.144.918.971.918.971-.625-.143-2.041-.414-2.041-.414s-.033.392-.213.715c-.18.324-.66.345-1.096.578-.43.233-.79.627-.77 1.147.033.858 1.108 1.514 1.241 1.594-.366-.09-1.187-.229-1.187-.229.286.34 2.189 1.867 2.189 1.867a37.995 37.995 0 0 0-1.24-.105c.398.122 1.707.662 2.28.789.577.122 1.165-.111 1.165-.111-.211-.234-.752-.7-.752-.7.414.09 1.451.397 1.451.397a2.134 2.134 0 0 0 1.723-.953c.323-.483 1.045-.912 1.045-.912.366.047 1.638.212 1.797.228-.679-.398-1.332-.68-1.332-.68.504-.233.988-.555 1.146-.931.165-.377.36-.489.45-1.06.09-.573-.412-1.13-.412-1.13.466.106.863.233.863.233-.27-.233-.9-.645-.88-.88.017-.232.286-.27.503-.608.212-.345-.02-.812-.465-1.008-.45-.196-1.348-.25-1.348-.25.143.302.573.664.573.664-.827-.25-1.525-.685-1.88-.754a2.585 2.585 0 0 0-.648-.07zm28.533.002c-.599-.063-1.404.334-1.404.334-.593-.201-1.399-.308-1.399-.308.96.657 1.26 1.555 1.26 1.555-.524-.398-1.185-.774-1.185-.774-.355.254-.474.687-.754 1.111-.287.424-.706.843-2.063 1.5-1.352.658-1.207 1.412-1.207 1.412l-1.066.057c.78.175 2.05 1.277 2.05 1.277-.386-.154-1.19-.21-1.19-.21-.155.668.529 1.19.868 1.478.34.291.694 1.154.694 1.154-.35-.021-.678.033-.678.033s.98.355 1.287.61c.308.249 1.629.353 1.629.353.185-.428-.244-.996-.244-.996-.754-.376-.965-1.265-.965-1.265.417.323.879.52.879.52s-.042-.75.494-1.735c.164-.307.409-.594.674-.848.339-.333.709-.608.959-.783.185-.128.312-.197.312-.197a5.187 5.187 0 0 0-.048-.313c-.027-.127-.053-.26-.084-.37-.006-.027-.011-.054-.022-.081-.005-.032-.014-.064-.02-.09-.011-.037-.022-.07-.033-.101a1.833 1.833 0 0 0-.025-.1c.307.213.525.477.646.662l.059.086c.048.079.074.133.074.133.61-.208 1.685-.866 1.887-1.295.195-.43.49-1.494.396-1.84-.1-.344-1.181-.905-1.78-.969zM60.3 30.298c.308.381 1.613 1.25 1.613 1.25-.97-.18-1.537-.435-1.537-.435s-.408 0-.89.101c-.488.106-.971.6-.971.6-1.044-.016-1.644.81-2.205 1.272-.562.46-1.176.46-1.176.46.334.69 1.25 1.458 1.25 1.458-.715-.18-2.146-.87-2.146-.87-.234.408-.08 1.124.027 1.64.1.508-.457.856-.457.856.477.584 2.115 1.088 2.115 1.088-1.526.09-3.473-.095-3.473-.095.79.418 2.223.742 2.223.742s1.25.599 2.824.832c1.574.233 3.012-.832 3.012-.832s1.43.244 2.045-.47c.615-.717.127-1.742.021-2.022-.1-.281.001-.642.49-.668.487-.026.921-.461.921-.461.7-.09 1.867.005 2.069.021-.261-.064-2.062-.52-2.323-.965-.28-.487.508-1.228.508-1.79s-.587-1.23-1.457-1.458c-.87-.233-1.404-.08-1.404-.08-.487.027-1.078-.174-1.078-.174zm21.318 6.8a.839.839 0 0 0-.363.113c-.413.254-.462.716-.695.896-.228.18-.922.078-1.25.078-.334 0-.461.175-.567.408 0 0 1.383.536 2.072.971 0 0-2.121-.482-2.816-.535 0 0 .695.382.924.488 0 0 1.357.634 1.59 1.022 0 0-.587-.106-1.05-.127 0 0 1.098.588 1.813 1.224 0 0 .234 1.458.922 1.565.69.1 1.23.227 1.565-.028.327-.254.433-.668.433-.668s.435.08.764-.2c.333-.281.568-.796.875-.848.302-.048.662.18.87.154.201-.021.355-.154.355-.154s-.844-.33-1.967-.764c0 0 1.505.127 2.375.307 0 0 .284-.259-.457-.54-.742-.28-.391-.806-1.281-1.357-.869-.535-1.794-.996-2.737-1.224 0 0 .79 0 1.559-.053 0 0-.815-.308-1.483-.488-.497-.132-1.038-.282-1.45-.24zm-15.145 4.015a5.329 5.329 0 0 0-1.474.275c1.26.191 1.447.653 1.447.653s-2.015.348-2.434.486c-.418.138-.365.117-.365.398s-.186.748-.467 1.305c-.28.561-.228 1.955-.228 1.955.748.324 2.078.287 2.078.287-.795.185-1.899.647-1.899.647.186.657 1.262 1.632 2.1 2.427.837.79 1.182 1.479 1.182 1.479-.563.09-1.135.387-1.135.387s1.865.7 2.888.838c1.03.137 2.832-.674 2.832-.674.965.116 2.762-.117 3.207-.795.445-.678-.445-1.517-1.097-2.073-.652-.562-1.04-1.976-1.04-1.976.775.058 1.993-1.15 1.993-1.15s-1.93.465-2.444.093c-.513-.376-1.302-1.261-1.726-2.05-.42-.796-1.258-2.286-2.514-2.471a4.72 4.72 0 0 0-.904-.041zm-17.689.008c-.152-.02-.279-.022-.361.006-.329.104-.922.657-1.377.609-.456-.048-1.553-.182-1.781.316-.228.504-.34.998-.34.998s.982.19 1.845.465c0 0-1.87-.136-2.873-.047 0 0 .319.09.594.276 0 0-.593 1.05-.09 1.734.498.684 1 1.69 1.912 1.78.912.09 2.01-.088 2.01-.088s-1.048-.325-1.822-.553c0 0 1.547 0 2.734.414 0 0 1.96-.09 2.284-.504.318-.408.356-.695.77-.965.418-.265.735-1.043.55-1.637-.18-.593-1.367-1.187-1.367-1.187l-1.782-.498s.732-.14 1.235-.092c0 0-.048-.414-.594-.594-.41-.138-1.092-.372-1.547-.433zM77 44.123c3.434.482 7.14 1.09 11.143 1.843a243.646 243.646 0 0 1 17.527 3.971c15.346 4.087 25.852 8.598 31.195 11.174a76.556 76.556 0 0 1 3.848 1.908c.593.181 1.427.283 1.857-.322h-.002c.885-1.251-.633-2.328-.633-2.328s-13.456-7.113-38.723-12.312a249.229 249.229 0 0 0-26.213-3.934zm67.041 1.209c-1.32.015-2.755.238-4.181.572h-.012a32.08 32.08 0 0 0-5.307 1.754 27.83 27.83 0 0 0-1.44.674c-.572.285-1.136.593-1.65.974-.063.048-.121.097-.173.139 0 0 7.23-2.084 12.6-1.602 5.374.482 10.383 3.097 11.326 1.15.196-.407.031-.805-.393-1.18-1.6-1.428-6.947-2.53-10.77-2.481zm-104.62 2.98c-.488-.031-.889 0-1.111.159-.446.323-1.41 1.537-1.729 1.855-.317.323-.572 1.219-.445 1.856 0 0-.83.451-1.408.451 0 0 1.086.253 3.201-.064 0 0-1.092.573-1.537 1.023 0 0 .64 1.15.64 2.363 0 1.22-.074 2.736-.101 3.256 0 0 1.38-.244 2.467-.244 0 0-2.047.96-2.498 1.596 0 0 .26 2.496 1.988 2.941 1.728.45 2.555-.508 3.324-1.404.768-.896 2.24-2.11 2.813-2.56h.002c.578-.446 1.155-2.688.26-3.585-.302-.296-.584-.555-.838-.81-1.32.456-2.555.492-2.555.492.716-.254 1.568-.726 2.066-1.023-.27-.33-.482-.673-.593-1.086-.26-.96-.768-2.815-.768-2.815s-.705 0-1.537-.133c0 0 1.791-.572 2.496-1.086 0 0-.58.065-1.156-.062 0 0-.19-.706-1.34-.897-.575-.095-1.152-.19-1.64-.222zm37.69 1.98c.015.004.03.004.046.009.042.005.084.012.105.012.006.005.017.004.022.004 3.37.445 6.946 1.011 10.86 1.71 25.102 4.477 41.663 11.253 48.878 14.648a79.255 79.255 0 0 1 3.867 1.866c.599.174 1.43.27 1.848-.34.08-.111.137-.227.18-.338l.006-.012c.015-.037.026-.078.037-.115.016-.074.032-.143.037-.207.095-.943-.912-1.643-.912-1.643l-.032-.015c-.031-.016-.058-.027-.09-.043a.047.047 0 0 0-.036-.016c-.652-.307-1.31-.604-1.967-.9a103.975 103.975 0 0 0-3.453-1.479c-.212-.09-.44-.174-.668-.27-.165-.068-.328-.137-.493-.2a131.242 131.242 0 0 0-8.1-2.893c-1.647-.53-3.3-1.029-4.958-1.5-.265-.074-.53-.152-.795-.227a194.682 194.682 0 0 0-5.16-1.373c-4.09-1.026-8.22-2.043-12.36-2.864-4.543-.9-9.11-1.674-13.703-2.31-3.64-.503-7.29-.916-10.95-1.303-.1-.01-.202-.022-.308-.027-.64-.064-1.281-.12-1.906-.174zM52.653 51.91c-.173.008-.31.039-.4.1-.482.323-.562.968-.573 1.037v.006s1.113-.064 1.754-.186c.01 0 .021-.006.032-.006 0 0-1.215.895-3.641 1.213l.006.006c.085.021.408.11.78.158.216.032.45.049.661.028h.022s-.256.9-.383 1.472c-.127.578.128 1.664.764 2.172l.006.006s1.07-.063 2.209-.312c.01 0 .014-.006.025-.006 0 0-.38.637-.895 1.023 0 0 .577.316.254.83-.318.509-1.085 1.855-.634 2.75.18.366.534.758.894 1.092.514.488 1.033.858 1.033.858s1.723-.414 2.55-.737c0 0-1.73 1.214-3.075 1.797 0 0 2.051-.07 2.756-.197l-.319.71s.896.7 3.004.382c2.109-.318 3.453-.768 3.453-1.86 0-1.086-.258-1.6.065-2.685 0 0-.768.127-1.346 0 0 0 1.22-.704 1.664-1.467 0 0-.111-.69-.445-1.373l-.006-.006c-.212-.44-.524-.883-.953-1.127a1.565 1.565 0 0 0-.467-.185c-.09-.022-.184-.044-.28-.065a9.037 9.037 0 0 1-.577-.137 7.244 7.244 0 0 1-1.229-.445 1.659 1.659 0 0 1-.303-.16 4.347 4.347 0 0 1-.709-.508c-.005 0-.012-.004-.017-.01-.482-.45-.889-1.048-1.149-1.875 0 0-.45-1.278-1.41-1.601-.01 0-.009-.004-.02-.004a25.11 25.11 0 0 0-1.685-.489 8.692 8.692 0 0 0-.81-.158 3.453 3.453 0 0 0-.606-.04zm19.98 15.875a3.634 3.634 0 0 0-1.273.317c-1.171.508-2.903 1.002-2.903 1.002s-1.6.767-1.812 1.074c.032-.074.323-.678.752-1.012 0 0-1.468.005-2.543.053-1.065.048-2.23.154-2.383 1.166-.148 1.017.152 1.526.607 1.88.456.356 2.188 1.421 2.543 1.776 0 0 1.166-.763 2.082-.965 0 0-1.98 1.42-2.435 2.188 0 0 .863-.455 1.473-.455 0 0 1.572.965 2.584.965 1.017 0 2.945-.309 2.945-.309s1.118-.757 2.342-.863c0 0-1.276.863-1.578 1.271 0 0 .509-.052.816.155.302.2 1.318.401 2.234.046.912-.355 1.824-.708 1.776-1.826-.053-1.118-.71-2.437-.71-2.437s1.198-1.002 1.86-1.315c-.159.021-1.457.217-2.267.551 0 0-1.012-2.035-2.082-2.691-.67-.411-1.337-.606-2.028-.57zm-25 1.436s-1.896-.144-3.02 1.636c-.005 0-.01 0-.015-.005.005-.143.069-.831.588-1.483 0 0-.995.456-1.557 1.086 0 0-.27.302-.355.625-.048.19-.1.35-.158.482a1.31 1.31 0 0 1-.055.127.895.895 0 0 1-.072.143c-.022.037-.044.07-.065.102a.979.979 0 0 1-.111.132c-.106.117-.218.18-.319.239-.243.143-.54.195-.736.44-.148.185-.322.486-.38 1.01v.016c-.017.165-.022.34-.007.541 0 0 .583-.637 1.123-.933 0 0-.88 1.373-.98 2.4 0 0-.196 1.71 1.42 2.59 1.61.88 4.016 1.569 4.699 2.104 0 0 1.225-.879 1.908-1.17 0 0-1.617 1.561-2.056 3.029 0 0 .98-.927 1.521-1.123 0 0 1.514 1.124 2.442 1.023.927-.095 2.252-.047 2.787-1.271.54-1.219.438-1.415.687-1.807 0 0-.884.54-1.52 1.123 0 0 .296-1.218 1.52-2.15 1.219-.927 1.813-1.076 1.813-1.076s2.888-3.82-.487-5.68c0 0 1.658-.831 2.59-1.414 0 0-2.697.683-3.576.974 0 0-2.003-.392-3.078-.392-1.081 0-2.934-.142-3.766-.39-.829-.245-1.662-.537-1.662-.537s.487-.292.88-.392zm13.957 11.63c-.074 0-1.282.01-2.082.657 0 0-2.452.255-2.924 1.908-.476 1.658.741 2.834 1.096 3.094 0 0 .494-.774 1.49-1.262 0 0-.568.917-.547 1.68 0 0 2.093 1.108 6.268 1.685 4.18.578 3.878.269 5.346 1.18 0 0 1.552-1.096 2.41-1.355 0 0-1.21 1.716-1.32 2.357 0 0 1.939 1.654 3.539 1.775 1.605.128 2.978-.493 2.808-2.146l.578-.709-1.023.074.297-.556s-.048-.843-.514-1.495c.08.043.88.477 1.637.27l-.223.42s.875-.102 1.522-1.21l-.532-.142s-.042-1.218-1.16-2.373c-1.112-1.155-2.198-1.537-2.85-.896 0 0-.327-1.229-1.08-1.563-.756-.335-1.27-.27-1.27-.27s-2.946.586-4.159 1.333c.239-.153 2.187-1.414 2.881-1.859l-1.636.377s-1.723.006-3.323-.121c-1.594-.122-5.281-.504-5.965-.371 0 0 .461-.318.737-.483z"/>
  <path d="M109.441 36.367c-1.183-.004-1.83.08-1.83.08s6.768 5.355 10.717 6.374c3.944 1.017 9.393-2.415 9.393-2.415s-1.85-.623-5.444-1.648a1.818 1.818 0 0 1-1.473 2.879 1.821 1.821 0 0 1-1.824-1.816c0-.075.011-.144.016-.213-.043 0-.996-.583-1.07-.64-.367-.287-.71-.605-1.092-.876-.625-.44-1.457-1.072-2.236-1.246-.037-.006-.075-.016-.112-.022-2.142-.357-3.861-.452-5.045-.457zm47.645 21.18c-1.76.054-3.058.793-3.058.793s6.297 0 8.597 1.993c2.306 1.999 1.692 3.535 1.692 3.535s2.298 3.685 2.914 5.217c0 0 4.298-3.99 4.607-6.752 0 0-8.343-4.247-13.973-4.762a6.417 6.417 0 0 0-.78-.023zM95.84 70.517c-2.43.008-3.615.688-3.615.688s4.873 1.165 7.623 6.174c4.15 7.539 1.197 20.87 4.293 27.988 3.832 8.804 10.84 11.18 10.84 11.18 9.192-4.94 11.164-12.617 11.164-12.617-7.866-4.075-4.088-15.408-6.435-22.803-2.35-7.39-11.078-8.82-11.078-8.82s7.15 2.916 7.34 23.578c.062 6.95 2.19 9.89 2.19 9.89-3.609-1.923-4.558-9.016-4.882-14.507-.165-2.794-1.298-16.396-11.703-19.756-2.37-.768-4.278-1.002-5.736-.996zm35.871 36.054.322 3.561 2.477 1.607c.71-2.872-2.799-5.168-2.799-5.168z" fill="#006778"/>
</svg>