<svg xmlns="http://www.w3.org/2000/svg" width="296" height="176.57" viewBox="0 0 298 178.57">
  <path d="m296.407 80.458-.095-.398c-5.6-19.037-28.311-40.204-62.313-58.076C204.827 6.653 170.444 1.23 149.686 1.23h-.961c-20.767 0-55.159 5.426-84.327 20.754C30.396 39.854 7.686 61.022 2.085 80.06l-.094.396a47.144 47.144 0 0 0-.786 9.058c-.029 3.053.235 6.1.786 9.056l.094.396c5.599 19.037 28.31 40.204 62.313 58.076 29.172 15.331 63.565 20.754 84.323 20.754H149.668c20.768 0 55.164-5.424 84.332-20.754 34.002-17.87 56.712-39.037 62.313-58.076l.095-.398c.549-2.955.813-6.002.785-9.055a47.284 47.284 0 0 0-.785-9.056z" fill="#fff"/>
  <path d="M148.733 9.227c-19.86 0-52.73 5.184-80.61 19.837C36.621 45.621 14.853 65.44 9.825 82.121a39.143 39.143 0 0 0-.613 7.348v.084c-.026 2.48.18 4.95.613 7.348 5.029 16.683 26.798 36.498 58.298 53.057 28.043 14.737 61.12 19.902 80.947 19.836H149.666c19.86 0 52.734-5.184 80.614-19.837 31.5-16.555 53.27-36.37 58.301-53.053.432-2.398.638-4.87.613-7.35v-.082a39.277 39.277 0 0 0-.613-7.35c-5.03-16.682-26.8-36.498-58.301-53.057-27.88-14.652-60.743-19.837-80.596-19.837l-.352.001H148.732zm29.258 37.884c3.2 0 5.538.35 7.016 1.051 1.37.655 2.057 1.653 2.057 2.993 0 .99-.336 2.164-1.006 3.52-.99 2.01-1.988 3.519-2.994 4.524-1.813 1.813-4.967 2.72-9.46 2.72-3.2 0-5.53-.35-6.992-1.051-1.387-.656-2.08-1.654-2.08-2.994 0-.99.335-2.163 1.007-3.52.989-2.01 1.987-3.519 2.993-4.524 1.812-1.813 4.965-2.72 9.46-2.72zm-106.208.366h7.724l1.326 6.032 3.108-6.032h6.855L83.3 61.553h-7.357l-1.417-6.536-3.382 6.536H64.29zm22.3 0h16.75l-1.898 3.564h-8.57l-.959 1.714h7.975l-1.828 3.45H97.6l-.983 1.783h8.866l-1.897 3.565h-17zm18.283 0h8.112l-1.668 6.558 4.844-6.558h7.998l-1.874 6.603 5.073-6.603h7.656l-12.568 14.076h-8.455l1.302-5.462-4.616 5.462h-8.455zm35.916 0h8.569l-.113 4.364 4.318-4.364h7.884l-11.266 9.711-2.331 4.364h-8.912l2.469-4.615zm43.651 0h13.025c1.752 0 2.963.335 3.634 1.005.487.488.731 1.18.731 2.079 0 1.371-.487 2.545-1.462 3.52-.518.517-1.06.906-1.622 1.165-.503.214-1.212.396-2.125.548 1.34.427 2.01 1.074 2.01 1.943 0 .487-.175 1.05-.525 1.69l-1.166 2.126h-8.501l1.463-2.743c.198-.365.297-.684.297-.959 0-.594-.388-.891-1.165-.891h-1.21l-2.423 4.593h-8.456zm22.627 0h8.683l-3.404 6.375 7.016-6.375h7.882l-7.792 6.878.891 7.198h-8.363l-.412-6.238-3.312 6.238h-8.683zm-37.002 3.199c-.533 0-.97.144-1.314.431-.342.288-.682.75-1.016 1.386l-1.92 3.59c-.274.514-.411.953-.411 1.317 0 .636.38.953 1.142.953.533 0 .982-.15 1.348-.453.32-.274.648-.728.983-1.364l1.92-3.588c.274-.516.41-.955.41-1.318 0-.636-.38-.954-1.142-.954zm20.819.365-1.805 3.291h1.623c.731 0 1.31-.396 1.735-1.189l.343-.64c.153-.289.23-.548.23-.777 0-.456-.29-.685-.869-.685zm36.055 21.437c15.648 0 21.362 2.486 21.362 8.445 0 2.049-.313 3.602-1.117 5.403h-18.82c.497-.933.811-1.739.811-2.856 0-1.367-1.555-2.362-4.286-2.362-3.415 0-5.155 1.43-5.155 2.981 0 1.367 1.554 1.862 9.686 3.789 8.14 1.925 11.053 3.726 11.053 8.138 0 3.6-1.613 7.263-4.717 10.37-3.911 3.908-9.751 6.335-24.22 6.335-17.138 0-22.105-2.795-22.105-8.696 0-1.739.374-3.54 1.368-5.527h19.184c-.556 1.118-.805 2.049-.805 3.167 0 1.488 1.427 2.42 4.406 2.42 3.293 0 5.218-1.18 5.218-3.226 0-1.865-1.677-2.298-10.308-4.472-8.074-2.049-10.37-3.601-10.37-7.95 0-2.918 1.613-6.522 4.595-9.5 4.222-4.223 10.06-6.46 24.22-6.46zm-151.491.994h23.598L95.848 93.904c-3.043 5.712-4.969 8.94-8.011 11.983-4.531 4.533-12.046 6.834-23.224 6.834-15.527 0-21.984-3.728-21.984-10.683 0-3.54.872-6.086 2.983-9.937l2.446-4.651H68.18l-4.997 9.56c-.619 1.178-1.116 2.543-1.116 3.474 0 1.366.684 2.359 2.42 2.359 2.608 0 3.914-1.74 5.653-4.966zm27.482 0h45.52l-5.158 9.687h-23.29l-2.605 4.657h23.525l-4.968 9.378h-23.463l-2.671 4.844h24.093l-.113.212c-3.928.69-8.82 2.012-13.609 4.535-2.954 1.557-5.568 3.223-7.802 4.941H90.054zm49.484 0h48.932l-5.215 9.75h-11.737l-14.676 27.493a56.98 56.98 0 0 0-6.525-3.976c-4.625-2.424-9.35-3.727-13.206-4.43l10.188-19.087H154.69zm-10.807 30.36h.221c4.294 0 12.753 1.028 20.28 4.974 8.319 4.36 13.612 9.436 14.866 13.685.026.141.046.278.066.415l-1.002 1.204c-5.535-.386-11.07-.602-16.605-.747a307.82 307.82 0 0 0-5.142-.115 19.701 19.701 0 0 0-.407-2.688 175.99 175.99 0 0 1-.566-.475 224.04 224.04 0 0 0-1.642-.06c-.121.15-.245.301-.372.452.5 2.897.5 5.793 0 8.69.127.15.251.3.372.45.548-.018 1.094-.037 1.642-.059l.566-.474c.201-.897.332-1.792.407-2.689 1.713-.027 3.427-.058 5.142-.115 5.535-.145 11.07-.361 16.605-.746l.936 1.124c-1.255 4.249-6.547 9.325-14.865 13.686-7.529 3.946-15.987 4.974-20.28 4.974h-.222c-4.276 0-12.774-1.037-20.327-5.017-8.264-4.354-13.53-9.41-14.81-13.647l.93-1.12c5.53.386 11.061.603 16.592.747 1.914.064 3.829.094 5.744.124.074.894.205 1.786.405 2.68l.566.474c.547.022 1.094.04 1.641.059.122-.15.246-.3.372-.451-.5-2.897-.5-5.793 0-8.69-.126-.15-.25-.3-.372-.45-.547.017-1.094.037-1.641.058l-.566.475c-.2.893-.33 1.786-.405 2.678-1.915.03-3.83.061-5.744.125-5.531.144-11.062.361-16.592.746l-1.008-1.211c.017-.11.032-.219.052-.332 1.246-4.252 6.528-9.339 14.836-13.717 7.553-3.98 16.051-5.016 20.327-5.016zm-.416 16.036c-.154.16-.31.32-.468.48-.07 2.982-.07 5.965 0 8.946.157.161.314.321.468.481.548.002 1.095.002 1.643 0l.468-.481c.07-2.981.07-5.964 0-8.946-.158-.16-.313-.32-.468-.48h-1.643zm-3.6.032a269.5 269.5 0 0 0-1.642.029l-.517.483a36.762 36.762 0 0 0 0 8.82c.173.16.345.32.517.482a269.5 269.5 0 0 0 1.642.03c.138-.158.279-.314.42-.471a61.236 61.236 0 0 1 0-8.903 52.399 52.399 0 0 1-.42-.47zm8.843 0a44.06 44.06 0 0 1-.42.47 61.236 61.236 0 0 1 0 8.903c.142.157.282.314.42.47a269.5 269.5 0 0 0 1.642-.029c.171-.161.344-.322.517-.482.354-2.94.354-5.88 0-8.82-.173-.16-.346-.322-.517-.483a269.5 269.5 0 0 0-1.642-.029zm-39.998 6.635.018.079-.01-.03-.008-.05z" fill="#115740"/>
</svg>
