<svg xmlns="http://www.w3.org/2000/svg" xml:space="preserve" height="148.42" viewBox="0 0 193.888 148.418" width="193.89">
  <path d="M170.945 47.46s2.388-2.048 4.886-2.003c2.504.039 4.232.878 5.172 1.879 0 0 1.991-.272 4.153.32 2.16.597 5.21 2.378 6.397 4.453 1.187 2.078 1.324 4.465.091 6.725 0 0 .41 1.536-.6 3.442-1.018 1.91-2.678 2.902-2.678 2.902s-1.136 2.823-4.099 4.135c-2.97 1.315-6.867-.17-6.867-.17s-2.208.43-3.873.43c-1.678-.003-4.019-.723-4.738-1.061 0 0-1.989 2.917-2.543 3.612 0 0 2.716 2.362 5.687 3.293 2.965.93 5.297 1.355 6.656 2.327 1.348.98 1.867 1.932 1.867 1.932s2.073-.322 4.062.147c1.994.467 4.32 2.033 5.848 4.113 1.527 2.078 2.459 4.743 1.823 7.281-.636 2.547-2.089 3.472-2.089 3.472s-.708 2.338-2.15 3.774c-1.438 1.45-3.491 1.543-3.491 1.543s-1.127 1.512-4.052 1.976c-2.922.468-5.015-1.149-5.015-1.149s-2.31.262-5.454-.714c-3.135-.97-5.282-4.184-5.282-4.184s-2.042-.982-5.817-1.155c-3.774-.171-12.2-1.866-15.952-4.047 0 0-2.206 1.065-8.893 1.41 0 0-.99-3.018-2.93-4.531 0 0-5.747 3.188-7.563 4.03-1.825.851-5.2 2.32-8.135 2.497 0 0-.77 4.792-2.171 7.38-1.396 2.588-4.083 4.51-6.36 5.265 0 0 3.313 1.175 5.056 3.759 1.732 2.589 2.327 5.426 1.143 7.713-1.19 2.289-2.53 2.91-2.53 2.91s-.68 2.311-3.355 3.511c-2.68 1.201-6.046.565-6.046.565s-1.864.982-4.417.963c-2.557-.023-5.76-2.197-5.76-2.197s-8.381.767-10.875.557c-2.492-.2-5.445-1.235-6.852-4.916 0 0-1.531 1.279-3.816 2.382-2.288 1.101-6.623 3.225-9.737 5.443l.104 1.655s4.552 1.714 4.844 6.374c.299 4.662-2.248 6.392-2.971 6.886 0 0-.969 2.102-3.047 3.16-2.075 1.055-4.37.569-4.37.569s-5.117 2.27-9.019-1.46c-3.903-3.726-2.798-7.752-2.753-8.731.039-.97.323-9.514.282-9.91 0 0-1.937-2.59-1.514-5.514.424-2.923 2.67-4.748 3.727-5.636a9.22 9.22 0 0 0 2.965-4.617c.634-2.243.678-6.828.892-8.52.214-1.696.303-4.536.303-4.536s-7.67-2.114-11.658-6.565c-3.984-4.452-5.089-7.673-6.11-12.074-1.01-4.407-1.728-8.86-5.778-11.358 0 0-2.652.759-5.698-.47-3.053-1.225-4.92-3.684-6.867-6.1-1.951-2.415-8.894-3.518-11.361-3.643 0 0 5.212-5.767 12.25-8.224 7.033-2.454 10.38-1.484 12.713-.168 2.332 1.314 4.165 3.526 5.027 6.531 0 0 4.587 1.984 7.728 5.674 3.135 3.683 4.618 6.947 5.64 10.972 1.015 4.03 2.294 8.911 10.38 10.685 0 0 4.79-4.79 6.606-5.982 1.827-1.182 4.111-1.854 4.77-2.048.654-.193 3.735-1.195 3.735-1.195s4.84-3.947 5.628-4.735c0 0 1.804-3.206 2.948-5.07 1.145-1.864 2.935-3.713 2.935-3.713s-2.35-4.366-2.22-9.143c0 0 1.157.525 2.193.675 0 0-.071-3.538 2.221-6.802 2.288-3.269 4.597-5.315 4.597-5.315s-.175-4.299 2.43-8.372c0 0-1.985-3.18-2.155-5.214 0 0 3.304-.296 5.805-1.017 2.503-.72 3.729-1.226 5.002-2.759 1.27-1.523 4.319-5.252 8.177-7.077 3.861-1.82 8.138-2.483 11.21-2.24 0 0-1.884-1.616-3.968-2.291 0 0 3.553-2.617 10.55-3.364 0 0 .051-3.543.808-5.408 0 0 9.288 6.356 13.945 8.18 4.663 1.826 8.05 2.416 10.467 3.606 2.408 1.18 4.12 3.368 4.513 4.715 0 0 2.603 1 4.595 2.4 1.99 1.398 3.144 4.77 3.144 4.77s3.765 1.502 7.665 3.874c3.895 2.372 8.68 7.374 8.68 7.374s-3.015 1.328-5.574 5.029c0 0-1.178 4.106-3.12 6.13" fill="#b0b7bc"/>
  <path d="M165.498 49.176s1.755-.034 3.292.394c1.544.431 2.518.937 2.518.937s1.135-.72 1.712-1.22c.572-.507 2.295-1.398 3.83-1.149 1.544.251 2.633 1.35 2.918 1.819 0 0 1.316.08 2.534.011 1.22-.075 3.477.354 5.266 1.79 1.8 1.432 3.44 3.55 1.256 6.377 0 0 .468 1.794-.178 3.082-.645 1.295-2.313 2-2.313 2s-1.026 3.058-3.424 3.844c-2.402.792-5.415-.686-5.415-.686s-2.826.686-4.872.545c-2.041-.146-4.276-1.871-4.276-1.871s-.49.293-.952.97c-.47.684-3.988 5.613-4.807 6.482 0 0 3.442 3.343 6.845 4.736 3.407 1.396 5.125 1.618 6.027 1.863.89.255 2.862 1.365 3.583 3.52 0 0 2.19-.546 3.618-.434 1.435.106 2.833.391 5.341 2.971 2.508 2.581 1.938 4.915 1.542 5.986-.393 1.07-1.885 1.997-1.885 1.997s-.124 2.161-1.416 3.31c-1.292 1.142-3.042.946-3.042.946s-.685 1.306-2.474 1.85c-1.797.539-3.73-.4-4.633-1.114 0 0-3.688.324-6.086-.86-2.396-1.182-3.525-3.502-3.525-3.502s-4.068-1.663-8.3-1.698c-4.228-.034-12.417-2.321-15.1-4.279 0 0-4.073 1.855-7.354 1.905 0 0-1.013-3.072-4.562-5.204 0 0-7.606 4.214-10.33 5.468-2.722 1.254-7.515 1.709-8.217 1.784 0 0 .298 1.151-.056 3.017-.37 1.862-1.51 5.522-2.477 6.74-.973 1.218-3.66 2.72-5.234 3.295-1.576.575-3.545 1.078-5.202 1.898-1.643.826-3.651 2.504-4.53 3.295 0 0 2.537.642 3.302.609.763-.03 2.127-.788 3.134-1.177 1.006-.398 3.833-.936 6.092.75 2.259 1.684 3.44 3.867 3.362 5.522-.063 1.646-1.133 2.844-2.71 3.66 0 0-.472 2.327-2.44 3.04-1.98.715-5.259.067-5.259.067s-1.556 1.01-3.42 1.114c-1.863.11-4.37-1.503-4.764-1.717-.4-.218-.79-.429-1.473-.429-.685 0-8.06.61-10.355.61-2.292 0-3.868-1.116-4.837-2.904-.969-1.795.389-4.661 1.255-5.802.855-1.154 2.223-2.731 2.394-3.055.181-.322.222-.856-.245-1.18-.467-.323-1.963-1.06-1.963-1.06s-2.267 4.54-3.125 6.076c-.863 1.54-1.975 3.26-4.122 4.588-2.153 1.327-6.708 3.337-9.103 4.804-2.405 1.467-3.829 2.821-3.829 2.821s.025 4.32.155 4.852c0 0 2.164.426 3.03 1.177.861.757 1.716 1.974 1.68 3.658-.03 1.684-.256 3.666-2.354 4.449 0 0-.586 2.18-2.231 2.825-1.65.646-3.338.074-3.338.074s-2.253 1.142-4.62.643c-2.364-.5-4.336-2.934-4.372-5.413-.034-2.476.39-11.43.39-12.01 0-.572 0-1.18-.424-1.965-.432-.79-1.439-2.759-1.181-4.016.25-1.254 1.537-2.726 2.72-3.73 1.182-1.002 2.62-2.003 3.335-4.013.714-2 1.323-4.762 1.398-6.88.072-2.11.329-8.992.793-10.855 0 0-8.896-1.974-12.908-6.56-4.012-4.59-4.695-8.247-5.842-13.155-1.147-4.913-2.611-8.668-7.284-11.111 0 0-2.504 1.219-5.722-.178-3.229-1.4-4.987-5.055-6.703-6.35-1.721-1.286-6.404-2.027-7.34-2 0 0 5.579-3.872 9.417-5.02 3.834-1.145 7.996-1.503 10.609.579 2.614 2.07 3.008 5.66 3.008 5.66s5.379 2.222 8.499 6.054c3.119 3.837 4.041 7.416 4.653 9.82.612 2.4 2.503 7.202 5.537 9.32 3.034 2.12 6.591 3.01 8.445 3.136 0 0 5.233-5.466 7.026-6.651 1.786-1.182 3.796-1.651 4.651-1.9.864-.247 3.844-1.235 3.844-1.235s5.275-4.541 6.288-5.325c0 0 3.059-5.3 3.918-6.558.865-1.251 3.173-4.2 3.173-4.2s-2.115-2.413-2.088-5.537c0 0 1.246.248 2.034.17 0 0-1.036-1.754-.533-4.229.503-2.472 3.184-6.488 6.771-9.573 0 0-.142-2.613.607-5.08.756-2.477 2.285-4.455 2.285-4.455s-1.636-2.023-1.894-3.61c0 0 3.09-.29 5.24-1.002 2.149-.723 3.87-2.246 3.87-2.246s4.117-5.68 9.133-7.474c5.026-1.792 10.142-1.238 10.142-1.238s2.538-1.652 3.584-2.015c0 0-1.992-2.242-3.644-2.932 0 0 3.87-1.169 7.434-.895 0 0 .065-2.48.47-3.92 0 0 6.213 4.482 9.046 5.732 2.83 1.255 8.238 3.048 10.071 3.624 1.826.572 4.926 1.763 5.58 5.072 0 0 3.014 1.268 4.202 1.915 1.183.647 2.403 2.189 2.651 2.834.245.64.495 1.437.803 1.934.31.5.84.856 1.344 1.031.504.184 5.483 2.405 7.782 4.125 2.288 1.727 5.413 4.698 5.413 4.698s-3.11 2.48-3.874 3.623c0 0-.93 3.12-2.435 5.337-1.51 2.222-3.761 3.089-3.761 3.089v.748" fill="#fff"/>
  <path d="M130.844 9.775c-.198 1.622 1.045 3.049 1.045 3.049-1.812-.858-6.762-1.05-6.762-1.05 2.29.858 3.907 2.762 3.907 2.762-1.904 0-4.954 1.814-4.954 1.814 2.476 0 3.522 1.328 3.522 1.328-2.284 1.047-7.254-.476-12.847.382-5.587.857-9.233 5.239-9.233 5.239 2.376-.864 3.9-.097 3.9-.097-1.898.097-6.85 3.235-8.757 4.276-1.905 1.051-4.664.953-4.664.953.66 1.433 2.473 1.817 2.473 1.817-2.473 1.71-3.812 5.71-3.812 5.71 1.43-1.624 3.526-1.53 4.004-.572.478.952-.184 2.713-2.094 4.09-1.544 1.115-5.325 4.285-7.332 7.14-2 2.855-2.308 5.11-2.308 5.11 2.39-.983 3.204-.134 3.023 1.047-.315 1.999-3.842 3.55-3.842 3.55.853 1.428 4.086 1.529 4.086 1.529s-3.813 4.183-5.335 6.466c-1.521 2.288-4.09 6.862-4.569 7.523-.472.665-6.088 5.148-6.757 5.809-.667.66-6.384 2.096-7.812 2.764-1.423.663-6.28 5.228-7.897 7.324-.1.128-.19.252-.284.378-2.31-.164-7.687-.867-11.329-3.875-4.744-3.93-5.853-8.602-6.67-11.792-.814-3.187-2.147-5.609-4.006-7.984-1.856-2.373-7.565-5.213-8.528-5.805 0 0-.703-4.013-2.667-5.34-2.11-1.425-4.884-1.135-6.06-.841a13.45 13.45 0 0 0-1.366.456c1.104.102 2.108.344 2.917.56 2.691.694 2.867 2.582 2.867 2.582s-3.46-3.754-10.448-1.03c.553.092 2.588.498 3.627 1.858 1.168 1.542 1.512 2.678 4.847 4.522 2.983 1.656 5.252-.172 5.252-.172s5.085 2.63 6.75 5.558c1.594 2.829 3.183 7.263 3.924 11.197.744 3.926 2.3 6.967 5.784 10.005 3.096 2.709 9.717 4.53 12.81 5.112-.085.288-.179.583-.276.895-.764 2.472-.764 6.95-1.05 11.807-.28 4.85-1.328 7.609-2.474 9.705-1.141 2.092-4.66 4.097-4.946 5.33-.286 1.242 1.337 2.575 1.521 4.474.19 1.904-.28 9.902-.28 11.042 0 1.146-.29 2.573.377 3.621.667 1.051 1.716 1.618 3.142 1.425 1.424-.185 1.998-1.042 1.998-1.042s2.093.857 3.044.28c.953-.573.857-2.468.857-2.468s1.43 0 1.806-.48c.391-.48.478-2.191-.187-3.047-.663-.857-3.998-1.14-3.998-1.14-.182-.387-.763-6.855-.286-8.285.476-1.424 4.284-3.617 7.24-5.332 2.95-1.71 6.946-3.14 8.37-4.661 1.164-1.24 4.228-7.39 5.335-9.646.066-.14 3.735-9.171 12.516-13.17l.066-.046c-6.424 5.708-6.974 7.853-6.974 7.853s4.277-4.062 11.708-7.208c4.945-2.086 8.733-3.006 11.204-3.245-6.129 1.95-11.362 4.912-16.632 8.084-5.382 3.245-8.808 7.474-9.013 7.726 4.755 1.891 4.39 3.92 3.977 5.08-.476 1.335-3.425 4.287-3.902 5.615-.476 1.338-.289 2.763 2.093 2.956 2.381.188 8.95-.668 11.044-.573 2.091.094 3.428 2.192 5.425 2.192 2.003 0 2.946-1.339 2.946-1.339 1.433.481 4.002.763 5.053.288 1.045-.472.853-2.472.853-2.472 1.718-.291 2.762-1.145 2.476-2.095a5.324 5.324 0 0 0-2.38-3.048c-1.43-.859-2.76-.573-3.806-.093-1.05.472-2.477 1.327-4.001 1.138-1.522-.182-7.236-1.425-7.236-1.425 1.524-4.188 6.381-7.236 8.57-7.992 2.188-.768 6.377-2.1 7.999-3.429 1.616-1.331 2.567-6.097 2.659-7.046.098-.952-.761-3.997-.761-3.997 1.72-.285 6.188-.192 9.616-1.527 2.02-.788 5.827-2.83 8.613-4.373-6.113-3.525-18.317-2.632-18.317-2.632 12.827-2.671 21.7.725 21.7.725 4.188 1.238 6.283 5.237 6.283 5.237 2.663-.383 6.092-2.003 6.092-2.003 7.36-3.966 15.515-12.182 15.515-12.182 2.953-2.664 5.906-8.089 7.324-9.33 1.434-1.24 3.24-.952 3.24-.952s1.337 1.811 3.717 1.906c2.374.089 4.47-.668 4.47-.668s3.53 1.426 4.762.757c1.237-.662 1.902-3.234 1.902-3.234s2-.378 2.093-1.332c.098-.949-.667-2.472-.667-2.472s1.338-.86 1.522-1.425c.198-.574-.472-1.337-1.042-1.815-.572-.473-2.666-1.62-3.709-1.428-1.045.194-4.286-.092-4.286-.092s-.477-1.334-1.333-1.62c-.853-.288-1.808.097-2.386.667-.568.572-2.275 1.713-3.133 1.713-.86 0-1.526-.86-4.188-1.333-2.671-.476-4.287.763-4.287.763s.247-1.97.108-3.343c-.015-.12-.563.026-.584-.094-.072-1.3 0-3.23 0-3.23-.29.761-2.81 4.196-4.999 3.056-2.189-1.146-1.572-5.24-1.572-5.24 3.43-2.098 8.293-1.811 8.293-1.811.94 2.092-.296 4.186-.296 4.186 4.093-1.333 5.049-6.377 5.529-7.422.47-1.05 2.657-2.284 2.657-2.284s-2.187-1.998-4.475-3.427c-2.279-1.428-6.47-3.237-7.233-3.522-.756-.286-1.712-1.909-1.904-2.473-.188-.576-.758-2.289-2.186-3.055-1.43-.752-5.52-2.471-5.52-2.471s.57-.857-.382-2.382c-.952-1.52-4.382-2.186-9.998-4.09-5.612-1.907-9.42-5.333-9.42-5.333zm22.42 19.44c.847 0 2.613 1.147 3.845 1.224 0 0-1.075 1.47-1.232 1.851-.145.384.466 1.154.466 1.154s-2.457-1.847-3.225-2.385c-.774-.539-3.698-1.156-3.698-1.156s3.005-.689 3.843-.689zm-31.67 8.724a16.81 16.81 0 0 1 3.036.276c8.466 1.546 12.23 7.9 12.23 7.9s-6.368-5.129-13.152-5.842c-6.793-.713-13.167 1.836-13.167 1.836s4.303-4.163 11.052-4.17zm.955 7.81c4.498.003 7.851 1.411 7.851 1.411-6.031-.892-10.62.655-14.066 2.341-3.004 1.467-6.558 4.682-12.204 6.018-5.958 1.408-10.637-.737-10.637-.737 8.195-.29 12.078-2.605 20.2-6.913 3.046-1.618 6.157-2.122 8.856-2.12zm7.91 6.216c3.637.017 6.699.892 8.776 1.958 3.975 2.04 3.62 5.307 3.549 5.747 0 .014 0 .042-.008.052 0 0 2.91-.578 4.944-1.823.174-2.727 1.728-5.493 4.254-5.35 2.834.16 6.758 2.254 6.758 2.254-5.426 4.381-15.377 8.014-18.893 8.747 0 0 2.425-3.317-.953-6.955-2.72-2.92-11.9-4.728-20.642-1.443 4.371-2.365 8.58-3.205 12.216-3.187zm30.303 22.48c-1.525 1.58-3.88 3.884-6.486 6.036-2.713 2.236-6.174 4.407-8.52 5.797 5.662 2.7 12.352 3.039 15.451 3.37 3.615.38 7.33 2.092 7.33 2.092s.48 2.091 2.765 3.138c2.277 1.051 5.613.475 5.613.475s1.716 1.712 3.141 1.237c1.428-.474 1.523-2.381 1.523-2.381s1.807.954 2.758.29c.958-.667.67-3.331.67-3.331 1.142 0 2.473-.764 2.185-2-.28-1.24-1.713-3.046-3.231-3.902-1.52-.857-3.235-.097-4.569 0-1.332.092-2.477-.953-2.766-1.62-.28-.663-1.143-1.906-2.282-2.094-1.138-.185-3.712-.855-7.23-2.471-2.101-.971-4.64-3.08-6.351-4.635z" fill="#0076b6"/>
</svg>