<svg xmlns="http://www.w3.org/2000/svg" height="94.075" viewBox="0 0 193.091 94.075" width="193.09">
  <path d="M189.61 12.2c-24.045 5.679-25.096-8.247-61.259-10.8C79.675-2.039 38.771 19.17 6.083 21.886c-7.102.59-6.18 6.5-1.078 7.504 12.321 2.875 25.034 2.51 36.67.95-.39.937-.783 2.382.517 3.489 4.609 3.917 23.135 4.253 31.268 3.785 2.761-.158 8.656-.715 8.656-.715-1.68.16-4.308 5.283 1.247 6.726 34.327 9.61 50.479 25.13 69.02 49.573 7.534-.963 14.629-10.029 11.604-16.948l1.503-3.715 5.55-2.57-1.59-12.396 8.46-3.984s13.176-35.411 13.947-37.99c.772-2.579-.825-3.731-2.246-3.396" fill="#fff"/>
  <path d="M98.335 30.837c9.648-1.036 18.158-.707 27.433 4.948-19.345-2.099-28.817 3.305-40.874 4.506 42.596 11.178 58.192 35.064 68.755 48.301 7.383-3.137 7.782-9.552 5.902-11.842l1.9-4.075.088-2.617 5.09-2.38-1.61-12.682 9.53-3.904 12.627-34.566c-21.395 4.439-28.326-9.397-58.766-11.284-12.4-.77-23.566-.2-34.049 1.176l1.71 10.58c7.006-.24 13.6.65 19.859 3.497-6.88-.426-13.07.144-19.11 1.265l1.516 9.078" fill="#024"/>
  <path d="M92.406 6.688C62.438 10.931 37.869 21.591 5.642 25.942c36.362 5.995 64.919-7.456 88.719-8.862L92.404 6.688zm2.902 15.381c-15.647 3.124-29.862 9.482-48.855 9.998 22.034 4.153 37.308.47 50.473-1.082l-1.618-8.916z" fill="#c60c30"/>
  <path d="M131.185 60c11.514 8.063 17.428 16.996 23.428 24.815 3.051-1.268 4.009-4.81 3.004-6.061l-2.905-3.577 3.304.195 1.517-2.636-4.108-.243-4.629.835 4.694-3.214 3.573.21.133-2.035-3.65-1.748 1.254-1.373 6.753.421-1.941-15.038c-2.67-.326-4.914 1.073-5.884 4.934l-11.97-.705c1.685-3.818 4.309-5.536 9.288-4.902-2.793-3.912-16.405-4.275-18.328 1.864l10.568 8.66 1.367 7.915-4.342-6.301c-3.904-3.38-8.004-5.75-11.126-2.017" fill="#b0b7bc"/>
  <path d="m166.61 21.225.85 7.553 8.503 3.19-7.976 1.999.787 10.183-6.897-8.605-10.312 2.43 6.372-7.422-5.255-6.962 8.803 3.02 5.125-5.386" fill="#fff"/>
</svg>
