<svg xmlns="http://www.w3.org/2000/svg" xml:space="preserve" height="234.43" viewBox="0 0 192.457 234.434" width="192.46">
  <path d="M171.841 93.21c-17.101-9.936-33.934-7.637-46.7-1.95-.563-4.197-1.658-8.803-3.486-14.194-2.707-8.018-5.675-15.68-8.29-22.444-3.437-8.881-6.054-16.491-7.49-21.581L96.573 1.15l-9.659 31.91c-1.475 5.071-4.022 12.721-7.444 21.609-2.6 6.768-5.543 14.44-8.234 22.456-1.81 5.4-2.9 10.012-3.453 14.216-12.778-5.663-29.619-7.929-46.697 2.046-13.962 8.163-21.437 22.35-19.514 37.029 1.755 13.353 10.887 23.843 23.824 27.4l9.636 2.646 2.358-9.708c.339-1.318 3.815-13.471 14.76-13.25 7.593.157 13.897 6.867 17.049 11.207-1.02 3.069-1.562 6.747-1.043 10.708l-4.284-5.716-7.753 5.782c-6.985 5.197-17.122 18.05-10.856 33.218 2.732 6.614 8.606 11.12 16.537 12.7 4.851.965 10.362.74 15.468-.382 2.01 6.45 5.673 14.254 12.335 21.223l7.028 7.343 7.005-7.36c6.65-6.986 10.29-14.802 12.292-21.254 5.11 1.103 10.615 1.318 15.466.34 7.928-1.593 13.79-6.115 16.509-12.736 6.23-15.184-3.945-28.012-10.933-33.197l-7.768-5.756-4.273 5.723c.513-3.962-.042-7.635-1.067-10.71 3.144-4.342 9.43-11.07 17.021-11.242 10.947-.246 14.447 11.9 14.813 13.287l2.376 9.703c-.014-.073 9.613-2.74 9.613-2.74 12.936-3.582 22.036-14.1 23.76-27.463 1.889-14.673-5.623-28.845-19.603-36.971"/>
  <path d="M93.363 34.426c-1.179 5.553-4.218 13.455-7.738 22.612-2.579 6.704-5.498 14.302-8.14 22.183-2.534 7.572-3.568 13.215-3.568 18.477 0 1.684.193 3.33.39 4.984-9.745-6.692-28.948-15.84-49.89-3.6-11.633 6.803-17.881 18.475-16.309 30.473 1.4 10.672 8.693 19.07 19.035 21.912l3.068.84.763-3.097c.191-.759 4.798-18.623 21.307-18.29 13.286.266 21.97 13.183 24.316 17.153-1.116 2.064-2.043 4.91-2.043 8.175 0 3.502 1.192 7.484 4.233 11.478-1.213 1.643-3.199 3.659-5.517 3.85-3.306.271-6.652-3.21-8.875-6.181l-1.856-2.476-2.482 1.852c-5.078 3.785-13.438 13.965-8.707 25.417 1.893 4.577 5.95 7.602 11.731 8.751 5.977 1.186 13.522.107 18.881-2.335 1.038 6.047 3.979 16.28 12.404 25.083l2.25 2.352 2.242-2.356c8.404-8.829 11.321-19.07 12.345-25.12 5.367 2.429 12.923 3.492 18.9 2.286 5.77-1.162 9.818-4.2 11.697-8.777 4.698-11.46-3.675-21.623-8.762-25.396l-2.484-1.843-1.851 2.484c-2.22 2.972-5.559 6.465-8.867 6.198-2.316-.19-4.306-2.196-5.523-3.834 3.02-3.986 4.203-7.954 4.203-11.447 0-3.285-.935-6.141-2.062-8.212 2.337-3.972 10.996-16.918 24.276-17.214 16.507-.37 21.16 17.485 21.349 18.246l.771 3.086 3.069-.841c10.331-2.865 17.605-11.275 18.98-21.952 1.546-12.003-4.727-23.664-16.374-30.438-20.985-12.202-40.179-2.989-49.9 3.728.18-1.61.367-3.207.367-4.848 0-5.32-1.027-11.055-3.583-18.619-2.659-7.866-5.595-15.45-8.186-22.145-3.544-9.15-6.6-17.052-7.791-22.605L96.38 20.184l-3.015 14.242" fill="#fff"/>
  <path d="M96.629 219.541c11.884-12.484 12.028-28.23 12.028-28.23 5.258 5.242 25.692 8.748 30.274-2.416 5.025-12.257-7.738-21.727-7.738-21.727-12.37 16.582-20.67.353-20.67.353 9.42-10.18 2.352-19.358 2.352-19.358.616-1.843 11.063-20.081 27.79-20.455 19.278-.435 24.43 20.602 24.43 20.602 20.215-5.603 24.12-33.787 1.874-46.719-28.23-16.413-52.825 8.592-52.825 8.592 2.289-9.359 2.94-16.353-1.675-30.02-6.256-18.53-13.925-35.087-16.07-45.094-2.124 10.008-9.76 26.592-15.97 45.135-4.579 13.68-3.906 20.673-1.605 30.024 0 0-24.652-24.945-52.84-8.468-22.22 12.986-18.247 41.153 1.981 46.713 0 0 5.1-21.048 24.381-20.655 16.732.332 27.217 18.545 27.837 20.383 0 0-7.047 9.2 2.398 19.355 0 0-8.266 16.256-20.668-.299 0 0-12.75 9.498-7.692 21.742 4.61 11.153 25.033 7.6 30.278 2.345 0 0 .181 15.746 12.09 28.2"/>
  <path d="m96.435 48.191-.042.263v-.256s-1.797 9.249-10.63 32.227c-8.835 22.977 1.034 42.163 1.858 46.423 0 0-18.898-26.04-41.87-26.013-22.97.025-42.095 26.168-20.867 41.605 0 0 6.212-19.289 27.622-19.328 15.746-.034 31.52 16.857 32.188 25.227 0 0-7.209 10.178 2.814 18.696 0 0-10.828 22.778-25.84 6.37 0 0-11.544 14.443 3.552 17.94 11.977 2.77 23.774-9.38 23.774-9.38s-1.287 19.193 7.584 29.683v-.095l.045.09c8.848-10.508 7.515-29.702 7.515-29.702s11.826 12.125 23.803 9.323c15.086-3.53 3.506-17.948 3.506-17.948-14.97 16.441-25.845-6.307-25.845-6.307 9.995-8.544 2.761-18.703 2.761-18.703.648-8.365 16.378-25.298 32.13-25.303 21.414 0 27.67 19.268 27.67 19.268 21.191-15.487 2.004-41.595-20.965-41.565-22.973.024-41.81 26.113-41.81 26.113.817-4.269 10.638-23.475 1.75-46.433-8.887-22.954-10.701-32.202-10.701-32.202z" fill="#d3bc8d"/>
</svg>