<svg xmlns="http://www.w3.org/2000/svg" viewBox="0 0 143.938 63.72">
  <path d="M120.658 52.2a108.317 108.317 0 0 0-18.84-1.56h-86.52c-5.4 0-11.04 0-13.8-4.44-3-4.44-1.32-8.88 3.48-17.64C5.338 27.84 20.218 0 20.218 0a27.169 27.169 0 0 0 3 3.12c1.56 1.2 3.12 1.8 7.2 1.8 7.32 0 54.72-.12 55.2-.12 9.6 0 19.32.96 25.56 7.92 3.36.36 13.8 1.68 22.56 5.88 5.04 2.4 8.4 6 9.72 10.44a16.11 16.11 0 0 1 .48 4.2c0 4.2-1.56 8.88-4.56 13.8-6.6 10.2-12.6 13.8-12.84 13.92a14.777 14.777 0 0 1-7.32 2.76 24.201 24.201 0 0 0 4.32-7.32c1.08-3.72-2.88-4.2-2.88-4.2Z" fill="#fff"/>
  <path d="M132.658 20.88c-9.96-4.8-22.68-5.76-22.68-5.76-5.52-6.84-14.88-7.8-24.36-7.8 0 0-47.76.12-55.2.12-8.64 0-9.48-3.48-9.48-3.48L9.298 25.68h30.12c9.48 0 9.96-.96 16.2-5.64 6.72-4.92 12-6.6 18.36-6.6 6.24 0 10.44 1.32 17.52 4.44 6.96 3.12 10.68 4.68 14.88 2.88 0 0-3.24 4.44-13.2.24-9.96-4.08-12.6-5.04-18.72-5.04-5.88 0-12.72 2.88-21.24 11.4l10.2 8.16s-2.4 3.72-3.96 6-1.44 3.84-.6 5.04c.84 1.08 1.92 1.56 5.64 1.56h37.32a114.04 114.04 0 0 1 19.32 1.68c9.6 1.92 3.36 9.96 3.36 9.96s6.48-4.2 12.72-14.16c7.08-11.04 5.28-20.04-4.56-24.72Z" fill="#024"/>
  <path d="M115.138 22.56c-4.44-1.08-.6-3.6-.6-3.6a13.124 13.124 0 0 0-9.48 8.04c-.12.24-.24.36-.36.6-3.6 7.2-6.84 6.84-12.96 6.84h-10.44c-8.52 0-12.48 4.2-16.56 11.4h4.8c4.44-6.6 7.68-8.28 16.44-8.76 19.8 0 35.52 5.64 43.92 9.96 11.88-19.92-5.76-23.16-14.76-24.48Z" fill="#fff"/>
  <path d="M78.298 45.72c2.16-3.36 6.72-4.44 13.92-4.08 18 1.08 28.32 4.56 36.24 7.56-9.84-5.76-27.48-9.96-39.72-9.96-5.88 0-11.16 1.08-14.16 6.48Zm19.2-19.8c-2.28 3.36-5.4 4.44-14.16 3.84-10.08-.72-7.44-5.04-6.36-7.08.36-.6.84-1.68 1.44-2.64-7.8-.48-13.44 5.52-13.44 5.52 5.76 5.76 9.6 6.36 14.88 6.36h9.84c9.12 0 11.28-4.08 12.12-6a13.028 13.028 0 0 1-4.32 0Z" fill="#fff"/>
  <path d="M93.058 24.96a2.027 2.027 0 0 1-.6-.24 4.378 4.378 0 0 1-3.84 1.32c-2.04-.24-3.12-1.68-2.52-3.12a1.705 1.705 0 0 1 .24-.72c-.96-.36-2.04-.72-3-1.08-2.04 3.24-3.12 5.4 3.84 6 4.32.36 5.52-.36 6.48-1.92-.24-.12-.36-.12-.6-.24Z" fill="#69be28"/>
  <path d="M57.898 37.44c-3.6 6.24-5.04 7.68-2.52 10.68h-40.08c-6 0-9.84-.24-11.76-3.24s-1.56-5.76 3.6-15.12h34.08c5.88 0 7.44.36 10.56 2.76 3.24 2.52 6.12 4.92 6.12 4.92Z" fill="#a5acaf"/>
</svg>