<svg xmlns="http://www.w3.org/2000/svg" xml:space="preserve" height="196.06" width="196.06" viewBox="0 0 196.062 196.06">
  <path d="M2.495 98.389c0 52.675 42.856 95.53 95.53 95.53s95.53-42.856 95.53-95.53c.005-52.675-42.85-95.53-95.53-95.53-52.67 0-95.53 42.853-95.53 95.53"/>
  <path d="M98.024 191.824c51.6 0 93.435-41.834 93.435-93.44 0-51.595-41.835-93.43-93.435-93.43S4.59 46.789 4.59 98.389c0 51.605 41.835 93.44 93.44 93.44" fill="#a5acaf"/>
  <path d="M98.024 176.564c43.047 0 77.945-34.897 77.945-77.945 0-43.045-34.895-77.95-77.945-77.95S20.08 55.569 20.08 98.614c0 43.047 34.897 77.945 77.945 77.945" fill="#fff"/>
  <path d="M98.434 98.724c.9-31.925 31.058-39.422 38.635-38.734-18.678-1.015-37.113-8.907-38.535-38.444-2.253 27.469-13.275 35.278-38.672 38.537 18.14.919 36.506 8.097 38.572 38.64" fill="#eead1e"/>
  <path d="M137.174 138.239c.9-31.925 30.528-39.803 38.106-39.115-18.74-.694-36.79-9.6-38.212-39.135-2.25 27.469-13.235 35.475-38.635 38.735 18.14.918 36.675 8.971 38.74 39.515" fill="#c60c30"/>
  <path d="M98.904 176.239c.898-31.931 30.695-38.688 38.275-38-18.678-1.016-37.319-9.977-38.74-39.516-2.253 27.473-12.95 35.723-38.347 38.982 18.14.924 36.744 7.996 38.812 38.534" fill="#00539b"/>
  <path d="M35.453 86.909a5.564 5.564 0 0 0-2.19.47c-.845.37-1.43 1.04-1.843 1.775-.412.744-.644 1.334-.696 2.183-.107 1.792.789 3.681 2.476 4.734 1.182.74 2.047.836 3.05 1.801.534.507.491 1.824.32 2.127-.488.864-1.756.546-2.068.22-.314-.33-.451-1.513-.389-1.982l-3.346.02c-.129 1.474-.028 2.381.42 3.38.453 1.019 1.089 1.401 1.914 1.796 1.792.851 4.21.78 5.954-.849.428-.397.583-.863.583-.863.406-.987.86-2.104.543-3.905-.148-.842-.513-1.532-.7-1.796-.621-.877-1.081-1.274-2.742-2.085.038 0-.525-.24-.484-.24-1.758-.561-2.456-1.635-1.91-2.779.3-.636 1.44-.89 1.942-.432.34.312.417.978.445 1.492l1.172-.009h2.152c.045-1.482-.272-2.317-.59-2.875-.832-1.469-2.39-2.194-4.013-2.183zm28.45.307v16.474h3.157V87.225l-3.157-.01zM44.9 89.109l-3.134 1.719v1.079l-1.24.039.013 2.698 1.17-.038.023 6.203c.013 3.295 2.836 2.788 4.328 2.824l.002-3.502c-1.263.019-1.15-.233-1.15-.862v-4.603l1.206.02-.013-2.766-1.192.026-.013-2.837zm41.667 2.647a3.685 3.685 0 0 0-1.562.362c-.477.23-.825.18-1.622 1.166-.379.466-.486 1.158-.522 1.758-.076 1.268.343 2.94 2.069 3.376.965.243 2.063.37 2.577 1.145.281.424.2.6.072.924-.18.46-1.205.454-1.615.293-.406-.155-.66-.63-.606-1.04l-2.626.017c.05 1.014.058 1.629.445 2.379.373.726 1.127 1.254 1.82 1.465 1.409.428 2.96.353 4.11-.357.21-.13.802-.668 1.043-1.1.395-.722.63-1.646.274-2.858-.167-.585-.184-.65-.29-.855-.625-1.193-1.429-1.425-2.26-1.704.028 0-.774-.185-.746-.185-1.465-.166-1.556-.995-1.362-1.558.16-.466.533-.621 1.014-.621.408.004.81.29.885.59.052.216.046.463.046.744l2.716.013c-.022-1.057-.215-2.153-.806-2.748-.724-.735-1.884-1.223-3.054-1.206zm-5.026.058c-1.036.232-1.31.714-1.768 1.52l-.014-1.468-3.042.032v11.69h3.1v-6.775c.035-.705-.14-1.623 2.48-1.438v-3.56h-.756zm-30.845.106c-.627-.012-1.308.129-2.188.514-1.032.679-1.63 1.611-1.571 2.681v5.703c.058 1.414.67 2.418 1.932 2.88.958.204 1.985.511 3.627 0 1.547-.533 1.927-1.528 1.904-2.444l-.007-1.377-2.576.013v.333c-.058 1.322-2.349 1.107-2.355.058l.004-1.607h4.934v-3.619c-.016-1.188-.583-2.04-1.846-2.727-.66-.229-1.231-.395-1.858-.408zm8.553 0c-.626-.012-1.308.129-2.189.514-1.031.679-1.629 1.611-1.57 2.681v5.703c.057 1.414.67 2.418 1.93 2.88.961.204 1.987.511 3.628 0 1.548-.533 1.926-1.528 1.904-2.444l-.006-1.377-2.577.013v.333c-.058 1.322-2.348 1.107-2.355.058l.005-1.607h4.933v-3.619c-.015-1.188-.582-2.04-1.846-2.727-.66-.229-1.23-.395-1.857-.408zm12.558 0c-.627-.012-1.308.129-2.189.514-1.034.679-1.629 1.611-1.57 2.681v5.703c.057 1.414.67 2.418 1.93 2.88.961.204 1.987.511 3.628 0 1.548-.533 1.928-1.528 1.902-2.444l-.004-1.377-2.579.013v.333c-.056 1.322-2.346 1.107-2.35.058l-.012-1.607h4.947v-3.619c-.013-1.188-.582-2.04-1.844-2.727-.661-.229-1.233-.395-1.86-.408zm-21.16 2.686c.733-.036 1.518.547 1.262 1.633l-2.334-.009c-.183-1.077.424-1.592 1.072-1.624zm8.552 0c.733-.036 1.518.547 1.262 1.633l-2.333-.009c-.184-1.077.423-1.592 1.07-1.624zm12.558 0c.733-.036 1.518.547 1.262 1.633l-2.333-.009c-.184-1.077.423-1.592 1.07-1.624z"/>
</svg>