<svg height="268.459" viewBox="0 0 375 270" width="372.496" xmlns="http://www.w3.org/2000/svg">
  <path d="M339 84.8c-16.6-16.5-37.6-27-60.4-30.2-29.7-28.4-65.6-18-65.6-18 7.6 1.1 12.7 5.7 10.7 10.7-1.3 3.3-6.8 3.5-9.4 3.5-8 .1-15-4.8-20.5-9.3-5.8-4.7-15.1-13-23.6-17.7-15.7-8.8-40.5-7.7-58.5 3.8 10.8.7 23.7 3.8 31.4 10.2 4.3 3.6 9.8 10.7 5.3 14.1-3.9 2.9-13.6 1.4-18.6-1.4-7.7-4.6-14.8-11.5-19-16.5C82.3.4 41.9-1.5 8.7 6.8c21.8 6.1 36.4 18.6 45.4 40s16 30.6 30.8 36.4c9.3 3.6 11.8 4.3 11.1 8.4-1.1 6-12.1 3.1-20.5-.1-10.2-4-23.7-15-31.7-35.7 1.5 26.8 6.6 45.7 21.6 60.1 6.4 6.1 18.2 12.4 36.6 19.5 11.7 4.5 21.1 7.3 29.8 15.1 10.2 9.1 5.9 15.2-.9 14-7.7-1.3-13.1-9.1-13.1-9.1s0 43.6 53.9 60.4c4.5 7.4 9.9 14.4 16.2 20.7 20.2 20.2 47.1 31.3 75.7 31.3s55.5-11.2 75.6-31.5c20.2-20.3 31.3-47.2 31.2-75.8 0-28.6-11.1-55.5-31.4-75.7" fill="#024"/>
  <path d="M333.3 90.2c-16.1-16.1-36.7-25.9-58.9-28.4-19.1-19.1-38.3-18.2-38.3-18.2 8.4 5.3 4.1 17-14.6 19.5-18.5 2.6-41.9-3.7-53.4-17-11.8-13.7-20.7-14.4-20.7-14.4 10.2 6.4 10.9 14 17.1 25.7s19 15.9 30.1 16.6c11.7.8 12 6.1 2.6 11.7-10.3 6.1-19.4.3-26.1-6.2-10.5-10.3-20.9-12.3-35.3-12.1s-33.4 2.1-49.5-3.9-26.7-27.2-26.7-27.2c8 28.1 25.6 41.4 42 44.6 21.6 4.3 36.6 9.4 45.8 16.8 8.9 7.3 13.7 14.5 17.1 24.5 2.6 7.7 3.1 17.9.5 18.5-3 .7-3.6-3.4-7.1-10.6-3.9-7.9-8.5-14.1-17.9-19.1-12.7-6.8-25.1-6.4-37.7-6.2-10 .1-15.9-1-15.9-1s.4 1.4 16.8 5c18.2 4.1 35.8 14.4 47.5 39.4 10 21.3 4.8 36.3-17.3 29.5 0 0 10.3 22.9 44 31.1 4.3 7.6 9.8 14.8 16.1 21.2 18.7 18.7 43.5 29 69.9 29s51.2-10.3 69.9-29 28.9-43.5 28.9-69.9c.1-26.4-10.2-51.2-28.9-69.9" fill="#4b92db"/>
  <path d="M263.4 66.1c25.1 0 48.7 9.8 66.5 27.5 17.8 17.8 27.5 41.4 27.5 66.5 0 51.9-42.2 94.1-94 94.1-25.1 0-48.7-9.8-66.5-27.6s-27.5-41.4-27.5-66.5 9.8-48.7 27.5-66.5c17.8-17.7 41.4-27.5 66.5-27.5" fill="#fffffe"/>
  <path d="M263.6 246.1c-47.4.1-85.9-38.3-86-85.8s38.3-86 85.8-86.1c47.4-.1 85.9 38.4 86 85.8 0 47.5-38.4 86-85.8 86.1" fill="#024"/>
  <path d="M242.4 142.7H217l-8.4 15-11.3-32h132l-11.3 32-8.3-15h-25l-21.2 92.8z" fill="#fffffe"/>
  <path d="M329.3 125.7h-132l2.1 6.1h63l-20 11 21.1 92.8V131.8h63.7z" fill="#a5acaf"/>
  <path d="M198.6 51.5c-19.1-.5-26.9-8.1-38.8-17.7-14.5-11.7-30.7-8.4-30.7-8.4 9.7-5.5 28.7-5.8 42.4 6.2 12.2 10.7 18.2 16.5 27.1 19.9zM35.2 9.3C56.6 5.3 74.4 12 88 36c13.2 23.5 37.4 24.1 37.4 24.1-18.4 5.2-43.5.5-56.6-23.1C53.1 8.8 35.2 9.3 35.2 9.3zm101.4 136.1c-10.5-14.5-27-18-49.5-24-32.2-8.6-32.5-36.8-32.5-36.8s4.8 19.5 42.3 27.1c37.2 7.6 39.7 33.7 39.7 33.7zm139.7-28-12.9-9.3-12.8 9.5 4.8-15.1-12.9-9.2 15.9-.2 4.8-15.1 5 15.1h15.9l-12.8 9.3zm-56.6 53.3-1.6 15.8 14.6 6.3-15.5 3.4-1.5 15.8-8-13.7-15.5 3.5 10.6-11.9-8.1-13.7 14.5 6.4zm74.4 22.5 14.5-6.6-1.8-15.8 10.7 11.8 14.4-6.6-7.9 13.8 10.7 11.7-15.6-3.2-7.8 13.8-1.7-15.8z" fill="#c60c30"/>
</svg>