<svg xmlns="http://www.w3.org/2000/svg" xml:space="preserve" height="156.03" width="127" viewBox="0 0 127 156.028">
  <path fill="#fff" d="M125.66 102.218c-.336-2.034-2.178-3.813-3.615-4.133-.101-.022-.235-.048-.379-.085.374-1.346.555-2.42.646-3.173.828-.379 1.795-.774 2.211-.94l1.415-.571-.283-1.496c-.583-3.088-2.2-5.64-3.125-6.9.332-1.052.53-1.736.53-2.317 0-1.186-.951-2.399-2.82-3.6-.15-.096-.32-.369-.32-1.656 0-.021-.022-1.228-.337-2.456 1.015-.69 2.285-1.821 2.91-3.584.625-1.773.86-3.343.951-4.256.048-.496-.022-1.687-.022-1.687l-.191-2.297s-1.154.919-1.794 1.41c-.172.128-.3.224-.37.267-.09.07-.191.134-.288.192-.47.283-.993.508-1.217.625-.503.273-1.266.561-2.105.796-1.206-6.243-5.628-17.164-16.32-26.798C88.279 27.971 67.04 25.823 66.142 25.733l-1.992-.187s-.043 2.985-.23 3.834l-.02.097c-.07.41-.15.8-.247 1.164-2.419-1.512-4.106-3.044-4.923-4.492-1.512-2.67-2.003-5.12-2.473-7.487-.33-1.678-.652-3.269-1.303-4.807-1.72-4.037-4.192-7.482-7.348-10.232-.572-.492-1.154-1.004-2.051-1.004-.358 0-.892.09-1.431.523-.385.315-1.538 1.48-.251 3.386.021.032 2.12 3.872 2.905 9.372.262 1.81.315 4.043.374 6.403.117 4.78.256 10.19 2.147 14.29.833 1.8 1.906 3.419 3.028 4.823.112.139.539.588.614.678.192.225.39.449.582.663-2.067-.177-3.84-.721-5.602-1.71l-.075-.042c-5.426-2.734-9.591-9.132-10.36-15.925l-.103-.886c-.144-1.201-.154-2.419-.17-3.706a64.347 64.347 0 0 0-.049-2.243 44.456 44.456 0 0 0-.63-5.73 39.17 39.17 0 0 0-.496-2.398l-.016-.059a13.633 13.633 0 0 0-.395-1.575 21.975 21.975 0 0 0-.315-.999 11.306 11.306 0 0 0-1.106-2.371c-.61-.988-1.185-1.762-1.81-2.44a9.268 9.268 0 0 0-1.463-1.314l-.075-.048a2.804 2.804 0 0 0-1.48-.449c-.373 0-.731.086-1.057.256l-.208.129c-.818.576-1.309 1.842-.572 3.359l.07.128c.016.027.053.101.101.208a3.393 3.393 0 0 1 .224.79c.246 1.32.476 4.465-.72 10.777l-.065.326a56.319 56.319 0 0 1-.384 2.761c-.513 3.023-1.052 6.628-1.143 10.483 0 .118.005.363.01.566l.006.182c-.027 2.553.363 24.677 22.2 32.353l.017.006-.07.026c-.993 6.36-1.063 10.28-.999 12.192a105.497 105.497 0 0 0-13.847 6.638 90.815 90.815 0 0 0-19.21 14.105 104.15 104.15 0 0 0-3.422 3.45c-.267.277-.53.555-.759.807l-.074.08c-2.865 3.081-5.45 6.295-7.687 9.553-.07.1-.273.427-.353.62-.256.586-.528 1.714.006 2.306.32.357.95.663 2.141.154.06-.016.289-.107.374-.155.23-.128.572-.341.684-.427 7.23-5.533 23.838-8.588 28.688-8.87 4.064-.24 8.095-.834 9.59-1.068.812.385 2.398 1.052 4.188 1.447.758.166 1.575.251 2.435.251.747 0 1.447-.064 2.045-.15 1.239 3.915 3.706 6.601 4.988 7.803-.08 2.36.32 6.788 2.088 9.66 1.442 2.355 3.503 4.155 4.652 5.053 0 1.126.096 2.937.662 4.47.502 1.372 1.35 2.616 1.981 3.433a8.727 8.727 0 0 0-.55 2.505 5.25 5.25 0 0 0 .507 2.649c-.277.502-.54 1.105-.64 1.709-.14.827.032 1.73.224 2.391a7.761 7.761 0 0 0-.508 1.475c-.15.737-.026 1.474.128 2.024-.57 1.66-1.196 4.966.925 6.756a3.42 3.42 0 0 0 2.221.822c1.629 0 2.953-1.16 3.589-1.832.945-.443 2.077-1.308 2.719-2.302.485-.753.72-1.48.838-2.029a8.289 8.289 0 0 0 1.462-2.013c.417-.79.604-1.469.684-1.982.924-1.105 2.97-3.818 3.856-7.198l.208-.935c.022-.112.043-.23.059-.352.486-3.066.09-5.928-.16-7.263.72-1.293 2.136-4.235 2.307-7.648a55.475 55.475 0 0 1 7.626-4.235c.128 2.04.166 4.139-.454 7.322-.764 3.888-3.6 7.103-5.025 8.513-.496.485-1.72 1.874-1.72 1.874s-.47.395-.379 1.202c.005.048.043.187.08.288.016.037.101.16.139.192.678.657 2.542.417 2.542.417 8.026-.86 13.462-7.605 15.775-13.175 1.442-3.472 2.745-8.102 3.519-10.927 4.652-.844 8.956-1.265 11.877-1.553 1.303-.129 2.334-.23 3.012-.337 1.778-.262 5.09-.759 5.298-3.899.069-.998-.08-2.525-.46-4.806"/>
  <path d="M123.827 102.469c-.213-1.309-1.527-2.478-2.184-2.623-.656-.143-2.333-.581-2.333-.581 1.239-3.498 1.239-5.688 1.239-5.688 1.094-.582 3.278-1.457 3.278-1.457-.726-3.867-3.353-6.858-3.353-6.858.219-.8.731-2.184.731-2.697 0-.512-.95-1.383-1.97-2.04s-1.164-1.82-1.164-3.21c0-1.382-.582-3.134-.801-3.209-.22-.07 2.6-.961 3.476-3.445.876-2.478.898-4.49.898-4.49-1.165 1.697-5.725 2.397-5.725 2.397-.364-3.865-3.466-16.334-16.006-27.635-12.54-11.3-33.905-13.345-33.905-13.345.032.63-.048 1.378-.235 2.2-.176 1.063-.486 2.318-1.025 3.333a4.69 4.69 0 0 1-.118.203c-2.948-1.597-6.045-3.744-7.466-6.254-2.75-4.86-2.408-9.04-3.866-12.469-2.387-5.613-5.831-8.662-6.857-9.554-.587-.513-.785-.684-1.09-.438-.299.24-.101.587.144.95.23.342 2.377 4.481 3.178 10.099.801 5.613-.262 14.472 2.366 20.16 1.634 3.54 4.336 6.344 6.147 7.957.064.053.128.112.186.165l.588.582c-3.75.353-7.236.22-10.943-1.863-5.96-3.002-10.532-9.981-11.369-17.367l-.101-.887c-.237-2.025-.14-4.049-.231-6.078a41.97 41.97 0 0 0-.604-5.495 35.965 35.965 0 0 0-.496-2.382c-.005-.01-.005-.016-.005-.026-.08-.481-.22-.956-.359-1.426-.09-.31-.191-.62-.294-.935a9.629 9.629 0 0 0-.929-1.981c-.47-.758-.987-1.495-1.59-2.152a7.444 7.444 0 0 0-1.175-1.063s-.4-.251-.673-.107c0 0-.358.251.021 1.03 0 0 .097.156.209.423a5.223 5.223 0 0 1 .342 1.175c.299 1.602.512 5.052-.753 11.636l-.011.022a51.937 51.937 0 0 1-.4 2.862c-.524 3.082-1.031 6.58-1.117 10.21 0 .161.022.631.016.727-.037 3.231.582 24.41 22.483 31.082-.101.454-.198.892-.267 1.313-1.48 9.34-.935 13.277-.935 13.277s.006.037.011.096A103.582 103.582 0 0 0 33.9 83.63a88.876 88.876 0 0 0-18.803 13.805 100.178 100.178 0 0 0-3.365 3.397c-.256.267-.512.54-.769.812-.01.02-.032.037-.048.053-3.348 3.605-5.874 6.926-7.706 9.629 9.896-7.145 25.356-9.287 30.083-9.566 4.956-.287 9.976-1.136 9.976-1.136s1.96 1.046 4.299 1.559c2.654.587 5.43-.256 5.43-.256 1 5.137 4.61 8.437 5.555 9.179-.246 1.544.005 6.639 1.74 9.469 1.87 3.05 4.957 5.105 4.957 5.105s-.214 2.761.512 4.737 2.414 3.776 2.414 3.776-.769 1.292-.87 2.916.87 2.525.87 2.525-.881 1.133-1.03 2.014c-.145.887.4 2.216.4 2.216s-.534.972-.689 1.72c-.16.753.288 1.678.288 1.678-.357.699-1.42 3.983.145 5.302 1.559 1.32 3.503-1.143 3.503-1.143.598-.176 1.724-.918 2.258-1.751.658-1.02.658-1.971.658-1.971s.838-.545 1.564-1.933c.6-1.127.513-1.87.513-1.87s3.391-3.561 4.096-8.01c.603-3.792-.289-7.29-.289-7.29s2.548-3.877 2.43-8.31c1.736-1.212 5.923-3.93 11.135-5.959.15 2.99.62 5.58-.315 10.387-1.17 5.981-6.494 10.355-6.494 10.355 7.44-.8 12.4-7.364 14.366-12.106 1.607-3.867 3.07-9.336 3.749-11.813 7.257-1.41 13.885-1.784 16.085-2.115 2.916-.438 3.647-1.09 3.717-2.184.075-1.095-.22-3.066-.439-4.38z"/>
  <path d="M50.934 15.503c.565 2.543.705 6.639.705 6.639-.167-1.442-.793-3.692-1.27-5.265.173 1.139.31 2.206.419 3.081.375 3.042-.351 8.48 1.804 14.18 1.395 3.688 4.426 6.39 6.242 7.755 1.505-2.121 3.432-4.847 4.737-6.852-7.345-4.536-9.17-8.843-10.281-15.013a25.692 25.692 0 0 0-.685-2.835c.207 2.338.023 4.527.023 4.527-.283-2.259-1.694-6.216-1.694-6.216zm-19.143.403c.014.484-.009.97-.03 1.453-.055 1.26-.337 2.757-.462 4.012-.124 1.26-.337 2.5-.525 3.753-.052.345-.13 1.034-.141.922a69.118 69.118 0 0 1-.251-6.124l-.008-.579-.054.33c-.46 2.704-1.003 6.461-1.056 10.518-.001.116.01.455.007.636-.025 1.26.023 6.505 2.28 12.293 3.428 8.804 10.08 14.643 19.763 17.357 4.796 1.362 10.195 2.378 13.952 3.514 0 .005.005-.013.005-.013s4.155 1.217 6.662 3.15c0 0-2.726-.551-5.506-.9a11.115 11.115 0 0 0 9.246 4.938c2.92 0 5.571-1.132 7.559-2.969a9.553 9.553 0 0 1-1.277.76c-.951.46-1.888.618-2.594.668-1.591.507-3.187.286-3.599.213.033-.008.066-.018.1-.023 4.789-.826 9.254-4.487 8.751-10.071-.217-2.383-.945-4.93-2.447-6.537 1.876 1.598 3.152 3.884 3.39 6.514a9.615 9.615 0 0 1-.394 3.734c.608-1.31.964-2.76.984-4.296.353 1.64.224 3.045-.164 4.245a10.65 10.65 0 0 0 .77-3.822c.033.157.047.306.074.46l.002-.03c0-.806-.086-1.592-.251-2.35l-.003-.11c-.636-4.168-3.688-8.13-7.58-9.879-1.165-.605-4.708-1.912-8.543-2.258-1.738-.197-3.602-.174-5.88.067-1.017.107-2.008.234-2.978.359-5.205.667-10.119 1.297-15.386-1.656-6.525-3.289-11.355-10.632-12.273-18.691l-.1-.88c-.131-1.11-.18-2.286-.243-3.422-.094-1.004-.278-1.551-.3-1.425-.013.074.01.166.01.241.007.859-.205 1.712-.336 2.553-.155 1.001-.36 2.9-.374 2.835-.017-.079-.042-.16-.051-.233a5.576 5.576 0 0 1-.057-.833 43.554 43.554 0 0 0-.046-1.69c-.07-1.409-.308-5.525-.42-6.049-.029-.133-.086-.601-.226-.684z" fill="#fff"/>
  <path d="M99.863 69.373c-.684.012-3.148.314-3.843.354-.01.04-.26.079-.643.12.001.076 0 .15.003.226 0 0-1.034 7.945-4.799 13.13.986.546 3.472 1.29 4.35 2.09 1.627 1.485 1.717 3.631 1.638 4.479-.076.85-.2 2.364-.982 5.367 0 0-.19-4.317-.576-5.59-.385-1.272-1.83-2.448-3.22-2.871a45.092 45.092 0 0 0-3.07-.787c-2.482 2.84-4.983 4.803-7.334 6.893.25.386.601.711 1.097.84 1.413.369 3.199-.474 3.199-.474s-1.134 5.254 1.881 9.733c2.249 3.34 6.593 2.484 6.593 2.484s.933-6.601 5.052-11.889c3.797-4.875 8.424-7.399 11.656-8.35-.116-.6-.314-1.84-.085-2.441.308-.81 1.196-1.543 2.276-1.543 1.08 0 2.312.58 2.312.58-.577-.117-2.081-.193-2.853.614-.592.624-.319 1.883-.161 2.433 2.973-.546 5.71-.176 6.234-.046.561.14 1.075.045 1.263-.657.188-.7.187-1.542-.19-1.822-.375-.285-.982-.378-1.591-.845s-1.12-1.592-1.075-3.23c.047-1.637-.934-3.88-.936-3.883-2.246.888-7.49-.704-10.765-.939-3.277-.233-5.573 1.31-5.573 1.31-.89-2.246.141-5.288.141-5.288zm8.728 5.073c1.501.033 2.52.423 2.52.423-1.582.077-2.7.692-2.7.692.388.463 1.08 1.465 1.118 1.812.005.043 0 .14-.008.267l-.008.092v.013c-.048.533-.307 3.015-.879 3.706a2.093 2.093 0 0 1-.297.393c-.656.614-1.805 1.197-3.973 2.701-2.39 1.66-4.28 5.05-4.28 5.05s.68-3.205 2.157-5.037c1.832-2.269 4.219-3.769 5.69-4.552l.662-2.956c-.507-.338-1.144-.684-1.76-.794-1.28-.226-3.438-.198-4.758-.628a.862.862 0 0 0 .015-.026c1.58-.193 2.507-.657 4.858-1.043a8.957 8.957 0 0 1 1.643-.113zm9.863 20.232s-8.725 3.762-11.227 10.686c0 0 5.236.136 8.167.482 2.93.348 4.835.361 5.49.4.655.037 2.003.115 1.58-2.276-.425-2.391-1.08-2.816-2.236-3.279-1.157-.463-3.122-.346-3.122-.346s1.503-3.663 1.348-5.667zm-39.162.08c-.193.195-.387.387-.58.591 0 0 1.75 2.43 2.82 7 .814 3.48-1.36 9.139-1.36 9.139s1.128 2.84 1.627 6.298l.205-.126s6.064-3.215 9.323-4.575c.514-.217 1.163-.45 1.891-.692.068-1.36.202-3.232.477-4.97-.627.016-1.204.023-1.69.023-3.353 0-5.442-1.944-7-4.23h.003c-1.554-2.283-2.627-6.854-2.627-6.854s-1.942-.043-3.089-1.605zm26.824 12.36-.051.002c-.403.633-.727 1.307-1.077 2.25a72.136 72.136 0 0 1 3.207-.563c5.495-.828 10.014-.972 10.743-1.07.73-.096 2.042-.049 2.527-.438 0 0-1.52.124-3.173.075-1.654-.048-8.141-.257-12.176-.257z" fill="#e9bf9b"/>
  <path d="M67.534 29.762s-.162 1.923-1.322 4.381c-.413.872-.95 1.81-1.651 2.755a168.306 168.306 0 0 0-4.886 6.955c-.062.095-.407.538-.407.538.69-.08 1.39-.167 2.104-.259.984-.125 1.986-.255 3.017-.364 2.406-.255 4.388-.278 6.234-.067 3.65.329 7.149 1.493 8.81 2.266 4.624 1.955 8.268 6.664 8.913 11.589h-.008c.026.136.053.272.074.41l.023.154c.026.175.049.352.067.53l.002.006c1.147-.136 7.177-.82 12.207-.785 4.486.03 8.467.502 10.381.813-1.966-4.384-5.007-9.527-9.604-13.883-10.392-9.843-23.235-14.546-33.953-15.038zm-15.78 32.592a21.4 21.4 0 0 0-.128.649c-.126.773-.232 1.56-.32 2.345 1.979-.513 4.318-1.063 6.572-1.46.053-.01.103-.018.156-.026l-.11-.029-1.169-.294c-.785-.198-1.58-.383-2.374-.567-.88-.204-1.761-.407-2.627-.618zm68.28 6.183s-1.006.463-3.24.964c-2.236.5-6.746-.192-8.097-.346-1.35-.154-5.397-.463-6.554.307-1.156.77-.887 3.084-.887 3.084s.927-.962 3.201-1.54c2.275-.578 5.283-.154 5.283-.154-1.735.345-2.699.925-2.699.925 3.239.424 3.815 1.465 8.134 1.156 4.318-.309 4.86-4.396 4.86-4.396zm-26.753 1.692c-1.182.105-2.307.247-3.437.359a2.253 2.253 0 0 1-.026.12c-1.14 3.81-3.344 6.55-6.844 8.151-4.57 4.662-11.392 7.902-15.197 10.34-6.714 4.305-7.816 12.794-7.816 12.794.739-13.028 8.725-14.71 17.454-21.114.182-.132.623-.383.8-.518l-.272.113c-1.091 0-3.32-.203-4.348-.446a31.8 31.8 0 0 1-2.742 1.702c-4.568 2.492-7.736 6.56-7.736 6.56 1.235-4.125 4.125-5.863 8.456-8.913-1.62-.667-3.432-1.797-4.683-3.03-2.552 1.318-8.191 4.743-11.947 8.292-3.003 2.84-8.574 6.866-15.16 9.972 5.176-3.425 13.904-11.117 16.967-14.034 0 0-11.478 6.628-14.765 8.854 0 0 4.271-4.713 9.554-7.62 0 0-11.68 4.785-18.4 9.373-3.477 2.374-8.803 7.212-11.881 10.504 1.264-.274 6.062-1.242 7.341-1.374 8.638-.888 18.079-.216 26.35-10.176.136-.16.277-.323.395-.466-.72 2.462-1.029 5.913-.89 9.76.302 8.317 6.76 11.6 9.26 13.345-.063-1.023-.218-2.043.697-5.636 1.006-3.96 3.734-7.17 4.378-7.68 0 0-4.235 5.65-3.012 14.533 0 0 1.168-7.277 6.654-14.42 5.487-7.142 10.758-10.484 15.123-15.819 2.427-2.966 3.803-5.814 4.622-8.371.67-1.912.969-3.779 1.104-5.155zM64.97 73.846c-1.188.24-17.13 2.334-36.415 15.294-6.389 4.295-14.225 11.916-18.093 16.168 1.658-.725 5.229-2.222 8.054-3.095 2.886-2.963 7.624-7.764 11.965-10.806C40.542 84.362 57.75 77.074 65.824 74.87a14.648 14.648 0 0 1-.502-.72l-.352-.305zm51.35 11.99c-1.676.005-3.997.304-6.58 1.48-5.167 2.351-10.09 7.043-12.211 11.901-2.12 4.858-2.288 9.996-2.52 13.775-.23 3.779.401 9.426-1.082 14.511 0 0 2.436-3.6 3.32-13.777.8-9.229 3.085-15.577 7.326-18.546 0 0-3.393 4.703-4.55 12.414-1.157 7.712-.925 10.72-2.35 17.12l-.354 1.2s3.395-4.543 5.234-16.387c1.61-10.354 4.64-15 8.805-17.43 0 0-5.572 6.057-6.85 14.73 0 0 3.16-7.814 8.134-11.092 4.974-3.275 9.276-4.37 9.276-4.37s-.168-2.688-2.89-5.242c0 0-1.031-.29-2.708-.285zm-63.065 8.155s-3.855 4.614-8.123 5.682l-.166.018s2.45 1.282 4.48 1.282 3.697-.656 3.697-.656-.339-4.767.112-6.326zm23.633 2.668s-4.972 5.437-6.921 9.868c-1.738 3.954-2.347 7.139-2.44 8.83 2.079 1.294 4.59 2.861 5.977 3.961.336-.808.7-1.61 1.082-2.366 2.222-4.381 4.401-5.942 5.265-10.507.862-4.567-1.308-8.071-2.963-9.786zm-16.88 15.853s-.023 4.412 2.138 7.78c1.61 2.51 6 4.8 8.863 6.516.248-.933.914-3.328 1.877-5.911-1.16-.88-4.507-3.373-6.557-4.512-2.512-1.392-5.252-2.927-6.321-3.873zm18.758 1.377c-.37.592-.956 1.504-1.3 1.968-1.086 1.47-3.767 7.31-4.911 11.886.342.213.65.413.913.595 1.258.88 2.004 1.587 2.427 2.058.548-.974 1.622-1.966 2.05-2.742 1.574-2.859 2.78-6.234 2.39-9.308-.269-2.11-1.216-3.791-1.57-4.457zm-11.493 12.955c-.011.935.107 3.299 1.44 5.224 1.702 2.454 4.135 3.716 4.135 3.716s1.092-1.915 2.302-4.06a25.421 25.421 0 0 0-3.048-2.202c-1.149-.713-3.115-1.69-4.829-2.679zm10.556 3.38s-1.989 2.683-3.384 5.194c-.973 1.752-1.846 4.055-2.284 5.285.093.053.181.107.262.162.914.616 2.084 2.258 2.084 2.258s2.504-2.79 3.522-5.952c1.018-3.161-.2-6.947-.2-6.947zm-7.91 5.004c-.436.566-1.203 1.219-.692 2.938.312 1.054 1.097 1.597 1.87 2.002.5-1.582 1.144-3.333 1.144-3.333-1.18-.6-2.322-1.607-2.322-1.607zm-.639 4.955s-.746 1.01-.471 2.204c.276 1.197 1.387 1.714 2.568 2.315 1.182.6 1.628 1.8 1.628 1.8.84-.59 1.256-1.492.792-2.474-.465-.983-1.359-1.815-2.61-2.412-1.25-.598-1.907-1.433-1.907-1.433zm-.435 3.95c-1.219 2.095-.629 2.582 1.05 3.827 1.15.85.931 1.96.931 1.96s1.576-.798 1.471-1.811c-.07-.672-1.037-2.051-1.95-2.669-.915-.618-1.502-1.307-1.502-1.307zm-.298 3.976c-.687.851-1 2.57-.564 3.08.435.513 1.04.453 1.418.024.377-.427.49-1.102-.036-1.812-.424-.576-.818-1.292-.818-1.292z" fill="#ffc62f"/>
  <path d="M111.962 60.403c-1.382-.258-5.785-.923-11.25-.96-4.968-.033-10.958.588-12.139.72l-.001.02c-.007 7.389-6.367 12.663-12.29 12.751-8.945.134-12.238-7.076-12.306-7.501a97.247 97.247 0 0 0-2.025-.561 72.038 72.038 0 0 0-3.792.563c-2.464.434-5.01 1.042-7.083 1.581a297.778 297.778 0 0 0-.263 3.005c-.295 6.221.097 5.787.097 5.787 1.804-.705 8.458-2.412 8.458-2.412 1.949-.454 4.263-.94 6.972-1.441 1.905 3.84 5.86 6.479 10.436 6.479 5.714 0 10.462-4.114 11.456-9.54 12.488-1.355 18.39-1.394 26.103-.368-.81-4.297-2.374-8.123-2.374-8.123" stroke="#000" stroke-width=".2047344" fill="#4f2683"/>
</svg>